<svg xmlns="http://www.w3.org/2000/svg" viewBox="0 0 500 500"><g id="freepik--People--inject-80"><path d="M489.4,255.16v83.48H12.79V252.53c12.89-15,30.68-28.6,53-40.44,101.57-53.8,266.82-53.8,368.38,0C457.84,224.61,476.38,239.08,489.4,255.16Z" style="fill:#f0f0f0"></path><g id="freepik--people--inject-80" style="opacity:0.6000000000000001"><path d="M396.51,108.92a6.73,6.73,0,1,1-6.72-6.72A6.72,6.72,0,0,1,396.51,108.92Z" style="fill:#e6e6e6"></path><circle cx="316.11" cy="83.18" r="6.72" style="fill:#f0f0f0"></circle><circle cx="388.25" cy="129.09" r="6.72" style="fill:#f0f0f0"></circle><circle cx="373.12" cy="174.3" r="6.72" style="fill:#f0f0f0"></circle><path d="M423.8,151.83a6.73,6.73,0,1,1-6.73-6.72A6.72,6.72,0,0,1,423.8,151.83Z" style="fill:#f5f5f5"></path><circle cx="419.47" cy="115.64" r="6.72" style="fill:#f0f0f0"></circle><circle cx="327.41" cy="122.36" r="6.72" style="fill:#f0f0f0"></circle><circle cx="409.95" cy="181.23" r="6.72" style="fill:#e6e6e6"></circle><path d="M441.6,178.58a6.72,6.72,0,1,1-6.72-6.73A6.72,6.72,0,0,1,441.6,178.58Z" style="fill:#f0f0f0"></path><circle cx="394.2" cy="158.41" r="6.72" style="fill:#f0f0f0"></circle><circle cx="370.59" cy="143.76" r="6.72" style="fill:#f0f0f0"></circle><path d="M360.44,166.53a6.72,6.72,0,1,1-6.72-6.72A6.72,6.72,0,0,1,360.44,166.53Z" style="fill:#f5f5f5"></path><path d="M331.68,160.86a6.73,6.73,0,1,1-6.72-6.72A6.72,6.72,0,0,1,331.68,160.86Z" style="fill:#f0f0f0"></path><circle cx="354.62" cy="122.36" r="6.72" style="fill:#f5f5f5"></circle><circle cx="339.31" cy="145.89" r="6.72" style="fill:#e6e6e6"></circle><circle cx="363.31" cy="98.47" r="6.72" style="fill:#f0f0f0"></circle><path d="M343.31,95.08a6.72,6.72,0,1,1-6.72-6.72A6.72,6.72,0,0,1,343.31,95.08Z" style="fill:#f0f0f0"></path><path d="M444.68,137a6.72,6.72,0,1,1-6.72-6.72A6.72,6.72,0,0,1,444.68,137Z" style="fill:#f5f5f5"></path><path d="M456.34,160a6.72,6.72,0,1,1-6.72-6.72A6.72,6.72,0,0,1,456.34,160Z" style="fill:#f0f0f0"></path><circle cx="474.96" cy="218.76" r="6.72" style="fill:#f5f5f5"></circle><circle cx="448.33" cy="198.74" r="6.72" style="fill:#f0f0f0"></circle><circle cx="476.51" cy="165.13" r="6.72" style="fill:#f5f5f5"></circle><circle cx="468.24" cy="192.02" r="6.72" style="fill:#e6e6e6"></circle><circle cx="463.06" cy="143.76" r="6.72" style="fill:#f0f0f0"></circle><circle cx="265.43" cy="107.35" r="6.72" style="fill:#e6e6e6"></circle><path d="M278.87,83a6.72,6.72,0,1,1-6.72-6.72A6.72,6.72,0,0,1,278.87,83Z" style="fill:#f0f0f0"></path><path d="M282.19,131.7a6.72,6.72,0,1,1-6.72-6.72A6.72,6.72,0,0,1,282.19,131.7Z" style="fill:#f0f0f0"></path><circle cx="298.4" cy="118.86" r="6.72" style="fill:#f5f5f5"></circle><circle cx="291.09" cy="94.61" r="6.72" style="fill:#f0f0f0"></circle><circle cx="291.09" cy="155.22" r="6.72" style="fill:#e6e6e6"></circle><path d="M318.23,139.17a6.72,6.72,0,1,1-6.72-6.72A6.72,6.72,0,0,1,318.23,139.17Z" style="fill:#f0f0f0"></path><path d="M90.66,118.86a6.72,6.72,0,1,0,6.2-7.2A6.72,6.72,0,0,0,90.66,118.86Z" style="fill:#e6e6e6"></path><path d="M161.29,86.44a6.72,6.72,0,1,0,6.2-7.2A6.71,6.71,0,0,0,161.29,86.44Z" style="fill:#f0f0f0"></path><path d="M81.05,143.36a6.72,6.72,0,1,0,6.2-7.2A6.73,6.73,0,0,0,81.05,143.36Z" style="fill:#f0f0f0"></path><path d="M79.43,168.08a6.72,6.72,0,1,0,6.2-7.2A6.71,6.71,0,0,0,79.43,168.08Z" style="fill:#f5f5f5"></path><path d="M62.82,125.75a6.72,6.72,0,1,0,6.2-7.2A6.72,6.72,0,0,0,62.82,125.75Z" style="fill:#f0f0f0"></path><path d="M152.92,126.36a6.72,6.72,0,1,0,6.21-7.21A6.73,6.73,0,0,0,152.92,126.36Z" style="fill:#f0f0f0"></path><circle cx="72.69" cy="194.46" r="6.72" transform="translate(-123.49 262.4) rotate(-88.61)" style="fill:#f0f0f0"></circle><path d="M102.69,179.07a6.72,6.72,0,1,0,6.21-7.2A6.73,6.73,0,0,0,102.69,179.07Z" style="fill:#f0f0f0"></path><path d="M111.46,150.91a6.72,6.72,0,1,0,6.2-7.2A6.72,6.72,0,0,0,111.46,150.91Z" style="fill:#f0f0f0"></path><path d="M130,172.35a6.72,6.72,0,1,0,6.2-7.2A6.73,6.73,0,0,0,130,172.35Z" style="fill:#f5f5f5"></path><path d="M161.29,165.63a6.72,6.72,0,1,0,6.2-7.2A6.71,6.71,0,0,0,161.29,165.63Z" style="fill:#f0f0f0"></path><path d="M125.79,128.38a6.72,6.72,0,1,0,6.2-7.2A6.72,6.72,0,0,0,125.79,128.38Z" style="fill:#f5f5f5"></path><path d="M142.81,150.7a6.72,6.72,0,1,0,6.2-7.2A6.71,6.71,0,0,0,142.81,150.7Z" style="fill:#e6e6e6"></path><path d="M115.35,105.19a6.72,6.72,0,1,0,6.2-7.2A6.72,6.72,0,0,0,115.35,105.19Z" style="fill:#f0f0f0"></path><path d="M141.74,99.83a6.72,6.72,0,1,0,6.2-7.2A6.72,6.72,0,0,0,141.74,99.83Z" style="fill:#f0f0f0"></path><circle cx="59.24" cy="162.68" r="6.72" transform="translate(-112.07 187.67) rotate(-78.29)" style="fill:#f5f5f5"></circle><path d="M39.38,195a6.72,6.72,0,1,0,6.2-7.2A6.71,6.71,0,0,0,39.38,195Z" style="fill:#f0f0f0"></path><path d="M18.7,180.11a6.72,6.72,0,1,0,6.2-7.21A6.71,6.71,0,0,0,18.7,180.11Z" style="fill:#f5f5f5"></path><path d="M23,220.94a6.72,6.72,0,1,0,6.21-7.21A6.73,6.73,0,0,0,23,220.94Z" style="fill:#e6e6e6"></path><path d="M32.66,149.31a6.72,6.72,0,1,0,6.2-7.2A6.71,6.71,0,0,0,32.66,149.31Z" style="fill:#f0f0f0"></path><path d="M205.42,121.42a6.72,6.72,0,1,0,6.2-7.2A6.72,6.72,0,0,0,205.42,121.42Z" style="fill:#f0f0f0"></path><path d="M185,129.58a6.72,6.72,0,1,0,6.2-7.2A6.73,6.73,0,0,0,185,129.58Z" style="fill:#f5f5f5"></path><circle cx="178.22" cy="144.13" r="6.72" transform="translate(0.92 289.39) rotate(-78.29)" style="fill:#f5f5f5"></circle><path d="M182.56,100.61a6.72,6.72,0,1,0,6.2-7.2A6.72,6.72,0,0,0,182.56,100.61Z" style="fill:#f0f0f0"></path><path d="M196,157.74a6.72,6.72,0,1,0,6.21-7.2A6.73,6.73,0,0,0,196,157.74Z" style="fill:#f0f0f0"></path><circle cx="261.68" cy="155.96" r="6.72" style="fill:#f0f0f0"></circle><path d="M256.51,134.14a6.72,6.72,0,1,1-6.72-6.73A6.72,6.72,0,0,1,256.51,134.14Z" style="fill:#f0f0f0"></path><path d="M245.22,160a6.72,6.72,0,1,1-6.72-6.72A6.72,6.72,0,0,1,245.22,160Z" style="fill:#f5f5f5"></path><circle cx="224.93" cy="144.13" r="6.72" style="fill:#f0f0f0"></circle><circle cx="233.07" cy="112.87" r="6.72" style="fill:#f5f5f5"></circle><circle cx="239.79" cy="87.25" r="6.72" style="fill:#f0f0f0"></circle><path d="M222.51,87.66a6.72,6.72,0,1,1-6.72-6.72A6.72,6.72,0,0,1,222.51,87.66Z" style="fill:#f0f0f0"></path></g><path d="M493.47,153.28a.54.54,0,0,1-.44-.22c-13-18.33-33-34.7-59.35-48.67-101.28-53.65-266.08-53.65-367.36,0C40,118.36,20,134.73,7,153.05a.55.55,0,0,1-.73.14.49.49,0,0,1-.14-.7c13.11-18.45,33.2-34.93,59.71-49,101.56-53.8,266.82-53.8,368.38,0,26.51,14,46.6,30.52,59.71,49a.48.48,0,0,1-.14.69A.52.52,0,0,1,493.47,153.28Z" style="fill:#f0f0f0"></path></g><g id="freepik--Floor--inject-80"><g id="freepik--floor--inject-80"><ellipse cx="251" cy="338.13" rx="238.4" ry="137.64" style="fill:#22D3EE"></ellipse><ellipse cx="251" cy="338.13" rx="238.4" ry="137.64" style="fill:#fff;opacity:0.85"></ellipse><path d="M380,302c-47,27.15-47,71.17,0,98.32,17.94,10.36,40.14,16.75,63.35,19.2,51.41-40.4,59.77-93.34,25.13-137.83C436.54,281.15,404.34,287.91,380,302Z" style="fill:#22D3EE;opacity:0.30000000000000004"></path><path d="M82.43,240.81c-88.27,51-92.83,131.93-13.73,186,49.69-6,97-20.19,135.62-42.47,86.2-49.77,102.22-124.72,48.05-183.84C190.9,200.3,129.33,213.73,82.43,240.81Z" style="fill:#22D3EE;opacity:0.30000000000000004"></path></g></g><g id="freepik--Sun--inject-80"><circle id="freepik--sun--inject-80" cx="360.12" cy="36.52" r="13.61" transform="translate(241.83 378.62) rotate(-76.72)" style="fill:#ffbda7"></circle></g><g id="freepik--Clouds--inject-80"><g id="freepik--Cloud--inject-80"><path d="M86.5,53.14c0-3.68-4-6.24-8.61-6.68-5.39-.5-9.21,1.9-9.34,6.14C65,51.15,61.32,52.08,61.6,56c-.92-1.05-4.35-1-5.58-.73A4.79,4.79,0,0,0,53,57.84a3.45,3.45,0,0,0-.32,2c-2.06-.67-6.73-1.09-7.89.8C42.67,64,51,64.07,52.65,63.06c.35,2.61,9.28,3,11.44.63,1.69,1.7,4.11,2.08,6.73,2.23,4.41.27,7.12-1.23,10.57-3,3.74,3.18,10.22,3.23,13.6-.4.86.81,3.23,1.07,5.13.61,1.25-.3,1.53-.83,1.53-.83a10.77,10.77,0,0,0,2.29.69c2.45.51,7,0,5.1-2.23-.65-.75-3-1.23-4.05-1-1.07-2.1-5.35-4.09-7.81-2.31-.1-2.55-2.42-4.54-5.7-5C90.39,52.25,87.75,52.1,86.5,53.14Z" style="fill:#f5f5f5"></path></g><g id="freepik--cloud--inject-80"><path d="M432.75,47.1c0-3.68-4-6.24-8.61-6.67-5.38-.51-9.2,1.89-9.33,6.13-3.52-1.45-7.24-.52-7,3.35-.91-1-4.34-1-5.57-.73a4.81,4.81,0,0,0-3.07,2.62,3.62,3.62,0,0,0-.32,2c-2.05-.67-6.72-1.09-7.89.8-2.08,3.35,6.23,3.46,7.9,2.44.36,2.61,9.28,3,11.44.63,1.69,1.7,4.12,2.08,6.73,2.23,4.42.27,7.13-1.23,10.57-3,3.75,3.18,10.23,3.23,13.6-.4.86.82,3.23,1.07,5.13.61,1.25-.29,1.54-.83,1.54-.83a10.6,10.6,0,0,0,2.29.69c2.45.51,7,0,5.09-2.23-.65-.75-3-1.23-4-1-1.07-2.1-5.36-4.09-7.82-2.31-.09-2.55-2.42-4.54-5.69-5C436.64,46.21,434,46.06,432.75,47.1Z" style="fill:#f5f5f5"></path></g><g id="freepik--cloud--inject-80"><path d="M209.75,41.05a9.75,9.75,0,0,0-3.32-.54c-1.08-.07-1.42-.27-1.63-.5a7.93,7.93,0,0,0-9.56-2.62A6.06,6.06,0,0,0,188,33.48c.05-3.34-4.28-6.85-8.13-7.59-3.69-.71-6.89-.31-8.94,2.14-2.33-4.34-11.15-5.4-15.86-3-2.71,1.39-5,2.81-6.1,5.34a10.53,10.53,0,0,0-.93,5c-1.89-1.59-5.61-2-8.07-1-2.65,1.09-2.81,3.11-2.9,5.16a9.27,9.27,0,0,0-4.87,0c-1.67.53-2.62,1.87-2.36,2.93-1.34-.05-4.49,1.09-4.1,2.49.44,1.57,4.06,1.34,5.42,1.26a24.35,24.35,0,0,0,3.77-.67,5.67,5.67,0,0,0,2,.34c2.31-.06,3.26-1.07,3.62-1.94,1.17,2.35,5.21,4.08,8.06,4.75C154,50,161.48,49,164.69,45a5.71,5.71,0,0,0,1.62,1.9,9.25,9.25,0,0,0,5,1.91c2.19.16,8.08.32,9.66-3.19,1.22,2.29,6.48,3.24,10.44,2.6a16.31,16.31,0,0,0,4.43-1.43,28.23,28.23,0,0,0,2.54-1.59,2.11,2.11,0,0,1,2.18-.19,13,13,0,0,0,8.69-.18C211.43,43.83,211.86,42,209.75,41.05Z" style="fill:#f5f5f5"></path></g></g><g id="freepik--Shadows--inject-80"><ellipse id="freepik--Shadow--inject-80" cx="88.7" cy="351.74" rx="60.42" ry="34.88" style="opacity:0.1"></ellipse><ellipse id="freepik--shadow--inject-80" cx="419.74" cy="355.03" rx="59.63" ry="34.43" style="opacity:0.1"></ellipse><path id="freepik--shadow--inject-80" d="M177.08,291.22c-3.86.22-8.11,2.28-11.05,4.5-3.17,2.39-5.51,6.29-4.95,10.22a11.36,11.36,0,0,0,5.14,7.43c5.94,4,11.91,3.64,18.64,4.78,11.45,2,20.38,11.87,31.87,13.53,8.8,1.28,17.57-2.52,26.46-2.53,6.34,0,12.5,1.89,18.7,3.18s12.86,1.94,18.72-.48c3.47-1.42,6.82-4.77,5.94-8.42-.62-2.57-3.09-4.2-5.36-5.56-11-6.62-22.23-13.31-34.58-16.95-7.13-2.1-15.43-3-21.47,1.38a17.49,17.49,0,0,1-3.86,2.56,9.65,9.65,0,0,1-5.65-.15c-6.36-1.6-12.25-4.61-18.19-7.39s-12.1-5.38-18.62-6.06A11.15,11.15,0,0,0,177.08,291.22Z" style="opacity:0.13"></path></g><g id="freepik--character-3--inject-80"><g id="freepik--Character--inject-80"><g id="freepik--Bottom--inject-80"><path d="M433.28,310.5c-3.36-11.44-6.76-22.83-8.27-28.08-.14-.49-.26-.93-.37-1.3-2.44-8.73-6.41-31.07-6.41-31.07l-16.9,23.32a33.11,33.11,0,0,1,3.8,15.53c-.1,9.3.28,32.12.92,36.28s3.12,7.64,2.19,10.95-5.5,3.86-7.22,4.56c-4.38,1.78-5.65,6.38-9.85,9s-11.62,1.41-15.05,0c-4.17-1.75-2.39-3.86,1.22-5.64s8.89-6.25,12.42-10.82,4.51-4.65,3.74-9.53c-.38-2.42-10.39-35-10.39-35-1.52-5.48-2.82-10.18-3.49-12.8-1.16-4.62-1.86-9.3,5.39-27.2l13.67-33.74s7.58,4.67,21.32,5.08c17.47.51,26.73-6.64,26.73-6.64a104.81,104.81,0,0,1,1.33,23.82c-.43,10.09-.83,43.1-.83,43.1l.56,1.65c.49,1.42,1.22,3.56,1.85,5.58a67.08,67.08,0,0,1,2.74,17.17c.43,8.82.25,29.85.25,29.85L453,339s.48,3.33-3.76,4.51-5.85,1.38-7.26-2.87l-1.4-4.26Z" style="fill:#37474f"></path><path d="M446.73,213.31c1.8,6.41,2.74,10.42,2.48,23s-1.22,44-1.22,44c2.47,5.76,4,11.91,3.24,13.7-8.68,7-21.79,3.47-21.79,3.47s-3.48-8.3-4.78-13-7.32-32.87-7.32-32.87L402.1,273.37a31,31,0,0,1,3.11,8.88c.78,4.73,1.14,8.36.52,9.27s-4.79,3.24-11.47,3.5-10.18-3.26-10.18-3.26-3.88-11.13-5.31-16.84-.23-11.15,3-20,16.92-40.81,16.92-40.81Z" style="fill:#f0f0f0"></path><path d="M446.73,213.31c1.8,6.41,2.74,10.42,2.48,23s-1.22,44-1.22,44c2.47,5.76,4,11.91,3.24,13.7-8.68,7-21.79,3.47-21.79,3.47s-3.48-8.3-4.78-13-7.32-32.87-7.32-32.87L402.1,273.37a31,31,0,0,1,3.11,8.88c.78,4.73,1.14,8.36.52,9.27s-4.79,3.24-11.47,3.5-10.18-3.26-10.18-3.26-3.88-11.13-5.31-16.84-.23-11.15,3-20,16.92-40.81,16.92-40.81Z" style="fill:#f0f0f0"></path><path d="M446.73,213.31l-48.05.84s-1.29,3-3.17,7.43c5.22,4.78,11.61,8,26.1,7.64,13.28-.29,22-4.81,26.91-8.24A65.79,65.79,0,0,0,446.73,213.31Z" style="fill:#37474f"></path><path d="M406.84,229.78l2-.32,1.36-6.52-2,.44Zm14-5.51.57,6.51,1.81-.88-.61-6.63Zm21.75-5.94L441,219.6l1.56,6.35,1.65-1.15Zm-11.83,4,1.56,6.35,1.65-1.14-1.6-6.47Z" style="fill:#f0f0f0"></path><path d="M442.63,365.15c.46,4.12,1.26,6.83,2.88,9.17s4.47,3,7.28,2.11,6.35-2.95,7-6.56a22.36,22.36,0,0,0-.52-9.85Z" style="fill:#263238"></path><path d="M454.65,374.64l0,2.15c.12.47-1.65.91-1.77.45l-1-1.89Z" style="fill:#263238"></path><path d="M458.24,372.24l.48,2.1c.23.43-1.38,1.28-1.61.85l-1.46-1.58Z" style="fill:#263238"></path><path d="M447.33,375.31l.29,2.13c-.06.48,1.74.71,1.8.23l.81-2Z" style="fill:#263238"></path><path d="M452.65,334.61c1.17,0,1.82,5.57,2.79,11.09,1.05,5.92,2.68,8.29,3.59,13.14,1,5.54.87,8.05-.93,11.53s-8.65,7.16-12.37,2.51c-3-3.8-3.39-8.16-3.44-13.75a121.1,121.1,0,0,0-1.17-14.06c-.45-4.17-1.5-8.21-.5-8.73.11.61,1.28,5,1.86,4.69.23-.13,0-1-.07-1.57a1.86,1.86,0,0,1,.24-1.37,2.24,2.24,0,0,1,1.27-.64c1.15-.29,3-.69,4.14-.85.58-.08,1.47-.14,2.06-.16a4.74,4.74,0,0,1,1.5.13,1.05,1.05,0,0,1,.66.54,1.85,1.85,0,0,1,.1.63,4.87,4.87,0,0,0,.2,1.14c.06.16.18.36.35.31s.13-.35.11-.49C452.92,337.77,452.87,337.3,452.65,334.61Z" style="fill:#263238"></path><path d="M458.67,357.27c.16.79,1.14,6.09-.28,7.13s-2.64-3-2.64-3-3.8-.94-9.12,1.7c.33.85-.36,3.74-1.89,3.22s-2.43-6.61-2.44-6.69c.06,5.36.48,9.58,3.43,13.27,3.72,4.65,10.57,1,12.37-2.51s2-6,.93-11.53C458.92,358.28,458.8,357.76,458.67,357.27Z" style="fill:#455a64"></path><path d="M455.34,361.76c.13,2,2.12,1.23,2.05-1.63s-1.7-9.53-1.95-14.43c-1-5.52-1.63-11.19-2.81-11.22,0,.81.34,4,.41,4.48.67,4.07,1,11.91,1.58,15.66A65,65,0,0,1,455.34,361.76Z" style="fill:#455a64"></path><path d="M447.26,363a65.79,65.79,0,0,1-1.5-7c-.61-3.71-2.72-11.34-3.74-15.36-.32-.68-1.4-4.21-1.4-4.26-.72.39-.73,1.51-.1,5,.31,1.7.85,4,1.35,6.39,1.26,4.75,2.12,11.6,2.93,14.34S447.75,364.94,447.26,363Z" style="fill:#455a64"></path><path d="M446.45,363.25a.44.44,0,0,1-.37-.21.43.43,0,0,1,.16-.59,14.7,14.7,0,0,1,9.6-1.49.43.43,0,1,1-.18.84,14,14,0,0,0-9,1.39A.46.46,0,0,1,446.45,363.25Z" style="fill:#ebebeb"></path><path d="M445.23,358.92a.42.42,0,0,1-.37-.22.42.42,0,0,1,.17-.58,17.94,17.94,0,0,1,10.63-1.65.43.43,0,0,1,.35.49.43.43,0,0,1-.5.35,17.39,17.39,0,0,0-10.06,1.56A.42.42,0,0,1,445.23,358.92Z" style="fill:#ebebeb"></path><path d="M444.65,354.68a.46.46,0,0,1-.37-.21.43.43,0,0,1,.16-.59c.21-.13,5.26-3,10.61-1.55a.43.43,0,1,1-.24.82c-5-1.37-9.88,1.44-9.93,1.47A.46.46,0,0,1,444.65,354.68Z" style="fill:#ebebeb"></path><path d="M443.28,350.87a.42.42,0,0,1-.37-.21.43.43,0,0,1,.16-.59c.24-.13,5.92-3.37,11.79-1.64a.43.43,0,0,1,.29.53.43.43,0,0,1-.54.29c-5.5-1.62-11.05,1.53-11.1,1.56A.46.46,0,0,1,443.28,350.87Z" style="fill:#ebebeb"></path><path d="M442.61,346.61a.44.44,0,0,1-.37-.21.43.43,0,0,1,.17-.59c.25-.14,6.34-3.48,11.86-1.77a.43.43,0,0,1,.28.54.44.44,0,0,1-.54.28c-5.15-1.6-11.12,1.67-11.18,1.7A.34.34,0,0,1,442.61,346.61Z" style="fill:#ebebeb"></path><path d="M407.66,338.29l.08,2.15c.14.46-1.6,1-1.74.53l-1.14-1.82Z" style="fill:#263238"></path><path d="M402.42,340.33l.72,2c.27.4-1.23,1.42-1.5,1L400,342Z" style="fill:#263238"></path><path d="M398.43,343.56l1,1.91c.33.36-1,1.58-1.35,1.22l-1.8-1.18Z" style="fill:#263238"></path><path d="M394.87,347.42l.66,2.05c.26.41-1.27,1.39-1.53,1L392.41,349Z" style="fill:#263238"></path><path d="M390.76,350.23l.24,2.14c.17.45-1.53,1.1-1.7.65L388,351.28Z" style="fill:#263238"></path><path d="M386.26,352.14l-.27,2.13c.06.48-1.74.72-1.81.24l-.82-2Z" style="fill:#263238"></path><path d="M381.22,352.71l-.73,2c0,.48-1.85.32-1.81-.16l-.37-2.12Z" style="fill:#263238"></path><path d="M377,351.35l-1,1.9c-.11.47-1.88,0-1.77-.43l0-2.15Z" style="fill:#263238"></path><path d="M373.21,348.38a3.75,3.75,0,0,0,1.14,3.58,15.28,15.28,0,0,0,11.45,1.36,19.7,19.7,0,0,0,10.29-5.76c2-2.1,4.41-4.54,7.27-5.89,2.17-1,4.69-2.11,5.35-2.91s.18-3.95.18-3.95Z" style="fill:#263238"></path><path d="M399.28,325.31a1.49,1.49,0,0,1,1.33.4,1.44,1.44,0,0,1,.15.8v1.09a2.93,2.93,0,0,0,0,1c.19.36.8,0,1-.22a8.41,8.41,0,0,0,1.39-2.13c.26-.41,1.1-.74,1.49-1a10.54,10.54,0,0,0,1.51-1.16c.34-.43-.27-.73-.31-1.24a.91.91,0,0,1,.94.64c.27.85,1.1,4.43,1.64,5.82a10.44,10.44,0,0,1,.47,6.64c-1.23,1.93-3.78,3.22-6.11,4.42a31.07,31.07,0,0,0-7.3,5.83c-2.35,2.42-7.59,5.27-11.21,5.67-4.3.46-9.29-.34-10.63-2.17-1.66-2.27-.75-3.8,5.26-7.44,1.29-.78,2.48-1.73,3.69-2.63l.25-.2a36,36,0,0,0,4.88-4.17,11.27,11.27,0,0,0,2.65-5.07c.38-1.52.6-3.09,1.11-4.59a.92.92,0,0,1,.21-.39,1.11,1.11,0,0,1,1-.09,14.39,14.39,0,0,0,3.53.35Z" style="fill:#263238"></path><path d="M395.5,346.16c1-1,2.08-2,3.17-3h0s-6.94,5.34-10.21,3.66c-2.1-1.08-1.37-2.78-1.38-3.29s-5.08-2.14-7-2.14h0c-.5.35-.91.63-1.17.79-6,3.64-6.92,5.17-5.26,7.44,1.34,1.83,5,2.95,10.57,2.3C387.85,351.54,393.15,348.58,395.5,346.16Z" style="fill:#455a64"></path><path d="M387.42,342c-3.76,2-1.92,3-.86,2.58,3.11-1.17,7.47-4.13,11.15-7.77,3.83-3.79,6.58-8.23,8-9.63a10.75,10.75,0,0,0,1.61-1.76c-.2-.85-.36-1.64-.48-2a.9.9,0,0,0-1.05-.59c.05.5.1,1.1.1,1.1a3.94,3.94,0,0,1-1.33,1.3,5,5,0,0,0-1.4,1c-.48.75-.8,1.29-1.47,2.22C399.3,331.8,391.19,340,387.42,342Z" style="fill:#455a64"></path><path d="M386.71,344a.43.43,0,0,1-.26-.11,8.81,8.81,0,0,0-6.86-1.78.39.39,0,0,1-.47-.29.37.37,0,0,1,.3-.46,9.55,9.55,0,0,1,7.57,2,.38.38,0,0,1,0,.55A.4.4,0,0,1,386.71,344Z" style="fill:#ebebeb"></path><path d="M389.91,341.5a.37.37,0,0,1-.26-.1,8.87,8.87,0,0,0-6.86-1.78.39.39,0,1,1-.18-.76,9.61,9.61,0,0,1,7.58,2,.36.36,0,0,1,0,.54A.34.34,0,0,1,389.91,341.5Z" style="fill:#ebebeb"></path><path d="M393.12,339.12a.38.38,0,0,1-.26-.11,8.85,8.85,0,0,0-6.86-1.77.4.4,0,0,1-.47-.29.39.39,0,0,1,.3-.47,9.67,9.67,0,0,1,7.58,2,.4.4,0,0,1-.29.67Z" style="fill:#ebebeb"></path><path d="M396.05,336.49a.4.4,0,0,1-.27-.11c-1.09-1-4.87-2.16-7.46-1.58a.4.4,0,0,1-.48-.29.39.39,0,0,1,.3-.46c3-.67,6.95.59,8.19,1.77a.38.38,0,0,1,0,.55A.4.4,0,0,1,396.05,336.49Z" style="fill:#ebebeb"></path><path d="M398.43,333.47a.39.39,0,0,1-.27-.11c-1.52-1.49-5.53-1.87-8.17-1.27a.39.39,0,0,1-.47-.29.38.38,0,0,1,.29-.46c2.9-.66,7.18-.23,8.9,1.47a.38.38,0,0,1,0,.55A.43.43,0,0,1,398.43,333.47Z" style="fill:#ebebeb"></path><path d="M417.34,251.65,417,241.18s-6.92-1.81-11-7c0,0,.34,4.86,7.78,8.74l1.66,7.19L402.1,273.37Z" style="fill:#e0e0e0"></path></g><g id="freepik--Topa--inject-80"><path d="M396.59,157.77c-7.43-.88-11.83.73-19,13.24-6.22,10.8-8.12,12.69-9.76,17.13-1.5,4-1.57,5.83-1.21,10.64.46,6.15,1.32,19.5,2.93,28.25l12.26-2.61L383,198.17l10.55-18.12C397,171.32,397.56,164.13,396.59,157.77Z" style="fill:#37474f"></path><path d="M385.13,204.89c.55,2.87,3,6.7,5.22,6.5a20.54,20.54,0,0,1-1,4.44c-.72,1.77-3.22,2.5-4.15.62S383.75,207.93,385.13,204.89Z" style="fill:#9e6767"></path><path d="M360.93,215.43c-.29-3.39.22-9.44,4.87-8.84a6.61,6.61,0,0,1,2.85-4,3.47,3.47,0,0,1,4.49.84,4,4,0,0,1,7.1-.41c1.46-2.68,4.76-.42,4.94,2.23.25,3.75.3,6,.58,9,.12,1.32.45,1.81.77,2,.68.41,1.06,0,1.42-.41,1.4-1.71,1.55-3.64,2.6-4.69a2.05,2.05,0,0,1,3.22.58c1.11,1.79.06,5.41-.56,7.43-2.39,8.45-10.71,14.72-19.56,12.11C366.14,229.89,361.3,222.78,360.93,215.43Z" style="fill:#874c4c"></path><g style="opacity:0.2"><path d="M365.8,206.59c.38,2.74.78,5.42,1.34,8.08.27,1.33.6,2.64,1,4a19.45,19.45,0,0,0,1.45,3.8,10.94,10.94,0,0,1-2.12-3.57,24.45,24.45,0,0,1-1.18-4A25.77,25.77,0,0,1,365.8,206.59Z"></path></g><g style="opacity:0.2"><path d="M373.14,203.43c.37,2.84.63,5.65,1,8.44.18,1.4.4,2.79.67,4.17a15.28,15.28,0,0,0,1.27,4,9.76,9.76,0,0,1-2-3.83,27.78,27.78,0,0,1-.89-4.22A34.54,34.54,0,0,1,373.14,203.43Z"></path></g><g style="opacity:0.2"><path d="M380.24,203a69.16,69.16,0,0,0,.44,7.67c.31,2.53.84,5.05,1.08,7.64a32.92,32.92,0,0,1-2-7.53A21,21,0,0,1,380.24,203Z"></path></g><path d="M399.31,156.71c-11.16-.12-15.76,3.75-20.54,11.84s-9.22,15-9.22,15,5.64,10.32,15.56,11.1a76.87,76.87,0,0,0,10.21-15.4C398,173.48,399.31,156.71,399.31,156.71Z" style="fill:#e0e0e0"></path><path d="M373.9,176.6l-.56.91a24.67,24.67,0,0,0,15.81,11.94l.58-.81A23.58,23.58,0,0,1,373.9,176.6Z" style="fill:#22D3EE"></path><path d="M372.2,179.34c-.2.32-.39.63-.58.92A24.74,24.74,0,0,0,387,192.31l.61-.79A23.52,23.52,0,0,1,372.2,179.34Z" style="fill:#22D3EE"></path><g id="freepik--Chest--inject-80"><path d="M394.56,204.52c-3.15-12.11-5.54-18.47-6.71-23.17-1.27-5.1-3.07-13-.09-17.66,1.46-2.24,5.16-5.92,17.15-8a99,99,0,0,1,20.11,5c6.37,2.19,10.51,8.51,13.75,17.07,3.85,10.21,7.06,16.35,9.76,36.42a2.19,2.19,0,0,1-.7,1.92c-14,11.93-45.29,11.23-51.41.38C395.71,211.75,396.72,212.82,394.56,204.52Z" style="fill:#f0f0f0"></path><path d="M401.16,156.45c-2.17,1.56-4.79,4-5.84,7.22-1.93,6,1.2,12.31,1.2,12.31s4.16-3.83,11.25-10.11,5.69-8.57,4.27-8.88c-2.05-.43-4.39-.86-7.13-1.3C403.55,155.92,402.32,156.18,401.16,156.45Z" style="fill:#37474f"></path></g><path d="M392.35,159.51l4,6.3c6.58.66,15.5-3.92,15.28-8.08l-4.26-8.07Z" style="fill:#c8856a"></path><path d="M376.81,141.67a57.93,57.93,0,0,0-1.76,8l3.16.72Z" style="fill:#af6152"></path><path d="M381.67,126.17c-5.07,1.47-5.67,7.5-4.57,19s5.24,14.26,7,15.44c3.6,1.06,6.94.63,11.15-1.53,3.21-1.65,11.26-6.14,13.72-12.39,2.88-7.35,1.93-17.37-3.36-20C398.16,122.89,384.36,125.39,381.67,126.17Z" style="fill:#c8856a"></path><path d="M383.88,152.79c-.05,0-.11.06-.14.12a.59.59,0,0,0-.06.14l-.15.27a3.54,3.54,0,0,1-.42.52,4.16,4.16,0,0,1-1,.69s0,0,0,.07,0,.08,0,.11.22,0,.31,0a1.6,1.6,0,0,0,.3-.13,3.1,3.1,0,0,0,.61-.41,2.86,2.86,0,0,0,.46-.52,2.38,2.38,0,0,0,.18-.3,1,1,0,0,0,.07-.15.39.39,0,0,0,0-.28S384,152.75,383.88,152.79Z" style="fill:#af6152"></path><path d="M384.09,160.56c1,.64,4.37,1.32,9,0l-1.17-1.83S387.23,161.32,384.09,160.56Z" style="fill:#af6152"></path><path d="M383,134c.12,1.75,2.23,3.78,4.48,3.82-.44,1.95-.75,4.43.43,6.16a1,1,0,0,0,1.67-.38c.42-2,1.28-4.18,3.38-4.84,4-1.31,5.45,5.26,4.26,7.85-1.94,4.24-4.66,2.38-4.66,2.38a6.26,6.26,0,0,0,3.69,5.37s5.53,1,11.84-3.69c1.86-4.7,3.74-6.84,4.72-10.86,2.31-9.53-.9-16.1-5.17-16.77-.08,0-.77-1.49-.9-1.67a9.6,9.6,0,0,0-5.25-3.81c-5.32-1.53-9.7-.69-15.9,2.33-4.34,2.11-9.6,7.48-8.26,12.82a3.62,3.62,0,0,0,2.72,2.26C380.55,135,383.12,134.85,383,134Z" style="fill:#263238"></path><g id="freepik--Cap--inject-80"><path d="M376.63,127.17c-7.1-2.26-7.62-1.3-9.76.08-2.52,1.62-5.69,5.43-2.89,6.93,3.39,1.8,16.2,4.33,16.2,4.33Z" style="fill:#22D3EE"></path><path d="M376.63,127.17c-7.1-2.26-7.62-1.3-9.76.08-2.52,1.62-5.69,5.43-2.89,6.93,3.39,1.8,16.2,4.33,16.2,4.33Z" style="opacity:0.30000000000000004"></path><path d="M380.18,138.51a30.79,30.79,0,0,1-4.7-7.23c.84-6.66,6.63-14.35,16.87-15.49s18.95,4.34,21.22,11.76a18,18,0,0,1-.76,13S400.56,145.75,380.18,138.51Z" style="fill:#22D3EE"></path></g><g id="freepik--Ball--inject-80"><path d="M385.07,218a9.1,9.1,0,1,1-10.59-7.3A9.1,9.1,0,0,1,385.07,218Z" style="fill:#f0f0f0"></path><path d="M379.58,218.19c-2.09-.92-3.15-.22-4.6.76a16.72,16.72,0,0,1-3,1.65,4.14,4.14,0,0,1-3.39.16,3.6,3.6,0,0,1-1.57-1.48,8.64,8.64,0,0,0,.06,1.34,3.94,3.94,0,0,0,1.19.85,5,5,0,0,0,4-.15,17.19,17.19,0,0,0,3.11-1.73c1.39-.93,2.15-1.44,3.85-.69,1.36.6,2.15,2.32,1.95,4.29a6.59,6.59,0,0,1-4.12,5.44c.23,0,.45,0,.69-.09a9.69,9.69,0,0,0,1.64-.47,7.45,7.45,0,0,0,2.57-4.8C382.22,220.93,381.27,218.94,379.58,218.19Z" style="fill:#22D3EE"></path><path d="M384.48,216a1.3,1.3,0,0,1-1.35.2,4.82,4.82,0,0,1-2.66-3.38,5.64,5.64,0,0,0-.55-1.49,9.4,9.4,0,0,0-1.15-.44,6.06,6.06,0,0,1,.94,2.07,5.6,5.6,0,0,0,3.16,4,2,2,0,0,0,1.89-.18C384.67,216.5,384.58,216.26,384.48,216Z" style="fill:#22D3EE"></path><g style="opacity:0.30000000000000004"><path d="M379.58,218.19c-2.09-.92-3.15-.22-4.6.76a16.72,16.72,0,0,1-3,1.65,4.14,4.14,0,0,1-3.39.16,3.6,3.6,0,0,1-1.57-1.48,8.64,8.64,0,0,0,.06,1.34,3.94,3.94,0,0,0,1.19.85,5,5,0,0,0,4-.15,17.19,17.19,0,0,0,3.11-1.73c1.39-.93,2.15-1.44,3.85-.69,1.36.6,2.15,2.32,1.95,4.29a6.59,6.59,0,0,1-4.12,5.44c.23,0,.45,0,.69-.09a9.69,9.69,0,0,0,1.64-.47,7.45,7.45,0,0,0,2.57-4.8C382.22,220.93,381.27,218.94,379.58,218.19Z"></path><path d="M384.48,216a1.3,1.3,0,0,1-1.35.2,4.82,4.82,0,0,1-2.66-3.38,5.64,5.64,0,0,0-.55-1.49,9.4,9.4,0,0,0-1.15-.44,6.06,6.06,0,0,1,.94,2.07,5.6,5.6,0,0,0,3.16,4,2,2,0,0,0,1.89-.18C384.67,216.5,384.58,216.26,384.48,216Z"></path></g><path d="M374.64,225.16a9.21,9.21,0,0,1-6-10.76,9.09,9.09,0,1,0,16.52,6C384.88,223.48,380.48,227.13,374.64,225.16Z" style="opacity:0.1"></path></g><path d="M426.5,161.77C415,162.69,415,181.26,415,181.26l-.55,22.41c-5.64,3.42-17.14,11.41-22.51,13-3.36,1-5.23.32-9,.56-3.3.21-6.65.22-7.9.37-1.7-.1-1,2.33,1.23,3.14s6.25.2,6.45.89-3,1.35-5.72,1.78-5.88-.28-8.8-.7-3.86,1-3.94,1.88c-.05.63,2.5,1.54,2.5,1.54a2.33,2.33,0,0,0,.75,3,23.09,23.09,0,0,0,7.57,4.1,20.17,20.17,0,0,0,12-.6c3.62-1.41,6.16-3.26,10.17-4.92s7.55-3.16,19.26-7.72c10.38-4,11.66-4.65,12.83-6.84a32.47,32.47,0,0,0,1.53-5.66c1.06-5.65,1.37-8.38,2.07-14.35s.69-9.21,1.3-13.87C435.37,170.21,432,162.36,426.5,161.77Z" style="fill:#c8856a"></path><path d="M426.5,161.77C415,162.69,415,181.26,415,181.26l-.55,22.41c-4.63,2.81-13.19,8.68-19.09,11.59h0c2.72.39,5.33,7.18,5.2,11.1,3.2-1.32,7.39-3,16-6.35,10.38-4,11.66-4.65,12.83-6.84a32.47,32.47,0,0,0,1.53-5.66c1.06-5.65,1.37-8.38,2.07-14.35s.69-9.21,1.3-13.87C435.37,170.21,432,162.36,426.5,161.77Z" style="fill:#37474f"></path><path d="M426.36,161c2.66.32,6.36,1.65,8,8.67s-1.17,28.21-1.17,28.21-3.52,1.75-9.85,1.11-9.74-2.9-9.74-2.9.2-12.56.49-17.41S415.58,160.54,426.36,161Z" style="fill:#e0e0e0"></path><path d="M433.52,194.92c0-.33.07-.68.12-1-7.36,2.52-15.86.39-20-2.06,0,.38,0,.74,0,1.09a27.5,27.5,0,0,0,17.25,2.68A24.25,24.25,0,0,0,433.52,194.92Z" style="fill:#22D3EE"></path><path d="M413.72,188.84l0,1.08a27.46,27.46,0,0,0,17.17,2.63,21,21,0,0,0,3-.78c0-.34.07-.68.1-1C426.58,193.43,417.94,191.3,413.72,188.84Z" style="fill:#22D3EE"></path></g></g></g><g id="freepik--character-2--inject-80"><g id="freepik--character--inject-80"><g id="freepik--bottom--inject-80"><path d="M247.26,312.34l-.38,2c-.22.42,1.57,1.15,1.78.73l1.47-1.6Z" style="fill:#263238"></path><path d="M251.57,314.56l-.53,2c-.25.41,1.48,1.24,1.73.83l1.58-1.52Z" style="fill:#263238"></path><path d="M255.58,316.78l-.83,1.93c-.3.38,1.29,1.4,1.59,1l1.8-1.31Z" style="fill:#263238"></path><path d="M261,320.47l-.47,2c-.24.41,1.52,1.2,1.75.78l1.54-1.55Z" style="fill:#263238"></path><path d="M265,322.41v2.06c-.13.45,1.76.9,1.9.45l1.15-1.79Z" style="fill:#263238"></path><path d="M269.67,323.5l.54,2c0,.46,2,.5,2,0l.65-2Z" style="fill:#263238"></path><path d="M275.12,323.36l1,1.86c.1.46,2,.12,1.92-.33l.15-2.07Z" style="fill:#263238"></path><path d="M279.45,321.37l1.32,1.71c.17.43,2-.15,1.84-.59l-.19-2.06Z" style="fill:#263238"></path><path d="M247.15,309.58c-.32,0-.53,2.51.15,3.31a12.46,12.46,0,0,0,5.31,3.06c1.52.42,3.2,1.35,5.68,3.51a23.52,23.52,0,0,0,8.28,4.49,16.84,16.84,0,0,0,12.51-.91c4-2.09,4.25-3.22,3.84-4.69Z" style="fill:#37474f"></path><path d="M249.32,299.49a1.61,1.61,0,0,1,1.53,1c.19.43.23.92.4,1.35a2.77,2.77,0,0,0,1.5,1.43,5,5,0,0,0,2.09.33c1.53,0,2.45-.89,3.76-1.51,1.09-.51,2.42-.7,3.31.32,2,2.36,5,5.47,8.6,6.9,4.29,1.73,9.11,3.09,11.36,5.76a4.17,4.17,0,0,1,1.05,3.29c-1.18,2.1-5.82,3.84-8.15,4.14A23,23,0,0,1,262,319.87c-2.5-1.42-4.48-3.41-6.31-4.57s-6.64-2.85-8-4.43c-.73-.87-.79-2.47-.5-4.42q.24-1.65.54-3.3C247.93,302.13,247.87,299.61,249.32,299.49Z" style="fill:#22D3EE"></path><path d="M257.82,307.05a12.31,12.31,0,0,1,5.62-2.95s1.18.48,1.43,1.41c0,0-2-.08-5.65,2.85a1.13,1.13,0,0,1-1.43,0l-.15-.17A.82.82,0,0,1,257.82,307.05Z" style="fill:#f5f5f5"></path><path d="M260.56,310A8.94,8.94,0,0,1,266,306.5a2.46,2.46,0,0,1,1.55,1.18s-2.24.13-5.38,3.41a1.1,1.1,0,0,1-1.57,0l0,0A.81.81,0,0,1,260.56,310Z" style="fill:#f5f5f5"></path><path d="M264.7,313.84a.82.82,0,0,1-.25-1.12,7.84,7.84,0,0,1,4.88-4,2.59,2.59,0,0,1,1.88.82,8.43,8.43,0,0,0-5.09,4,1,1,0,0,1-1.39.31Z" style="fill:#f5f5f5"></path><path d="M174.12,277.91l-2.06-.06c-.44-.14-1,1.68-.57,1.82l1.72,1.16Z" style="fill:#263238"></path><path d="M172.23,282.56l-1.94-.69c-.37-.27-1.38,1.33-1,1.6l1.33,1.65Z" style="fill:#263238"></path><path d="M169.74,286.09l-2-.38c-.42-.21-1.21,1.51-.8,1.72l1.54,1.42Z" style="fill:#263238"></path><path d="M167.31,291.51l-2.07.13c-.45-.1-.87,1.76-.42,1.86l1.81,1Z" style="fill:#263238"></path><path d="M166.49,295.37l-2,.8c-.46.05-.35,1.93.11,1.88l2,.35Z" style="fill:#263238"></path><path d="M166.74,299.47l-1.74,1.3c-.44.18.11,2,.55,1.77l2.07-.22Z" style="fill:#263238"></path><path d="M168,303.64l-1.09,1.95c-.34.35.86,1.68,1.2,1.32l1.82-1.15Z" style="fill:#263238"></path><path d="M171.88,307.76l-.82,2.09c-.29.41,1.08,1.51,1.37,1.11l1.66-1.42Z" style="fill:#263238"></path><path d="M177.91,274.49c-.35-.56-2.67.37-3.24.9a9.55,9.55,0,0,0-2.12,3.94,19,19,0,0,1-2.75,5.74c-1.07,1.65-3.38,5.07-4,9.14a14.9,14.9,0,0,0,3.2,12.17c6.1,7.1,8.28,3.62,8.66,3Z" style="fill:#37474f"></path><path d="M177.64,309.34c-3.2.33-6.55-3.33-8.47-6.59-1.58-3-1.42-5.18-1.17-7.7a17.34,17.34,0,0,1,1.5-5.79c1.3-2.69,3.21-4.94,4.27-6.93s1.7-5.65,3.23-7.21c1.24-1.27,3.34-1.3,4.95-.77a8.93,8.93,0,0,1,2.54,1.49l3.18,2.36a2.27,2.27,0,0,1,.55.52,2.07,2.07,0,0,1,.25.91,21.53,21.53,0,0,1-.05,3.85c-.09,1.07,0,2.38-.76,3.22l0,0c-2.3,2.33-5.29,5.8-6.5,9.53C179.66,300.78,182.34,306.73,177.64,309.34Z" style="fill:#22D3EE"></path><path d="M179.48,286.71a11.28,11.28,0,0,1,4.66,4,3.22,3.22,0,0,1-1.07,1.53s-.5-1.7-4.38-3.77a1,1,0,0,1-.44-1.27,1.13,1.13,0,0,1,.12-.21A.86.86,0,0,1,179.48,286.71Z" style="fill:#f5f5f5"></path><path d="M177.25,290.27a7.76,7.76,0,0,1,5,3.47,3.1,3.1,0,0,1-.81,1.73s-.6-1.89-4.65-3.33a1,1,0,0,1-.49-1.4l0,0A.94.94,0,0,1,177.25,290.27Z" style="fill:#f5f5f5"></path><path d="M174.64,295.37a.92.92,0,0,1,1-.68,7.09,7.09,0,0,1,5.19,2.93,1.94,1.94,0,0,1-.16,1.78,7.08,7.08,0,0,0-5.28-2.88.9.9,0,0,1-.73-1.12Z" style="fill:#f5f5f5"></path><path d="M190.89,246.74c-.21,4.51-.32,13.11,1.5,19.7S200.31,284,200.31,284l-12-5.44s-3,0-5.4,4.07a13.14,13.14,0,0,0,0,13.7s14.64,7.55,26,14.36,17,7.31,24.36,3.94c4.19-1.93,4.46-9.07,2.31-16.54S225,267,225,267l24.78,8.1c-1.41,5.89-1.73,17.12-2.17,27.72,0,0,8.95,6,16.45,1.94,0,0,5.8-22.32,7.93-29.66s3.12-13.5-5.47-18.93c-8.31-5.27-32.36-14.59-32.36-14.59Z" style="fill:#e6e6e6"></path><path d="M201.77,287a26.85,26.85,0,0,0-3,18.34l-4.16-2.68s-1-11.4,4.52-19.12l1.13.51Z" style="fill:#37474f"></path><path d="M205.56,308.76c-1.1-3.75-.51-10.59,1.11-13.5l2.11,2.83s-2.11,7.18.05,12.61Z" style="fill:#37474f"></path><path d="M225,267l-1.16-3.22s4.9-4.46,6.75-9.56c0,0-2.31,7-4.93,11l13.94,6.52Z" style="opacity:0.15"></path><path d="M201,293.27c-5.13-6.57-16.09-13.08-16.12-13.11,2.13-1.81,3.41-1.59,3.41-1.59l12,5.44s7.26,15.7,13.17,18.09A28,28,0,0,1,201,293.27Z" style="opacity:0.15"></path><path d="M249.79,275.09c1.09-3.75,4.91-9.84,10-11.9,0,0-9.08.18-12.21,11.17Z" style="opacity:0.15"></path><path d="M221.31,312.34c-.48-2.31-6.76-12.07-7-14.71s6.65-4.23,12.9-5.08,7.92-.78,9.11,3.32,3.19,12.32-.3,15.55S221.31,312.34,221.31,312.34Z" style="fill:#455a64"></path><path d="M216.94,314.88c2-2.22,8.1-3.93,14.79-5.48s6.79.18,5.1,2.94S224.28,319.82,216.94,314.88Z" style="fill:#37474f"></path><path d="M218.29,313.79c-3,.37-10.84-5.09-15.69-8s-18.43-9.89-18.68-8.93.58,2.6,5.55,5.21,22.6,12.76,25.56,13.6A2.32,2.32,0,0,0,218.29,313.79Z" style="fill:#263238"></path><path d="M261.9,281.84c-8.26.78-13-2.73-13-2.73a15.12,15.12,0,0,0-.37,3.51c5.09,3.17,13,2.5,13,2.5Z" style="fill:#37474f"></path><path d="M261.18,292.12c-8.26.77-13-2.73-13-2.73s-.15,2.43-.12,3.76c5.1,3.17,12.8,2.25,12.8,2.25Z" style="fill:#37474f"></path><path d="M269.76,257.68c-1.62-2.6-10.1-7.07-11.81-8.26s-10.16-.52-14.49,6.55c-.68,1.18-1.05,3,3.56,5s12.35,6.47,12.35,6.47Z" style="fill:#455a64"></path><path d="M271.37,272.09c-3.84,0-8.79,1-9.74,2.36s-5.64,12-5.95,13.61-.2,16.93,1.11,18.92,7.09-.33,7.92-2.23,6.15-17,7.36-19.94S271.75,272.1,271.37,272.09Z" style="fill:#263238"></path><path d="M269.32,257.73c-1.74-.48-7.13,1.29-8.67,3s-5.47,8.42-3.49,10.84,4.42,4.25,6.85,4,5.67-1.45,7-2.82,3.66-7,2.9-8.8S271.61,258.35,269.32,257.73Z" style="fill:#37474f"></path></g><g id="freepik--Top--inject-80"><path d="M239.2,189.06c5.8,2.33,8.17,7,11.29,12.17s10.88,18.2,10.88,18.2l23.23-4.13c-1.31,3.45-.36,8.24,2.25,12.35,0,0-17.54,5.61-23.89,7.54s-7.53,2.48-12.6-3.48-13.53-17.54-13.53-17.54Z" style="fill:#37474f"></path><path d="M277.24,210.16c.74.56,3.88-.27,5.12-5.44v11.45h-5.12Z" style="fill:#9e6767"></path><path d="M282.76,228.93c4.11,1.86,13.85,2.63,17.71-6,2-4.45-.72-9.18.19-13.15,1.49-6.51,1.78-9.67-1.29-10.56a3.12,3.12,0,0,0-2.89-2.45c-2.1-.11-2.74,1.11-2.74,1.11s-.67-1.37-3.05-1a5,5,0,0,0-3.84,2.94c-1.9-.16-4,2.41-4.27,4s-1.2,3-1.06,10.4a1.06,1.06,0,0,1-1.81.77c-1.74-1.91-1.69-6.38-4.12-4.94s-1.94,6.82-.16,10.89A15.28,15.28,0,0,0,282.76,228.93Z" style="fill:#874c4c"></path><path d="M286.85,199.82a3.14,3.14,0,0,1,1.28,3.18,34.45,34.45,0,0,1-.66,3.68,20.76,20.76,0,0,0,.17,7.62c0-1.27.1-2.53.19-3.78s.21-2.49.42-3.71a19.45,19.45,0,0,0,.5-3.8,4.72,4.72,0,0,0-.43-1.94A2.54,2.54,0,0,0,286.85,199.82Zm6.7,1.46-.62,3.43a21.6,21.6,0,0,0,0,7c.24-2.34.4-4.64.79-6.91.17-1.15.38-2.3.45-3.49a8.17,8.17,0,0,0-.42-3.51A13.62,13.62,0,0,1,293.55,201.28Zm5.82-2.1c-.18.85-.46,1.66-.68,2.5s-.45,1.67-.64,2.52-.34,1.7-.44,2.57a9.72,9.72,0,0,0,0,2.64c.17-.87.41-1.69.61-2.53s.41-1.67.6-2.51.36-1.7.47-2.56A9.65,9.65,0,0,0,299.37,199.18Z" style="opacity:0.2"></path><path d="M287.59,224.23c4.56,3.5,10.66-1.6,10.66-5.45s-.84-7.18-4.38-4.65-8.28.26-9.3,2C283.15,218.51,284.08,221.54,287.59,224.23Z" style="opacity:0.2"></path><path d="M237.73,188.39c4.27,1.25,6,1.56,10.83,9s10.49,17.13,10.49,17.13-.34,5.18-6,8.46-8.29,2.67-8.29,2.67l-9.23-12Z" style="fill:#22D3EE"></path><path d="M237.73,188.39c4.27,1.25,6,1.56,10.83,9s10.49,17.13,10.49,17.13-.34,5.18-6,8.46-8.29,2.67-8.29,2.67l-9.23-12Z" style="opacity:0.2"></path><path d="M243.46,205.42c-.06-4.33-.28-13.66-3.84-15.21-12.14-5.27-19.5-4.92-28.5-3.71-7.23,1-10.12,2.44-10.12,2.44s-7,16-8.4,27.1a273.41,273.41,0,0,0-2.19,34.74C202.77,257,231,256,239,244.2c-1.18-4.09-.63-7.06,1-16.64C242.09,215.11,243.51,209.09,243.46,205.42Z" style="fill:#22D3EE"></path><path d="M214.34,184.53c-10.1.89-18.11,2.67-17.14,5.18s1.21,5.66,8.53,9.08c3.16,1.48,8.29,3,5.7,12s-8.84,6.39-11.27,14.88.11,18.37,4.2,24.39,16,10.24,24.07,8.31,11.24-10.17,12.44-14.42-.13-12.41,2.59-20.46-4.33-9.67-3.47-16,3.95-9.27,4.1-12.29-2.79-6.69-12.84-8.73l-1.2,2.3s2.68,4.49-4.07,4c-4.13-.31-10.59-3.61-12.24-6.27Z" style="fill:#455a64"></path><g id="freepik--Arm--inject-80"><g id="freepik--arm--inject-80"><path d="M211.72,258.87c2.46,2.66,3.46,4,4,5.33s3,5.83,3.66,7.59c.41,1.12-1.37,1.78-2.79.45-1.09-1-2.68-3.81-3.52-5s-4.18-3.41-4.18-3.41Z" style="fill:#f28f8f"></path><path d="M191.27,196.85c1.21-2.4,4.39-7.32,9.73-7.91,9.74,6.29,3.36,20.47,3.36,20.47L193.4,228s5.33,18.77,6.8,20.59,7.67,6.46,9.55,8c2.56,2.15,2.38,3.37,2.32,4.61-.16,4-.4,5-.85,5.86a1.81,1.81,0,0,1-1.47.95c0,1.07.19,2.65-1.53,3a5.11,5.11,0,0,1-1.38.22,1.18,1.18,0,0,1-.32.73c-.93,1-4.63-.14-5.59-1a3.45,3.45,0,0,1-.82-2.84c0-1.09,1.17-.71,1.17-.71L201,266c-2.65-3-7.23-2.66-8.7-6.84a29.33,29.33,0,0,0-1.59-5.12c-4.09-8.9-8.21-14.75-11.51-22.37-2.71-6.24-1.11-8.29,1.74-14.32C185.32,208.15,186.34,206.59,191.27,196.85Z" style="fill:#ffa8a7"></path><path d="M187.91,249s2.32.37,6.57-1.69,4-4.32,4-4.32L194.11,228l10.65-19.36s6.2-14.11-2.9-20.24c-4,.44-7.07,1.11-11.45,9.31S178.58,220.84,177.84,223s-.6,4.28.67,7.66S187.91,249,187.91,249Z" style="fill:#37474f"></path><path d="M182.3,212.79c3.58,6.34,15.08,9.74,15.08,9.74s5.83-9.74,8-13.8c2.24-4.23,4.85-15.88-3-20.34-1.76-.5-7.42-.1-12,8.82C187.84,202.24,182.3,212.79,182.3,212.79Z" style="fill:#22D3EE"></path><path d="M182.3,212.79c3.58,6.34,15.08,9.74,15.08,9.74s5.83-9.74,8-13.8c2.24-4.23,4.85-15.88-3-20.34-1.76-.5-7.42-.1-12,8.82C187.84,202.24,182.3,212.79,182.3,212.79Z" style="opacity:0.2"></path><path d="M209.75,268l-.07-5.11.71,4.94A1.84,1.84,0,0,1,209.75,268Z" style="fill:#f28f8f"></path><path d="M206.84,271.29l.11-5.53.52,5.46A2.59,2.59,0,0,1,206.84,271.29Z" style="fill:#f28f8f"></path><path d="M204.36,270.83a1.78,1.78,0,0,1-.72-.67,4,4,0,0,1-.42-.89l.06.06c-.3-.11-.59-.24-.89-.36l.13-.13a1.14,1.14,0,0,1-.11.89,1.49,1.49,0,0,1-.67.55,1.68,1.68,0,0,0,.54-.62,1.09,1.09,0,0,0,.05-.75l-.06-.21.2.08c.3.11.6.23.89.36l0,0v0a5.56,5.56,0,0,0,.35.88A2.1,2.1,0,0,0,204.36,270.83Z" style="fill:#f28f8f"></path><path d="M203.5,269.46a17.06,17.06,0,0,1-.35-2,2.13,2.13,0,0,1-1.12-.57,11.11,11.11,0,0,1-1-1l.25,1.49a2.47,2.47,0,0,1,1.12,1.62Z" style="fill:#f28f8f"></path></g></g><path d="M209.87,170.33c-4.69,5.21-10.1,10.41-7.18,11.4s12,0,14.67-.9,11.56-12.43,11.56-12.43Z" style="fill:#263238"></path><path d="M241.7,155.21c-1-2.79-5.77-9.44-17.13-6.92s-13.09,10.48-13.14,13.76a40.32,40.32,0,0,0,.93,7.6s5.17,3.84,7.12,2.6,2.43-8.39,5.35-10.38,9.46-1.58,12.38-2.27S241.7,155.21,241.7,155.21Z" style="fill:#37474f"></path><path d="M225.45,157a7.94,7.94,0,0,1-5.91,5.2,19.72,19.72,0,0,1,.07,6.68,3.85,3.85,0,0,1-.52,1.33,1.66,1.66,0,0,1-1.19.73c-.64,0-.9-.36-1.1-.87a15.9,15.9,0,0,0-1-1.89,3.72,3.72,0,0,0-.56-.73c-1-.92-4.37-2-5.75,1s.87,7.69,3.91,8.11,3.66-1.24,3.66-1.24l-3.55,11.73c7.89,8.93,21.27,9.43,16.49,1.68l2.27-4.33a33.59,33.59,0,0,0,4.89-.22c2.92-.51,4.62-2.7,5.45-5.9,1.33-5.13.65-12.33.42-16.21a30.58,30.58,0,0,0-1.38-6.93C239.35,160.08,227.72,158.65,225.45,157Z" style="fill:#ffa8a7"></path><path d="M232.32,184.47c-3.6-.3-6.59-.85-9-2.39a11.79,11.79,0,0,1-3.65-3.47,10.34,10.34,0,0,0,2.06,4.47c2.92,3.09,9.54,3.42,9.54,3.42Z" style="fill:#f28f8f"></path><path d="M230.94,167.07a1.27,1.27,0,0,1-1.23,1.33,1.31,1.31,0,1,1,1.23-1.33Z" style="fill:#263238"></path><path d="M230.05,163.2l-2.86,1.62a1.72,1.72,0,0,1,.65-2.3A1.6,1.6,0,0,1,230.05,163.2Z" style="fill:#263238"></path><path d="M230.07,174.53l4.07,1.76a2.32,2.32,0,0,1-3,1.17A2.16,2.16,0,0,1,230.07,174.53Z" style="fill:#b16668"></path><path d="M232.35,177.29a1.84,1.84,0,0,1,0,.33,2.21,2.21,0,0,1-1.18-.16,2.12,2.12,0,0,1-1.27-2.12,2,2,0,0,1,.36,0A2.06,2.06,0,0,1,232.35,177.29Z" style="fill:#f28f8f"></path><path d="M241.92,163.91l-2.84-1.54a1.57,1.57,0,0,1,2.15-.64A1.65,1.65,0,0,1,241.92,163.91Z" style="fill:#263238"></path><path d="M241.25,166.68a1.26,1.26,0,1,1-2.52,0,1.28,1.28,0,0,1,1.23-1.33A1.29,1.29,0,0,1,241.25,166.68Z" style="fill:#263238"></path><polygon points="233.63 163.42 234.16 173.07 239 171.64 233.63 163.42" style="fill:#f28f8f"></polygon><path d="M214.72,167.1c2.22-6.29,17.74-15.36,27.54-9.95-.58-4.29-3.93-12.07-14.56-11.07s-16.65,7.2-17.23,12.37c-.61,5.46.92,8.25.92,8.25A4.18,4.18,0,0,1,214.72,167.1Z" style="fill:#455a64"></path><path d="M228.59,152.77a23.21,23.21,0,0,1,9-1c-.89-2.64-3.18-3.73-6-3S228.59,152.77,228.59,152.77Z" style="fill:#37474f"></path><path d="M219.16,162.8a1.8,1.8,0,0,1-1.49-.7c-.84-1.1-.62-3.3.56-5.75a18.28,18.28,0,0,1,16.34-10c7.72-.14,12.59,8.48,12.86,12,.14,1.88-.85,2.21-1.28,2.26-.91.12-2.67.18-5.1.28a161.26,161.26,0,0,0-21.42,1.84h0A2.56,2.56,0,0,1,219.16,162.8Zm15.61-15.41h-.18a17.42,17.42,0,0,0-15.4,9.42c-1.13,2.33-1.14,4-.68,4.65.07.09.29.38.94.26h0c7.27-1.31,15.87-1.64,21.56-1.86,2.32-.09,4.14-.16,5-.27.4-.05.37-.88.35-1.13C246.12,155,241.49,147.39,234.77,147.39Z" style="fill:#37474f"></path><path d="M235.39,161.23c-1,0-1.4-1.36-2-3.6-1.06-3.7-2.53-8.76-7-8.17l-.14-1.05c5.38-.71,7,5.09,8.15,8.92a9,9,0,0,0,1.08,2.85c.31,0,.75-.05,1.2-.1l.94-.08a24.35,24.35,0,0,0,.46-2.78c.55-4.05,1.08-7.21,2.51-8a1.49,1.49,0,0,1,1.35-.07l-.41,1a.43.43,0,0,0-.41,0c-1.09.63-1.66,4.78-2,7.26-.37,2.73-.5,3.65-1.22,3.68l-1.13.09C236.25,161.18,235.78,161.23,235.39,161.23Z" style="fill:#37474f"></path><path d="M218.49,158.27l-.62-.86c4.23-3,21.74-8,28.8-1.72l-.7.79C239.41,150.67,222.42,155.44,218.49,158.27Z" style="fill:#37474f"></path><path d="M234.2,170.9c-7,0-15.14-1.82-16.25-3.14a1.3,1.3,0,0,1-.23-1.29c.59-1.94,5.3-4.63,9.12-5.74l.29,1c-3.73,1.08-8,3.62-8.4,5,0,.18,0,.25,0,.3,1,1.15,13.59,3.91,20.79,2.26,5.27-1.2,8.07-3.11,8.44-4.38a.63.63,0,0,0-.15-.68,17.59,17.59,0,0,0-4.6-3.48l.44-1a18.58,18.58,0,0,1,4.91,3.71,1.68,1.68,0,0,1,.42,1.72c-.58,2-4.2,4-9.23,5.12A26.35,26.35,0,0,1,234.2,170.9Z" style="fill:#37474f"></path><path d="M238.52,192.55a1.23,1.23,0,0,1-.49-.1c-1.75-.76-2.62-5.82-2.91-8-.08-.58-.17-1.14-.25-1.68-.55-3.56-1-6.37.94-12.59l1,.31c-1.85,6-1.43,8.7-.9,12.12.08.55.16,1.11.25,1.7.58,4.29,1.59,6.84,2.28,7.14,0,0,.1,0,.24-.06.71-.51,1.05-4.61,1.3-7.61a58.63,58.63,0,0,1,.74-6.28c.89-4.1,2.21-8.89,2.22-8.94l1,.28s-1.33,4.81-2.2,8.88a55.44,55.44,0,0,0-.72,6.15c-.4,4.7-.69,7.62-1.74,8.38A1.35,1.35,0,0,1,238.52,192.55Z" style="fill:#37474f"></path><path d="M237.07,192.63c-3.07,0-5.17-2.19-8.61-8.32a32.46,32.46,0,0,1-3.88-14.79h1.06a31.82,31.82,0,0,0,3.74,14.27c4.17,7.44,6,8.37,9.5,7.55s4-5,4.64-10.28l0-.38a43.74,43.74,0,0,1,2.52-8.84c1-2.72,1.9-5.29,1.93-7l1.06,0c0,1.91-1,4.56-2,7.37a42.57,42.57,0,0,0-2.46,8.61l-.05.38c-.68,5.48-1.27,10.21-5.45,11.18A9.2,9.2,0,0,1,237.07,192.63Z" style="fill:#37474f"></path><path d="M231.8,180.64a23.76,23.76,0,0,1-8.22-1.47c-5.81-2.16-5.8-4-5.76-10,0-.55,0-1.14,0-1.78h1.06c0,.64,0,1.23,0,1.78,0,6,0,7.08,5.07,9a22.11,22.11,0,0,0,10.88,1.17l.21,1A18.33,18.33,0,0,1,231.8,180.64Z" style="fill:#37474f"></path><path d="M241.31,179.2l-.12-1c2.5-.28,3.92-3.55,3.94-3.58l1,.41C246,175.14,244.43,178.85,241.31,179.2Z" style="fill:#37474f"></path><path d="M232.51,187.39a13.7,13.7,0,0,1-5.75-1.16c-4.29-2-5.4-3.72-5.4-8.33h1.06c0,4.17.9,5.55,4.79,7.37s8.6.73,8.65.72l.25,1A17.43,17.43,0,0,1,232.51,187.39Z" style="fill:#37474f"></path><path d="M240.41,186.28l-.1-1.06a4,4,0,0,0,3-1.95l.93.51A5.11,5.11,0,0,1,240.41,186.28Z" style="fill:#37474f"></path></g></g></g><g id="freepik--character-1--inject-80"><g id="freepik--character--inject-80"><g id="freepik--bottom--inject-80"><path d="M56.55,224.69c-4.54,12.76-6.23,17.21-1,28.65,4.1,14.65,7.67,26.14,7.67,26.14s-6,5-9.17,18.88c-2.48,11.05-5.47,26.44-5.47,26.44-1.07,3.78,11.08,19.09,14.34,2.52,0,0,13.81-24.84,19.74-35,2.9-5,2.45-11.48,1.82-22.69-.67-12.08-3.29-37.55-3.29-37.55Z" style="fill:#37474f"></path><path d="M83.22,339.33a9,9,0,0,1-1,3.39c-.53.91-4.52,3.38-9.58,3.46s-9.66-2.06-12.39-2.47-6.75.36-9.89.11c-3.3-.26-6.14-1.42-7.19-4.59a4,4,0,0,1,.31-2.52C44.1,336.43,83.22,339.33,83.22,339.33Z" style="fill:#263238"></path><path d="M48.3,342,48.23,344c-.14.45,1.54,1,1.68.52l1.1-1.77Z" style="fill:#263238"></path><path d="M43.55,340.45l-.08,2.08c-.14.45,1.55,1,1.68.52l1.1-1.77Z" style="fill:#263238"></path><path d="M52.22,343.16l.65,2c0,.47,1.78.37,1.75-.09l.43-2Z" style="fill:#263238"></path><path d="M57.32,343l.45,2c0,.47,1.73.55,1.76.08l.62-2Z" style="fill:#263238"></path><path d="M62.09,343.52v2.08c-.12.45,1.58.9,1.7.45l1-1.81Z" style="fill:#263238"></path><path d="M66.86,344.92l.42,2c0,.47,1.74.56,1.76.09l.64-2Z" style="fill:#263238"></path><path d="M71.17,345.7l.89,1.89c.09.46,1.82.14,1.73-.32l.16-2.08Z" style="fill:#263238"></path><path d="M76,345.42l1.28,1.64c.18.43,1.8-.25,1.62-.68l-.3-2.07Z" style="fill:#263238"></path><path d="M79.4,343.9l1.51,1.44c.25.39,1.75-.53,1.5-.93l-.6-2Z" style="fill:#263238"></path><path d="M63,327.32c.86-1.16,1.28,1.25,1.93,1.65,1.91,1.18,2.48.7,5.7,1.74,4.07,1.33,9,2,11.24,4.06s2.7,6-2.65,8.39a23.89,23.89,0,0,1-5.77,1.22c-5.12.59-9.74-1.64-12.9-2.24-4.11-.77-7.27.36-11-.11-3-.37-5.76-2.8-6-5.32.16-2.75,2.78-6.79,3.47-9.85.48-2.1.81-2.66,1.69-2.36,0,0,0,.75,1.81,1.79,3.27,1.84,2.18,1.36,4.54,4.81.91,1.32,1.64,1.64,2.81,1.51.81-.09,1.63-.44,2.87-1.92A39.4,39.4,0,0,0,63,327.32Z" style="fill:#455a64"></path><path d="M74,338s.87-5-2.28-6.92a3.79,3.79,0,0,0-1.73-.53s3.58,1.88,2.7,7.14c0,0,0,.39.64.55C73.54,338.28,73.91,338.39,74,338Z" style="fill:#fafafa"></path><path d="M67.3,329.69s.09-.09.77.13a3.62,3.62,0,0,1,.82.38,6.39,6.39,0,0,1,1.77,7s0,.39-.66.14-.63-.59-.63-.59A6.82,6.82,0,0,0,67.3,329.69Z" style="fill:#fafafa"></path><path d="M64.88,329s.19-.07.71.17.74.5.74.5,2.66,3.08,1.08,6.6c0,0-.14.38-.76.09s-.44-.65-.44-.65A6.22,6.22,0,0,0,64.88,329Z" style="fill:#fafafa"></path><path d="M111.48,359.54c-3.51-.48-7.35-.56-9-2-1-.87-1.41-1.85-.68-4.77,1.75-7,6.38-21.44,8.28-29.91,1.93-8.63,3.3-14.38,4.92-20.88,2.5-10,3.06-15-5.52-35.67-7.89-19-13.16-30.2-13.16-30.2L56.55,224.69s-4.11,10.9-1.83,19.38c3.25,12.09,12.19,13.47,12.19,13.47l26.64,35.13c-2.84,6.33-4.06,9.24-4.79,13.48-1,5.45-1,12.35-1.33,26.06-.21,8-1.24,22.15-1.25,22.33-.2,2.77-3.84,10.06-1,13,3,3.14,12.58,1.83,15.58,2s11.19,2.23,16.32.4c3.5-1.25,6.32-3,6.77-4.61C125.52,359.3,117.57,360.38,111.48,359.54Z" style="fill:#37474f"></path><path d="M89.29,303c3,2.67,17.4,9,24.16,5.33,0,0,3.94-10.7,4.72-16.51s-2.7-14.56-5.85-22.42c-2.84-7.1-12.19-28.65-12.32-32.81l-44.72-14.4c-1.83,6.49-4.37,12.88-4.4,18.85,0,7.49,2.29,10.37,4,13.05l8,25.34a29.42,29.42,0,0,0-4.74,7c8.57,8.78,12.53,9.62,21.53,11.54,0,0,2.59-4.27,3.92-6.92,1.7-3.41,1.67-9,1.67-9l8,10.63S89.84,299.2,89.29,303Z" style="fill:#f0f0f0"></path><path d="M96.3,251.84a131.43,131.43,0,0,0-10.48-16.77c-.19-.25-.38.3-.28.47,5.87,9.74,11.59,19.44,16.18,29.87q3.47,7.84,6.2,16c1,2.92,2.1,5.93,2.26,9,.15,2.92-.7,5.81-1.37,8.62q-1.23,5.12-2.45,10.24l0,.11c.5.05,1,.07,1.47.09.59-2.49,1.19-5,1.78-7.45a60.83,60.83,0,0,0,1.91-9.14,22.1,22.1,0,0,0-1.25-8.37A190,190,0,0,0,96.3,251.84Z" style="fill:#455a64"></path><path d="M100,236.62l-44.72-14.4c-.71,2.54-1.54,5.06-2.28,7.55,3.78,4.19,9.27,8.33,22.86,10.89a54.48,54.48,0,0,0,24.78-1.07A13.9,13.9,0,0,1,100,236.62Z" style="fill:#37474f"></path><path d="M95.48,235.85l-2.14.12.73,6,2.2.2Zm-10.93,6.53,2.16.44-.13-6.36-2.15-.1ZM74,241l2.07.79.91-6.3-2.1-.45Zm-9.33-2.7,2,1,1.54-6.17-2-.66Zm-9.7-5.2,1.76,1.33,2.67-5.77-1.89-1Z" style="fill:#f0f0f0"></path><path d="M125.28,366.34a5.79,5.79,0,0,1-.5,3c-.44,1-4.17,3.81-9.47,4.58s-11.07-.86-14-.91-5.85.72-9.24.51-7.93-.92-9.46-4.11a3.48,3.48,0,0,1,.31-2.63C83.61,366.43,125.28,366.34,125.28,366.34Z" style="fill:#263238"></path><path d="M101.82,352.76c.51-1,.27,2.65,1,3,2.16,1,4.94,1.08,8.46,1.74,4.45.84,9.74.83,12.35,2.74s3.65,6-1.66,9.16a25.51,25.51,0,0,1-5.89,2.06c-5.29,1.31-10.44-.41-13.84-.6-4.41-.26-7.66,1.51-11.59.78-5.09-.95-7.6-2.41-7.8-5.4s1.54-5.69,1.86-9c.22-2.26.49-2.9,1.46-2.7,0,0,.08.79,2.13,1.63,3.68,1.5,3.68.53,6.62,3.83,1.13,1.27,1.78,1.32,2.86.7.9-.51,1.18-1.25,2.11-3.06A44.38,44.38,0,0,0,101.82,352.76Z" style="fill:#455a64"></path><path d="M113.64,364.27s.24-5.36-3.33-7a4,4,0,0,0-1.89-.32s4,1.48,3.8,7.13c0,0,0,.4.75.49C113.21,364.64,113.61,364.7,113.64,364.27Z" style="fill:#fafafa"></path><path d="M105.5,356.47s.08-.11.82,0a4.11,4.11,0,0,1,.92.29,6.75,6.75,0,0,1,2.79,7.1s0,.42-.67.24-.74-.53-.74-.53S109.48,359,105.5,356.47Z" style="fill:#fafafa"></path><path d="M102.83,355.75s.19-.1.77.08.84.42.84.42,3.21,2.88,2,6.78c0,0-.1.43-.79.2s-.55-.62-.55-.62A6.57,6.57,0,0,0,102.83,355.75Z" style="fill:#fafafa"></path><path d="M88.7,371.69l.11,2.21c-.11.49,1.72.88,1.83.4l1-2Z" style="fill:#263238"></path><path d="M83.53,370.53l.1,2.21c-.1.49,1.73.88,1.83.39l1-2Z" style="fill:#263238"></path><path d="M93,372.61l.86,2c.07.49,1.93.22,1.86-.27l.26-2.2Z" style="fill:#263238"></path><path d="M98.35,372l.65,2.11c0,.5,1.89.42,1.87-.08l.48-2.16Z" style="fill:#263238"></path><path d="M103.44,372.08l.19,2.21c-.08.49,1.76.8,1.85.31l.92-2Z" style="fill:#263238"></path><path d="M108.62,373.13l.64,2.12c0,.5,1.88.44,1.87-.06l.49-2.16Z" style="fill:#263238"></path><path d="M113.26,373.57l1.12,1.91c.13.48,1.93,0,1.8-.5l0-2.21Z" style="fill:#263238"></path><path d="M118.3,372.82l1.51,1.63c.23.44,1.88-.44,1.65-.88l-.5-2.15Z" style="fill:#263238"></path><path d="M121.81,370.9l1.73,1.38c.3.4,1.8-.71,1.51-1.11l-.82-2.06Z" style="fill:#263238"></path><path d="M55.67,244.75c1.17,7.89,4.38,12.72,11.58,14.64L83.49,283s.53,5.57-3.82,15c0,0,2.59-4.27,3.92-6.92,1.7-3.41,1.67-9,1.67-9L68.38,257.74S58.06,254.89,55.67,244.75Z" style="fill:#e0e0e0"></path></g><g id="freepik--top--inject-80"><path d="M136.2,187.37l-25.57,2.23-30.21-26c-3.81-1.13-7.13,1.84-9,6.54a18,18,0,0,0,7.46,21.83c8.31,5.18,20.61,12.79,23.91,14.47,5.94,3,6,2.16,11.15,1.23s27.89-8.28,27.89-8.28Z" style="fill:#37474f"></path><path d="M160.81,198.82c-3.9-6.72-9.46-19.12-14.82-29.42-5.71-11-20.21-39.25-25.14-48-4.78-8.5-5.47-10.81-11.54-19.92h0A3.52,3.52,0,0,0,106,100a11.18,11.18,0,0,0-8.75,5.09,3.72,3.72,0,0,0-.47,3.34h0c7.15,15.52,33,53,38.31,61s17.24,25.45,20.6,31.24S163,213.12,163,213.12l4.09-3.2S163.9,204.13,160.81,198.82Z" style="fill:#22D3EE"></path><path d="M160.81,198.82c-3.9-6.72-9.46-19.12-14.82-29.42-5.71-11-20.21-39.25-25.14-48-4.78-8.5-5.47-10.81-11.54-19.92h0A3.52,3.52,0,0,0,106,100a11.18,11.18,0,0,0-8.75,5.09,3.72,3.72,0,0,0-.47,3.34h0c7.15,15.52,33,53,38.31,61s17.24,25.45,20.6,31.24S163,213.12,163,213.12l4.09-3.2S163.9,204.13,160.81,198.82Z" style="opacity:0.1"></path><path d="M135.1,169.43c5.34,8,17.24,25.45,20.6,31.24S163,213.12,163,213.12l4.09-3.2s-.64-1.17-1.63-2.93c-1.82-.19-3.49,1.26-4.4.11S145,179.69,135.91,164.71c-8.39-13.83-33.78-54.87-34.55-63.42a10.43,10.43,0,0,0-4.1,3.77,3.72,3.72,0,0,0-.47,3.34h0C103.94,123.92,129.75,161.38,135.1,169.43Z" style="opacity:0.15"></path><path d="M168.14,208a2.22,2.22,0,0,0-2-.88,6.92,6.92,0,0,0-5.44,3.16,2.27,2.27,0,0,0-.27,2.09c.14.32.79,1.39.94,1.65a2.17,2.17,0,0,0,2,.91,6.93,6.93,0,0,0,5.44-3.16,2.18,2.18,0,0,0,.22-2.21C168.9,209.31,168.3,208.29,168.14,208Z" style="fill:#22D3EE"></path><path d="M168.14,208a2.22,2.22,0,0,0-2-.88,6.92,6.92,0,0,0-5.44,3.16,2.27,2.27,0,0,0-.27,2.09c.14.32.79,1.39.94,1.65a2.17,2.17,0,0,0,2,.91,6.93,6.93,0,0,0,5.44-3.16,2.18,2.18,0,0,0,.22-2.21C168.9,209.31,168.3,208.29,168.14,208Z" style="opacity:0.30000000000000004"></path><path d="M167,208.65c2,0,2.82,1.4,1.82,3.14a6.93,6.93,0,0,1-5.44,3.16c-2,0-2.82-1.4-1.82-3.14A7,7,0,0,1,167,208.65Z" style="fill:#22D3EE"></path><path d="M167,208.65c2,0,2.82,1.4,1.82,3.14a6.93,6.93,0,0,1-5.44,3.16c-2,0-2.82-1.4-1.82-3.14A7,7,0,0,1,167,208.65Z" style="opacity:0.45"></path><path d="M150.21,177.78c2.6-.33,5.72-1.8,7.49.63s1.22,3.76,2.13,4.94.78,2.83,1.12,3.88.12,2.07-.76,3.47a5.6,5.6,0,0,1-3.33,2.82,6.75,6.75,0,0,1-3.75-.17c-.83-.29-.82-2,.34-2.44a4.66,4.66,0,0,1-2.26-1.22c-.78-.91.69-2.74.69-2.74s-2.43-1.22-2.29-2.74a18.31,18.31,0,0,1,1.59-4.44Z" style="fill:#9a4a4d"></path><path d="M141.37,184.64c1.52-2,1.55-2.64,3.17-3.71,3.45-2.29,5.86-3.13,7.74-2.43,1.61.59,4.85,1.86,4.69,2.48.18,3-4.12,1.29-5.32,2.47s0,4.78-.25,7.41a8.47,8.47,0,0,0,1.2,4.84c-1.76,1.51-5.75,2.17-10.79,3.66-4.07-.06-8-6.91-5.61-12C139.2,186.61,140.08,186.39,141.37,184.64Z" style="fill:#b16668"></path><path d="M151.4,190.86c0-.29,0-.6,0-.91,0,1.37-2.12,3.13-5.68,3.27,2.15.75,4.47.5,5.71-.84A6.38,6.38,0,0,1,151.4,190.86Z" style="fill:#9a4a4d"></path><path d="M80.37,162.68l2.11-7c.47-5-2.41-10.39-1.18-17.72s13.58-16.1,21.74-13.24,12.86,8.71,13.63,15.5c.47,4.14-1.12,4.55-1.11,6.86,0,4.57,0,10.7-3.08,14.83-1.92,2.55-4,3.93-6.57,4a30.53,30.53,0,0,1-6.8-1.27l-2.33,6.18,2.43,3.15Z" style="fill:#b16668"></path><path d="M105.2,146.8a1.4,1.4,0,0,1-1.26,1.52,1.41,1.41,0,0,1-1.48-1.33,1.37,1.37,0,1,1,2.74-.19Z" style="fill:#263238"></path><path d="M105.11,141.45l-3.32.44a1.75,1.75,0,0,1,1.49-1.93A1.63,1.63,0,0,1,105.11,141.45Z" style="fill:#263238"></path><path d="M103.55,154.92l3.66,2.21a2.24,2.24,0,0,1-3,.73A2.09,2.09,0,0,1,103.55,154.92Z" style="fill:#9a4a4d"></path><path d="M105.12,158.15a4,4,0,0,0-1.82-2.68,2.07,2.07,0,0,0,.89,2.39A2,2,0,0,0,105.12,158.15Z" style="fill:#ffa8a7"></path><path d="M116.53,144.34l-2.78-1.93a1.63,1.63,0,0,1,2.31-.48A1.78,1.78,0,0,1,116.53,144.34Z" style="fill:#263238"></path><path d="M114.84,148.12a1.26,1.26,0,1,1-2.45-.6,1.27,1.27,0,0,1,1.53-1A1.29,1.29,0,0,1,114.84,148.12Z" style="fill:#263238"></path><path d="M113.5,153.35l-5.16,1.49-.19-9.75C110.05,144.69,111.77,149.4,113.5,153.35Z" style="fill:#9a4a4d"></path><path d="M99.11,164.6a17.55,17.55,0,0,1-4.3-2.18c-3-2.81-3.13-5.07-3.39-7.42-.07,2.61-.58,6.12,2.45,8.67a19.1,19.1,0,0,0,4.63,2.65Z" style="fill:#9a4a4d"></path><path d="M90.68,151.32c-.26,1.35-1.32,3.84-2.93,4.52a7.14,7.14,0,0,1-5.27-.15c-.14-1.31-1.06-5.48-1.75-8.44s-1.88-11.62,2.14-13.95c.39-3.69,3.24-7.11,7.39-8.76a24.91,24.91,0,0,1,14.77-.22c8.58,2.9,11.78,9.82,11.1,13.16a7,7,0,0,0-5.78-3.83c-5.91-.28-6.52,1.32-11.48,1a13.15,13.15,0,0,1,.38,3.9A5.23,5.23,0,0,1,97,142.45c-1,.61-.34,3.06-.74,3.92s-1.92,2.38-2.76-1.46-4.42-4.78-6.28-3.4-2.24,3.17-1.57,6.59C86.17,150.81,88.74,152.46,90.68,151.32Z" style="fill:#263238"></path><path d="M69.21,162.19c8.69-2.57,18.48.8,30.49,8.55,5.18,3.34,7.7,5.13,8.13,6,.71,3.72,1.2,15,0,20.42-2.61,11.59-6,20.2-6.25,28-.22,6.53.6,9.69-1.55,11.44,0,0-13.75,3.18-31.17-2.3-7.58-2.39-13.58-6.46-14.68-9.2-2-3.08,2.29-6.9,2.72-34.73C57.07,177.19,61.24,164.55,69.21,162.19Z" style="fill:#f0f0f0"></path><path d="M166.48,202.25c0,2.12-3.44,7.15-6.36,10.16S141,225,141,225l-7.56-11.9s14.14-6.69,15.26-7.35c1.83-1.08,2-1.64,1.94-3.12s-.45-2.86.34-4.43a11.84,11.84,0,0,1,1.66-2.52l1.38,2.16a3.63,3.63,0,0,0,3.22-.31c1.86-1,1.59-2.41,1.59-2.41l-1.07-2.09a3,3,0,0,1,.66-.39,6.57,6.57,0,0,1,4.16.2c1,.48.78,1.45,1.34,2.47.27.5,1.07.8,1.36,1.37s.13,1.26.31,1.92A17.79,17.79,0,0,1,166.48,202.25Z" style="fill:#b16668"></path><path d="M157.2,197.55a3.63,3.63,0,0,1-3.22.31l-.44-.69a2,2,0,0,0-.08,1.34,1.66,1.66,0,0,0,.81,1,1.57,1.57,0,0,1,1.55-.53c.14-.47,4.06-1.07,3-3.84C158.79,195.14,159.06,196.55,157.2,197.55Z" style="fill:#9a4a4d"></path><path d="M107.83,176.78c-3.76.05-11.71,9.85-7.29,24.55,0,0,13.53,18.75,18.41,24.29,3,3.38,5.82,7.5,11.94,5a75.8,75.8,0,0,0,14.45-8s1.33-8.21-4.69-13.08l-7.56,3.12s-5.68-8.84-11.58-18.14C114.67,183.72,114.53,181.7,107.83,176.78Z" style="fill:#37474f"></path><path d="M100.3,202.06c3.24,5,11.16,14.9,11.16,14.9,14.09-2.61,15.64-15.1,15.64-15.1s-7.23-11.4-10.83-16.83-4.81-6.85-9.73-9.59C97.63,175.93,94,190.87,100.3,202.06Z" style="fill:#e0e0e0"></path><path d="M124.63,198c-.4-.62-.83-1.29-1.27-2-.11.62-.16,1.27-.31,1.82A20.83,20.83,0,0,1,122,201a17.49,17.49,0,0,1-4,5.54,26.22,26.22,0,0,1-6.32,4.14,21.74,21.74,0,0,1-3.73,1.47l-.22,0,1.29,1.65a21,21,0,0,0,3.57-1.4,25.52,25.52,0,0,0,6.75-4.43,18.8,18.8,0,0,0,4.09-6.06A18.37,18.37,0,0,0,124.63,198Z"></path><path d="M133.09,212.64c.37,3.36-.15,7.52-2.11,10.3,2.51-1.38,4.59-5.31,3.91-10.94Z" style="fill:#263238"></path></g></g></g></svg>