<svg xmlns="http://www.w3.org/2000/svg" viewBox="0 0 500 500"><g id="freepik--Fence--inject-86"><g id="freepik--fence--inject-86"><g id="freepik--Puck--inject-86"><path d="M33.33,92a1.28,1.28,0,0,0-.76-1.06,4,4,0,0,0-3.68,0A1.31,1.31,0,0,0,28.13,92V256.44a1.32,1.32,0,0,0,.76,1.07,4.11,4.11,0,0,0,3.68,0,1.3,1.3,0,0,0,.76-1.07Z" style="fill:#ebebeb"></path><path d="M28.89,90.89a1.12,1.12,0,0,0,0,2.12,4,4,0,0,0,3.68,0,1.12,1.12,0,0,0,0-2.12A4,4,0,0,0,28.89,90.89Z" style="fill:#f0f0f0"></path></g><g id="freepik--puck--inject-86"><path d="M115.13,42.75a1.27,1.27,0,0,0-.76-1.06,4,4,0,0,0-3.68,0,1.27,1.27,0,0,0-.76,1.06V207.24a1.27,1.27,0,0,0,.76,1.06,4,4,0,0,0,3.68,0,1.27,1.27,0,0,0,.76-1.06Z" style="fill:#ebebeb"></path><path d="M110.69,41.69a1.12,1.12,0,0,0,0,2.12,4,4,0,0,0,3.68,0,1.12,1.12,0,0,0,0-2.12A4,4,0,0,0,110.69,41.69Z" style="fill:#f0f0f0"></path></g><g id="freepik--puck--inject-86"><path d="M202,19.39a1.27,1.27,0,0,0-.76-1.06,4,4,0,0,0-3.68,0,1.29,1.29,0,0,0-.76,1.06V183.88a1.29,1.29,0,0,0,.76,1.06,4,4,0,0,0,3.68,0,1.27,1.27,0,0,0,.76-1.06Z" style="fill:#ebebeb"></path><path d="M197.55,18.33a1.29,1.29,0,0,0-.76,1.06,1.31,1.31,0,0,0,.76,1.06,4,4,0,0,0,3.68,0,1.28,1.28,0,0,0,.76-1.06,1.27,1.27,0,0,0-.76-1.06A4,4,0,0,0,197.55,18.33Z" style="fill:#f0f0f0"></path></g><g id="freepik--puck--inject-86"><path d="M464,92a1.3,1.3,0,0,1,.77-1.06,4,4,0,0,1,3.67,0,1.28,1.28,0,0,1,.76,1.06V256.44a1.3,1.3,0,0,1-.76,1.07,4.09,4.09,0,0,1-3.67,0,1.31,1.31,0,0,1-.77-1.07Z" style="fill:#ebebeb"></path><path d="M468.41,90.89a1.12,1.12,0,0,1,0,2.12,4,4,0,0,1-3.67,0,1.11,1.11,0,0,1,0-2.12A4,4,0,0,1,468.41,90.89Z" style="fill:#f0f0f0"></path></g><g id="freepik--puck--inject-86"><path d="M382.18,42.75a1.27,1.27,0,0,1,.76-1.06,4,4,0,0,1,3.67,0,1.29,1.29,0,0,1,.77,1.06V207.24a1.29,1.29,0,0,1-.77,1.06,4,4,0,0,1-3.67,0,1.27,1.27,0,0,1-.76-1.06Z" style="fill:#ebebeb"></path><path d="M386.61,41.69a1.11,1.11,0,0,1,0,2.12,4,4,0,0,1-3.67,0,1.12,1.12,0,0,1,0-2.12A4,4,0,0,1,386.61,41.69Z" style="fill:#f0f0f0"></path></g><g id="freepik--puck--inject-86"><path d="M295.31,19.39a1.29,1.29,0,0,1,.77-1.06,4,4,0,0,1,3.67,0,1.29,1.29,0,0,1,.77,1.06V183.88a1.29,1.29,0,0,1-.77,1.06,4,4,0,0,1-3.67,0,1.29,1.29,0,0,1-.77-1.06Z" style="fill:#ebebeb"></path><path d="M299.75,18.33a1.29,1.29,0,0,1,.77,1.06,1.3,1.3,0,0,1-.77,1.06,4,4,0,0,1-3.67,0,1.3,1.3,0,0,1-.77-1.06,1.29,1.29,0,0,1,.77-1.06A4,4,0,0,1,299.75,18.33Z" style="fill:#f0f0f0"></path></g><path d="M490.71,219c-12.5-18.39-32.12-35.65-58.85-50.46-100.44-55.62-263.28-55.62-363.72,0C41.41,183.33,21.79,200.58,9.29,219v70.61H490.71Z" style="fill:#f0f0f0"></path><path d="M490.72,221.05a2.06,2.06,0,0,1-1.72-.9c-12.73-18.74-32.29-35.5-58.14-49.82-99.73-55.22-262-55.22-361.72,0C43.29,184.65,23.73,201.41,11,220.14a2.07,2.07,0,0,1-3.42-2.32c13.1-19.28,33.14-36.47,59.56-51.11,100.83-55.83,264.89-55.83,365.72,0,26.42,14.63,46.46,31.82,59.56,51.1a2.07,2.07,0,0,1-.54,2.87A2,2,0,0,1,490.72,221.05Z" style="fill:#ebebeb"></path><path d="M490.71,125.7a.51.51,0,0,1-.42-.23c-12.88-18.94-32.62-35.86-58.68-50.3-100.14-55.45-263.08-55.45-363.22,0C42.33,89.6,22.58,106.53,9.71,125.47a.51.51,0,0,1-.71.13.51.51,0,0,1-.14-.71c13-19.08,32.82-36.11,59-50.62,100.42-55.61,263.8-55.61,364.22,0,26.21,14.51,46.07,31.54,59,50.62a.52.52,0,0,1-.14.72A.5.5,0,0,1,490.71,125.7Z" style="fill:#e0e0e0"></path></g></g><g id="freepik--Floor--inject-86"><ellipse id="freepik--Grass--inject-86" cx="250" cy="312.9" rx="244.73" ry="149.77" style="fill:#fafafa"></ellipse></g><g id="freepik--tennis-court--inject-86"><g id="freepik--Field--inject-86"><polygon points="225.6 182.21 15.64 303.43 274.4 452.83 484.36 331.61 225.6 182.21" style="fill:#fafafa"></polygon><polygon points="26.23 302.99 224.84 188.32 473.77 332.05 275.16 446.71 26.23 302.99" style="fill:#BA68C8"></polygon><polygon points="26.23 302.99 224.84 188.32 473.77 332.05 275.16 446.71 26.23 302.99" style="fill:#fff;opacity:0.35000000000000003"></polygon><polygon points="327.32 360.5 175.62 272.92 172.84 274.53 324.54 362.11 327.32 360.5" style="fill:#fafafa"></polygon><polygon points="434.65 360.29 175.89 210.9 173.11 212.5 431.87 361.9 434.65 360.29" style="fill:#fafafa"></polygon><polygon points="323.58 424.42 64.81 275.02 67.6 273.42 326.36 422.82 323.58 424.42" style="fill:#fafafa"></polygon><polygon points="118.58 304.46 227.23 241.74 229.64 243.13 120.99 305.85 118.58 304.46" style="fill:#fafafa"></polygon><polygon points="272.69 393.44 381.34 330.71 378.93 329.32 270.28 392.05 272.69 393.44" style="fill:#fafafa"></polygon><path d="M274.4,453.4l-.24-.14L14.65,303.43l.74-.43L225.6,181.64l.24.14L485.35,331.61l-.74.43Zm-257.78-150L274.4,452.26l209-120.65L225.6,182.78Z" style="fill:#e0e0e0"></path></g></g><g id="freepik--Net--inject-86"><polygon points="349.71 253.68 148.47 369.87 148.47 342.34 148.18 342.34 148.18 370.37 349.71 254.01 349.71 253.68" style="fill:#263238"></polygon><polygon points="349.71 253.68 148.25 370 148.39 370.24 349.71 254.01 349.71 253.68" style="fill:#263238"></polygon><polygon points="349.71 250.59 148.25 366.91 148.39 367.16 349.71 250.92 349.71 250.59" style="fill:#263238"></polygon><polygon points="349.71 247.51 148.25 363.82 148.39 364.07 349.71 247.84 349.71 247.51" style="fill:#263238"></polygon><polygon points="349.71 244.42 148.25 360.74 148.39 360.99 349.71 244.75 349.71 244.42" style="fill:#263238"></polygon><polygon points="349.71 241.33 148.25 357.65 148.39 357.9 349.71 241.66 349.71 241.33" style="fill:#263238"></polygon><polygon points="349.71 238.25 148.25 354.56 148.39 354.81 349.71 238.58 349.71 238.25" style="fill:#263238"></polygon><polygon points="349.71 235.16 148.25 351.48 148.39 351.73 349.71 235.49 349.71 235.16" style="fill:#263238"></polygon><polygon points="349.71 232.08 148.25 348.39 148.39 348.64 349.71 232.41 349.71 232.08" style="fill:#263238"></polygon><polygon points="349.71 228.99 148.25 345.31 148.39 345.56 349.71 229.32 349.71 228.99" style="fill:#263238"></polygon><polygon points="349.71 225.9 148.25 342.22 148.39 342.47 349.71 226.23 349.71 225.9" style="fill:#263238"></polygon><rect x="148.18" y="342.34" width="0.28" height="27.77" style="fill:#263238"></rect><rect x="150.83" y="340.82" width="0.29" height="27.77" style="fill:#263238"></rect><rect x="153.48" y="339.29" width="0.28" height="27.77" style="fill:#263238"></rect><rect x="156.12" y="337.76" width="0.29" height="27.77" style="fill:#263238"></rect><rect x="158.77" y="336.23" width="0.29" height="27.77" style="fill:#263238"></rect><rect x="161.42" y="334.7" width="0.28" height="27.77" style="fill:#263238"></rect><rect x="164.06" y="333.17" width="0.28" height="27.77" style="fill:#263238"></rect><rect x="166.71" y="331.64" width="0.28" height="27.77" style="fill:#263238"></rect><rect x="169.36" y="330.12" width="0.28" height="27.77" style="fill:#263238"></rect><rect x="172.01" y="328.59" width="0.28" height="27.77" style="fill:#263238"></rect><rect x="174.65" y="327.06" width="0.29" height="27.77" style="fill:#263238"></rect><rect x="177.3" y="325.53" width="0.29" height="27.77" style="fill:#263238"></rect><rect x="179.95" y="324" width="0.28" height="27.77" style="fill:#263238"></rect><rect x="182.6" y="322.47" width="0.29" height="27.77" style="fill:#263238"></rect><rect x="185.24" y="320.94" width="0.28" height="27.77" style="fill:#263238"></rect><rect x="187.89" y="319.42" width="0.28" height="27.77" style="fill:#263238"></rect><rect x="190.54" y="317.89" width="0.29" height="27.77" style="fill:#263238"></rect><rect x="193.18" y="316.36" width="0.29" height="27.77" style="fill:#263238"></rect><rect x="195.83" y="314.83" width="0.28" height="27.77" style="fill:#263238"></rect><rect x="198.48" y="313.3" width="0.28" height="27.77" style="fill:#263238"></rect><rect x="201.13" y="311.77" width="0.28" height="27.77" style="fill:#263238"></rect><rect x="203.77" y="310.24" width="0.28" height="27.77" style="fill:#263238"></rect><rect x="206.42" y="308.72" width="0.28" height="27.77" style="fill:#263238"></rect><rect x="209.07" y="307.19" width="0.28" height="27.77" style="fill:#263238"></rect><rect x="211.72" y="305.66" width="0.29" height="27.77" style="fill:#263238"></rect><rect x="214.36" y="304.13" width="0.28" height="27.77" style="fill:#263238"></rect><rect x="217.01" y="302.6" width="0.29" height="27.77" style="fill:#263238"></rect><rect x="219.66" y="301.07" width="0.28" height="27.77" style="fill:#263238"></rect><rect x="222.31" y="299.54" width="0.29" height="27.77" style="fill:#263238"></rect><rect x="224.95" y="298.02" width="0.28" height="27.77" style="fill:#263238"></rect><rect x="227.6" y="296.49" width="0.28" height="27.77" style="fill:#263238"></rect><rect x="230.25" y="294.96" width="0.29" height="27.77" style="fill:#263238"></rect><rect x="232.9" y="293.43" width="0.28" height="27.77" style="fill:#263238"></rect><rect x="235.54" y="291.9" width="0.28" height="27.77" style="fill:#263238"></rect><rect x="238.19" y="290.37" width="0.29" height="27.77" style="fill:#263238"></rect><rect x="240.84" y="288.84" width="0.28" height="27.77" style="fill:#263238"></rect><rect x="243.48" y="287.31" width="0.29" height="27.77" style="fill:#263238"></rect><rect x="246.13" y="285.79" width="0.28" height="27.77" style="fill:#263238"></rect><rect x="248.78" y="284.26" width="0.29" height="27.77" style="fill:#263238"></rect><rect x="251.43" y="282.73" width="0.28" height="27.77" style="fill:#263238"></rect><rect x="254.07" y="281.2" width="0.29" height="27.77" style="fill:#263238"></rect><rect x="256.72" y="279.67" width="0.29" height="27.77" style="fill:#263238"></rect><rect x="259.37" y="278.14" width="0.29" height="27.77" style="fill:#263238"></rect><rect x="262.01" y="276.61" width="0.28" height="27.77" style="fill:#263238"></rect><rect x="264.66" y="275.09" width="0.28" height="27.77" style="fill:#263238"></rect><rect x="267.31" y="273.56" width="0.29" height="27.77" style="fill:#263238"></rect><rect x="269.96" y="272.03" width="0.28" height="27.77" style="fill:#263238"></rect><rect x="272.6" y="270.5" width="0.28" height="27.77" style="fill:#263238"></rect><rect x="275.25" y="268.97" width="0.28" height="27.77" style="fill:#263238"></rect><rect x="277.9" y="267.44" width="0.29" height="27.77" style="fill:#263238"></rect><rect x="280.55" y="265.91" width="0.28" height="27.77" style="fill:#263238"></rect><rect x="283.19" y="264.39" width="0.28" height="27.77" style="fill:#263238"></rect><rect x="285.84" y="262.86" width="0.29" height="27.77" style="fill:#263238"></rect><rect x="288.49" y="261.33" width="0.28" height="27.77" style="fill:#263238"></rect><rect x="291.14" y="259.8" width="0.28" height="27.77" style="fill:#263238"></rect><rect x="293.78" y="258.27" width="0.28" height="27.77" style="fill:#263238"></rect><rect x="296.43" y="256.74" width="0.28" height="27.77" style="fill:#263238"></rect><rect x="299.08" y="255.21" width="0.28" height="27.77" style="fill:#263238"></rect><rect x="301.72" y="253.68" width="0.28" height="27.77" style="fill:#263238"></rect><rect x="304.37" y="252.16" width="0.29" height="27.77" style="fill:#263238"></rect><rect x="307.02" y="250.63" width="0.28" height="27.77" style="fill:#263238"></rect><rect x="309.67" y="249.1" width="0.28" height="27.77" style="fill:#263238"></rect><rect x="312.31" y="247.57" width="0.29" height="27.77" style="fill:#263238"></rect><rect x="314.96" y="246.04" width="0.28" height="27.77" style="fill:#263238"></rect><rect x="317.61" y="244.51" width="0.28" height="27.77" style="fill:#263238"></rect><rect x="320.26" y="242.98" width="0.28" height="27.77" style="fill:#263238"></rect><rect x="322.9" y="241.46" width="0.29" height="27.77" style="fill:#263238"></rect><rect x="325.55" y="239.93" width="0.28" height="27.77" style="fill:#263238"></rect><rect x="328.2" y="238.4" width="0.28" height="27.77" style="fill:#263238"></rect><rect x="330.85" y="236.87" width="0.28" height="27.77" style="fill:#263238"></rect><rect x="333.49" y="235.34" width="0.29" height="27.77" style="fill:#263238"></rect><rect x="336.14" y="233.81" width="0.28" height="27.77" style="fill:#263238"></rect><rect x="338.79" y="232.28" width="0.29" height="27.77" style="fill:#263238"></rect><rect x="341.43" y="230.75" width="0.29" height="27.77" style="fill:#263238"></rect><rect x="344.08" y="229.23" width="0.28" height="27.77" style="fill:#263238"></rect><rect x="346.73" y="227.7" width="0.28" height="27.77" style="fill:#263238"></rect><rect x="349.38" y="226.17" width="0.28" height="27.77" style="fill:#263238"></rect><polygon points="349.71 222.04 148.18 338.4 148.18 342.95 349.71 226.59 349.71 222.04" style="fill:#e0e0e0"></polygon><path d="M352.44,219.25a.77.77,0,0,0-.45-.63,2.44,2.44,0,0,0-2.17,0,.78.78,0,0,0-.44.63v38.58a.78.78,0,0,0,.44.63,2.44,2.44,0,0,0,2.17,0,.77.77,0,0,0,.45-.63Z" style="fill:#263238"></path><path d="M349.82,218.62a.78.78,0,0,0-.44.63.75.75,0,0,0,.44.62,2.37,2.37,0,0,0,2.17,0,.75.75,0,0,0,.45-.62.77.77,0,0,0-.45-.63A2.44,2.44,0,0,0,349.82,218.62Z" style="fill:#455a64"></path><path d="M148.47,337a.75.75,0,0,0-.45-.62,2.37,2.37,0,0,0-2.17,0,.75.75,0,0,0-.45.62V375.6a.76.76,0,0,0,.45.63,2.37,2.37,0,0,0,2.17,0,.76.76,0,0,0,.45-.63Z" style="fill:#263238"></path><path d="M145.85,336.4a.75.75,0,0,0-.45.62.77.77,0,0,0,.45.63,2.44,2.44,0,0,0,2.17,0,.77.77,0,0,0,.45-.63.75.75,0,0,0-.45-.62A2.37,2.37,0,0,0,145.85,336.4Z" style="fill:#455a64"></path></g><g id="freepik--Shadows--inject-86"><ellipse id="freepik--Shadow--inject-86" cx="396.5" cy="446.44" rx="29.14" ry="16.82" style="fill:#e0e0e0"></ellipse><ellipse id="freepik--shadow--inject-86" cx="432.91" cy="426.78" rx="29.14" ry="16.82" style="fill:#e0e0e0"></ellipse><ellipse id="freepik--shadow--inject-86" cx="402.45" cy="316.22" rx="43.39" ry="25.05" style="opacity:0.1"></ellipse><ellipse id="freepik--shadow--inject-86" cx="143.83" cy="293.53" rx="43.39" ry="25.05" style="opacity:0.1"></ellipse><path id="freepik--shadow--inject-86" d="M166.55,472a100.66,100.66,0,0,1-48.2-12.81c-13.2-7.62-21.52-17.44-22.85-26.95-1.61-8.51-8.69-19.41-18.08-27.79A44.55,44.55,0,0,0,70,399.22l-.27-.16a11.33,11.33,0,0,1-2.44.27,13.44,13.44,0,0,1-6.85-2.09L59,396.36c-5-2.87-15.38-8.83-20.05-12.2a37.11,37.11,0,0,0-11.1-5.9c-2.35-.66-5.17-1.75-6.13-4.25-1.12-2.91.49-5.64,4.79-8.13a15.83,15.83,0,0,1,7.9-2.45,10.24,10.24,0,0,1,1.36.09,9.23,9.23,0,0,1,6.05,3.42c1,1.17,3.53,3.19,9.95,6.15,5.81,2.68,16.12,8.67,21.08,11.55l1.54.89c1.83,1.06,4,2.58,4.42,5a4.08,4.08,0,0,1,.06.53,62.31,62.31,0,0,0,8.73,4A191.07,191.07,0,0,0,138,405.92a100.19,100.19,0,0,1,44.16,12.72c14.64,8.45,23,19.27,23,29.68,0,7.1-4.06,13.35-11.42,17.6-6.9,4-16.33,6.09-27.26,6.09Zm-32.24-57.1c-8.6,0-15.86,1.56-21,4.53-4.64,2.68-7,6.13-7,10.27,0,7.18,6.88,15.44,18.41,22.1a86.72,86.72,0,0,0,41.49,11.12c8.6,0,15.86-1.56,21-4.53,4.64-2.68,7-6.13,7-10.27,0-7.18-6.88-15.44-18.41-22.1A86.78,86.78,0,0,0,134.31,414.91Zm-41.95-8.85a75.06,75.06,0,0,1,7.89,11,26.83,26.83,0,0,1,6.46-5.1c.85-.49,1.74-.95,2.66-1.39C103.55,409.25,97.78,407.74,92.36,406.06Z" style="fill:#e0e0e0"></path></g><g id="freepik--balls-2--inject-86"><g id="freepik--Ball--inject-86"><circle cx="433.73" cy="407.65" r="23.39" style="fill:#BA68C8"></circle><circle cx="433.73" cy="407.65" r="23.39" style="fill:#fff;opacity:0.35000000000000003"></circle><path d="M457.07,406.21a28.93,28.93,0,0,1-5.7,11,22.45,22.45,0,0,1-14.82,7.08c-8.33.7-17.06-3.09-21.69-10.05a21,21,0,0,1-3.18-14.45,23.39,23.39,0,1,0,45.44,7.82C457.12,407.17,457.1,406.69,457.07,406.21Z" style="fill:#BA68C8;opacity:0.35000000000000003"></path><path d="M452.55,417.71c-4.48,4.81-10.91,8.49-17.7,7.18a13.48,13.48,0,0,1-8.13-21.4c2-2.61,4.71-4.54,7.15-6.72,1.49-1.33,2.93-2.74,4.29-4.21a16.62,16.62,0,0,0,3.08-4.4,8.13,8.13,0,0,0,.63-2.44c-.51-.19-1-.36-1.54-.51a7.8,7.8,0,0,1-1.43,4,26.69,26.69,0,0,1-3.44,3.92q-2,2-4.13,3.77c-2.6,2.18-5.32,4.33-7.05,7.31a15.06,15.06,0,0,0,9.5,22.18c6.9,1.65,13.86-1.63,18.73-6.4a35.53,35.53,0,0,0,2.62-2.85,23.32,23.32,0,0,0,1.65-5.5A22.59,22.59,0,0,1,452.55,417.71Z" style="fill:#fafafa"></path><path d="M452.55,417.71c-4.48,4.81-10.91,8.49-17.7,7.18a12.8,12.8,0,0,1-2-.55,24.72,24.72,0,0,1-4.91-.84,14.89,14.89,0,0,0,5.79,2.85c6.9,1.65,13.86-1.63,18.73-6.4a35.53,35.53,0,0,0,2.62-2.85h0a23.33,23.33,0,0,0,1.36-4.06v0c.11-.46.2-.93.28-1.4h0A22.59,22.59,0,0,1,452.55,417.71Z" style="fill:#e0e0e0"></path></g><g id="freepik--ball--inject-86"><circle cx="395.96" cy="431.79" r="23.39" style="fill:#BA68C8"></circle><path d="M393.4,408.54a23.39,23.39,0,1,1-20.69,25.81A23.38,23.38,0,0,1,393.4,408.54Z" style="fill:#fff;opacity:0.35000000000000003"></path><path d="M419.3,430.35a29,29,0,0,1-5.7,11,22.44,22.44,0,0,1-14.82,7.07c-8.33.71-17.06-3.08-21.69-10A21,21,0,0,1,373.91,424a23.39,23.39,0,1,0,45.44,7.83C419.35,431.3,419.33,430.82,419.3,430.35Z" style="fill:#BA68C8;opacity:0.35000000000000003"></path><path d="M407.51,416.33a15.87,15.87,0,0,0-.16-5c-.6-.34-1.22-.65-1.85-.93a15,15,0,0,1,.44,5,13.46,13.46,0,0,1-20.37,10.43c-2.82-1.7-5-4.18-7.46-6.36-.43-.39-.87-.75-1.3-1.12-.31.44-.6.88-.87,1.34.86.74,1.7,1.5,2.53,2.28,2.46,2.35,4.89,4.82,8,6.22a15.06,15.06,0,0,0,21-11.87Z" style="fill:#fafafa"></path><path d="M413.37,440.91a15.05,15.05,0,0,0-20.11,13.31c0,.27,0,.54,0,.8.55.07,1.1.12,1.65.14a13.72,13.72,0,0,1,2.74-8.13,13.58,13.58,0,0,1,15.83-4.31A14.74,14.74,0,0,1,415.9,444q.44-.69.81-1.41A15.6,15.6,0,0,0,413.37,440.91Z" style="fill:#fafafa"></path><path d="M413.84,441.11c-.08.09-.15.19-.24.28-.31.36-.66.68-1,1,.29.1.58.2.87.32A14.74,14.74,0,0,1,415.9,444c.28-.45.54-.9.79-1.37l0,0A15.57,15.57,0,0,0,413.84,441.11Z" style="fill:#e0e0e0"></path><path d="M396.68,448.54q-.94,0-1.89-.09a15.13,15.13,0,0,0-1.53,5.77c0,.27,0,.53,0,.8h0c.5.06,1,.11,1.53.13h.08A13.55,13.55,0,0,1,396.68,448.54Z" style="fill:#e0e0e0"></path></g></g><g id="freepik--character-2--inject-86"><g id="freepik--Character--inject-86"><g id="freepik--Bottom--inject-86"><path d="M395.47,258.14c-1.8,2-5.1,2.53-12.43.11-7.51-2.47-11.12-11.28-9.45-13.22,3.07-3.56,18-4.6,21.76-1S397.83,255.55,395.47,258.14Z" style="fill:#263238"></path><path d="M430.28,269.09c-1.18,4.64-14,2.49-19,1.08-3.66-1-5.53-3.39-5.23-5.42.53-3.47,4.2-9.63,9.93-7.16S431.3,265.06,430.28,269.09Z" style="fill:#263238"></path><path d="M435.81,219.8c2.68,6.73,3.27,12.48,1.68,18.36s-8.39,27.82-9,32c-.31,2.1,0,2.41,1.34,5.36,1.28,2.75,2.69,6.64,2.9,14,.17,6,0,12.68-.14,17.13l-.12.85s.29,8.07-3.49,8.68-6.5-3.13-6.5-3.13-1.49-6.56-4.69-16.2c-3.31-10-6.81-17.58-8.5-23-1.63-5.22-1.58-5.37-.95-15,.47-7,3-22.35,3-22.35Z" style="fill:#ffa8a7"></path><path d="M433,310c.05-.77.54-3.13-.42-3.36l-.12.85s-.53.95-4.6,1.34a17.67,17.67,0,0,1-6.56-.35l-.4-1.45s-.35.12-.21,1.17,1.73,4.34,1.65,5.7,1,3.61,6.32,3,4.76-6.13,4.76-6.13Z" style="fill:#263238"></path><path d="M407.57,331.74c-.11.72,0,1.21,2.6,2.1a19.15,19.15,0,0,0,9.92,0c3.33-.83,6.2-3.8,7.58-5.87a18.84,18.84,0,0,1,6.08-5.07c1.87-1,2.26-1.44,2.11-2.05s-.71-2.23-.71-2.23Z" style="fill:#ebebeb"></path><path d="M435.35,316c-.49-2-1.4-3-1.42-4.63S433,310,433,310l-.08.94c-.08.62-.45.87-.75,1.36-.66,1.08-.64,1.85-1.56,2.17s-1.09-1.24-2.12-1.23a1.61,1.61,0,0,0-1,.54,2.62,2.62,0,0,0,0-1.29c-.3-1-3.73-1.32-5.51-1.62s-1,1-1.58,2.65a54.77,54.77,0,0,1-5.74,9.12,51.27,51.27,0,0,1-4.31,3.61c-2.11,1.54-1.94,2.2-2.56,2.6s-.74,1.86-.4,2.71,5.29,2.88,10.49,1.65,6.68-3.46,8.45-6.22a14.46,14.46,0,0,1,5.39-5,11.66,11.66,0,0,0,3.61-2.55A7,7,0,0,0,435.35,316Z" style="fill:#455a64"></path><path d="M414.7,322.63a54.77,54.77,0,0,0,5.74-9.12c.61-1.69-.2-2.94,1.58-2.65s5.21.64,5.51,1.62-.52,3.34-2.41,6.25a31.14,31.14,0,0,1-5.62,5.87Z" style="opacity:0.1"></path><path d="M408.24,329.74c.94.22,2,.45,2,.8s.1,2.33.62,3a2.54,2.54,0,0,0,2.05.88,25.47,25.47,0,0,0,7-.7,13,13,0,0,0,6.28-4.17c2-2.29,2.31-3.39,4.9-5.16s3.58-2.05,4.72-3.11a5.61,5.61,0,0,1,.22.81,3.16,3.16,0,0,1-1.18,1,32.76,32.76,0,0,0-4.85,2.92,35.23,35.23,0,0,0-3.5,4.06,13.4,13.4,0,0,1-6.57,4.2,19.25,19.25,0,0,1-9.68.05c-2.67-.88-2.81-1.41-3-1.72a6,6,0,0,1-.21-2.61C407.2,329.54,407.56,329.58,408.24,329.74Z" style="fill:#37474f"></path><path d="M420.32,323.8c-1.92-1.27-4.47-1.9-5.19-1.71a1.57,1.57,0,0,0-.69.78,12,12,0,0,1,5.06,1.73S420.29,324.51,420.32,323.8Z" style="fill:#37474f"></path><path d="M416.55,320.1a14.92,14.92,0,0,1,6.09,1.89,1,1,0,0,0,.77-.79s-3.7-2.14-6.3-1.93C417.11,319.27,416.5,319.6,416.55,320.1Z" style="fill:#37474f"></path><path d="M418.35,317.32c1.15-.44,5.43,1.27,6.42,2.15a.82.82,0,0,0,.77-.89s-3.63-2.48-6.55-2.31C419,316.27,418.19,316.65,418.35,317.32Z" style="fill:#37474f"></path><path d="M419.88,314.69c.58-.11,4.76.14,6.7,1.82a1,1,0,0,0,.61-.93s-3.29-2.33-6.82-1.88A1.55,1.55,0,0,0,419.88,314.69Z" style="fill:#37474f"></path><path d="M396.77,211.63c8.8,0,15.11,17.87,13.31,23.69s-15,20.93-15.91,21.69-1.08,2.25-.3,5.41c.89,3.63,1.23,6.73,1.18,14.1,0,6-.48,12.67-.74,17.11l-.16.84s0,8.09-3.79,8.56-6.39-3.36-6.39-3.36-1.25-6.61-4.1-16.36c-3-10.1-4.1-15.21-5.59-20.68-1.45-5.27-3.91-11.51.38-16.71,3.93-4.78,19.59-26,19.59-26Z" style="fill:#ffa8a7"></path><path d="M394.6,297c.08-.76.65-3.1-.29-3.37l-.16.84s-.56.94-4.64,1.18a17.63,17.63,0,0,1-6.54-.58l-.35-1.47s-.36.12-.25,1.16,1.57,4.4,1.44,5.76.88,3.64,6.21,3.25,5-6,5-6Z" style="fill:#263238"></path><path d="M368.41,317.84c-.12.72-.07,1.21,2.53,2.19a19.13,19.13,0,0,0,9.92.34c3.36-.72,6.33-3.58,7.78-5.6a19,19,0,0,1,6.26-4.85c1.9-1,2.3-1.35,2.17-2s-.62-2.26-.62-2.26Z" style="fill:#ebebeb"></path><path d="M396.74,303.09c-.41-2-1.29-3-1.25-4.68s-.88-1.4-.88-1.4l-.12.94c-.1.62-.48.86-.79,1.33-.7,1.06-.71,1.82-1.64,2.12s-1.05-1.28-2.07-1.31a1.62,1.62,0,0,0-1,.5,2.71,2.71,0,0,0,.1-1.28c-.27-1-3.68-1.46-5.45-1.82s-1,.93-1.67,2.6a54.45,54.45,0,0,1-6.06,8.9,53.26,53.26,0,0,1-4.44,3.46c-2.17,1.47-2,2.13-2.65,2.51s-.81,1.83-.49,2.69,5.18,3.07,10.42,2,6.8-3.22,8.67-5.92a14.4,14.4,0,0,1,5.55-4.75,11.72,11.72,0,0,0,3.71-2.41A7,7,0,0,0,396.74,303.09Z" style="fill:#455a64"></path><path d="M375.87,309a54.45,54.45,0,0,0,6.06-8.9c.66-1.67-.1-2.95,1.67-2.6s5.18.82,5.45,1.82-.64,3.32-2.63,6.15a31.07,31.07,0,0,1-5.82,5.68Z" style="opacity:0.1"></path><path d="M369.15,315.87c.94.25,2,.52,2,.87s0,2.34.51,3a2.52,2.52,0,0,0,2,.95,25.42,25.42,0,0,0,7.05-.44,13.13,13.13,0,0,0,6.43-3.95c2-2.22,2.42-3.3,5.08-5s3.64-1.93,4.82-2.95a5,5,0,0,1,.19.83,3.21,3.21,0,0,1-1.21.94,32.74,32.74,0,0,0-5,2.75,34.18,34.18,0,0,0-3.65,3.93,13.46,13.46,0,0,1-6.71,4,19.45,19.45,0,0,1-9.67-.29c-2.64-1-2.76-1.52-3-1.84a5.85,5.85,0,0,1-.1-2.61C368.13,315.64,368.48,315.68,369.15,315.87Z" style="fill:#37474f"></path><path d="M381.44,310.37c-1.87-1.34-4.4-2.07-5.13-1.9a1.6,1.6,0,0,0-.71.75,12.08,12.08,0,0,1,5,1.92S381.38,311.07,381.44,310.37Z" style="fill:#37474f"></path><path d="M377.81,306.53a15,15,0,0,1,6,2.11,1,1,0,0,0,.8-.77s-3.62-2.27-6.23-2.15C378.39,305.72,377.78,306,377.81,306.53Z" style="fill:#37474f"></path><path d="M379.71,303.82c1.16-.4,5.37,1.46,6.34,2.38a.83.83,0,0,0,.8-.87s-3.55-2.61-6.47-2.54C380.38,302.79,379.57,303.14,379.71,303.82Z" style="fill:#37474f"></path><path d="M381.33,301.25c.58-.09,4.74.3,6.63,2.05a1,1,0,0,0,.64-.91s-3.21-2.44-6.75-2.12A1.53,1.53,0,0,0,381.33,301.25Z" style="fill:#37474f"></path><path d="M436.27,210.15c1.52,5,5.58,14.29,2.49,25.62-3,11-7.05,27.49-8.48,33.32.21-3.66-5.49-6.08-12.06-7.5s-11.89,1.12-12.2,3.16l2.11-20.57-12.66,14c1.78-2-1.09-8.12-9.14-11.68-5.25-2.32-11.63-2.41-12.74-1.43,0,0,16.22-22.18,18.4-25.23a12.65,12.65,0,0,0,2-9.27Z" style="fill:#BA68C8"></path><path d="M408.13,244.18l1.31-11.89S401.13,228.7,397,222c1.05,5.23,6.9,10.21,9.24,11.54L406,244l-10.57,14.19Z" style="opacity:0.2"></path></g><g id="freepik--Top--inject-86"><path d="M396.7,163.58c-9.17-1.48-13,2.89-16.66,9.3-3.35,5.82-10.32,18.5-11.72,24.28.15,2.44,2.33,3.37,5.87,4.17s6.43-1.35,10.14-6.13,10-16.26,10-16.26Z" style="fill:#ffa8a7"></path><path d="M382,189.75a14,14,0,0,0-10.44,3.55l11.16,3.84c.52-.59,1-1.23,1.59-1.94.94-1.21,2.05-2.86,3.18-4.64A30.49,30.49,0,0,0,382,189.75Z" style="fill:#f28f8f"></path><g id="freepik--Chest--inject-86"><path d="M391.32,200.41c-2.9-9.85-4.54-14.07-4.73-21.26-.09-3.65.5-8,3.18-11.18,1.77-2.13,5.53-4.49,6.93-4.39,1.93.14,6.15-.16,9.22.27a114.92,114.92,0,0,1,17,4c4.08,3.62,6.44,9.44,9.46,17.85s5.87,24.76,7.67,36.37c-17.58,9.6-41.82,3.44-47-5.7C393.61,213.08,393.48,207.75,391.32,200.41Z" style="fill:#455a64"></path></g><path d="M422.92,167.8c8.54,2.14,11.26,6.1,15,10.36,4.29,4.92,11.84,13.71,13.67,17.18,2.91,5.53,1.42,9.19-1.1,10l-14.38-4.46-10.79-10.5a17.09,17.09,0,0,1-3.21-4.21C420,182.29,417,174,422.92,167.8Z" style="fill:#ffa8a7"></path><path d="M425.17,190.26l.13.13,10.79,10.5,13.26,1.34v-6.84c-3.21-3.57-7.61-4.43-12.73-4.66Z" style="fill:#f28f8f"></path><g id="freepik--Head--inject-86"><path d="M410.9,160.43c.16-2.88,5.52-7.6,6.31-12.67,1-6.64-2.13-13.15-6.72-13.09-1-4.36-8.29-6.22-12.62-5-3.77.88-8.91,2.48-12.09-.5a5.42,5.42,0,0,0,1.39,5.42c-1.25-.11-2.6-.7-3.81-.54-.39,2.38,1.5,4.36,2.57,6.24-1.85,4.12.56,8.57,4.71,10Z" style="fill:#263238"></path><path d="M415.43,146.88a3.49,3.49,0,0,0-2.17-2.44,3,3,0,0,0-2.36.17,4.46,4.46,0,0,0-1.11,1.18,11.62,11.62,0,0,0-.71,1.11,32.7,32.7,0,0,1-1.51,3,.84.84,0,0,1-1.23.29,1.52,1.52,0,0,1-.54-.75c-.57-1.53.25-3.24,0-4.86a.32.32,0,0,0-.28-.32,4.85,4.85,0,0,1-2.26-1.33,7.51,7.51,0,0,1-.89-1.9.52.52,0,0,0-.22-.28.54.54,0,0,0-.31,0,24,24,0,0,1-6.55.26c-1.34-.17-5.58-1.49-6-3.18-.25.45-2.36,3.26-2.79,14.25-.39,9.79,2.86,11.1,4.5,11.68a14.36,14.36,0,0,0,6,.63l1.14,3.9c-2.14,4.26,8.86,6.21,14.69-2.68l-2.35-11.42s-.2.66,1.46.36a3.78,3.78,0,0,0,2.56-2A7.37,7.37,0,0,0,415.43,146.88Z" style="fill:#ffa8a7"></path><path d="M386.5,152.08c0,8.13,1.3,12.83,10.53,12.31a13.81,13.81,0,0,1-4.88-.2c-5.68-.81-6-7.57-5.65-12.11Z" style="fill:#f28f8f"></path><path d="M408.87,154.42s.6,4.31-1.66,7c-2.07,2.48-4.27,4.29-9.6,4.94l-.58-2a35.41,35.41,0,0,0,5.73-1.54,14.58,14.58,0,0,0,2.7-1.57C408.07,159.44,408.5,155.27,408.87,154.42Z" style="fill:#f28f8f"></path><path d="M396.43,150.07a1.24,1.24,0,1,0,1.26-1.26A1.25,1.25,0,0,0,396.43,150.07Z" style="fill:#263238"></path><path d="M397.47,146.6l2.72,1.32a1.57,1.57,0,0,0-.72-2.07A1.48,1.48,0,0,0,397.47,146.6Z" style="fill:#263238"></path><path d="M388.7,144.73l2.45,1.82a1.47,1.47,0,0,0-.26-2.11A1.61,1.61,0,0,0,388.7,144.73Z" style="fill:#263238"></path><path d="M388,148.35a1.26,1.26,0,0,0,1.21,1.31,1.29,1.29,0,1,0-1.21-1.31Z" style="fill:#263238"></path><path d="M394.85,147.57,393.53,155l-4.15-1.52a11.09,11.09,0,0,1,4.25-5.63C395,147.22,394.85,147.57,394.85,147.57Z" style="fill:#f28f8f"></path><path d="M397.1,155.81c0-.05,0-.13-.11-.11s-.26.28-.35.42a2.12,2.12,0,0,1-.35.44,2.62,2.62,0,0,1-.93.62,3.25,3.25,0,0,1-1.19.21,2.84,2.84,0,0,1-.58,0,2.91,2.91,0,0,0-.31,0,1.21,1.21,0,0,1-.37-.07s-.06.07,0,.09.25.17.38.24a1.22,1.22,0,0,0,.33.14,3.32,3.32,0,0,0,.7.13,2.68,2.68,0,0,0,1.28-.2,2.74,2.74,0,0,0,1-.68A1.42,1.42,0,0,0,397.1,155.81Z" style="fill:#b16668"></path></g><path d="M402.47,199.91c.93-.61,2.18-2,3.93-4.82s5.81-8.17,7.07-9.85c.64-.85,1.15-1.26,1.62-1.19s2.38.29,2.83.34.86.56,1.29,1.56a4.34,4.34,0,0,1-.59,5c-1.25,1.67-5.27,7.12-7.3,9.32a19.12,19.12,0,0,0-3.7,5.34c-.44,1.07-.86,1.65-1.32,1.76a.57.57,0,0,1-.26,0l-2.82-.33c-.52,0-1-.64-1.55-1.86a5.6,5.6,0,0,1-.52-3.53A2.91,2.91,0,0,1,402.47,199.91Z" style="fill:#BA68C8"></path><path d="M401.67,205.2a5.6,5.6,0,0,1-.52-3.53,2.91,2.91,0,0,1,1.32-1.76c.93-.61,2.18-2,3.93-4.82s5.81-8.17,7.07-9.85,2-1.63,2.88.37a4.34,4.34,0,0,1-.59,5c-1.25,1.67-5.27,7.12-7.3,9.32a18.83,18.83,0,0,0-3.69,5.34c-.45,1.07-.87,1.65-1.32,1.77S402.26,206.59,401.67,205.2Z" style="fill:#BA68C8"></path><path d="M401.67,205.2a5.6,5.6,0,0,1-.52-3.53,2.91,2.91,0,0,1,1.32-1.76c.93-.61,2.18-2,3.93-4.82s5.81-8.17,7.07-9.85,2-1.63,2.88.37a4.34,4.34,0,0,1-.59,5c-1.25,1.67-5.27,7.12-7.3,9.32a18.83,18.83,0,0,0-3.69,5.34c-.45,1.07-.87,1.65-1.32,1.77S402.26,206.59,401.67,205.2Z" style="fill:#fff;opacity:0.2"></path><path d="M450.27,130.1c-3.59.15-7.86,2.9-11.74,8.07-7,9.34-10.07,23.05-6.84,30.62a7.48,7.48,0,0,0,4.61,4.57c-2.9.12-5.36-1.46-6.81-4.84-3.23-7.56-.16-21.27,6.84-30.62C441,131.63,446.33,128.92,450.27,130.1Z" style="fill:#263238"></path><path d="M430.71,168.62a.11.11,0,0,1-.07,0,.12.12,0,0,1,0-.17L456,134.57a.12.12,0,0,1,.17,0,.13.13,0,0,1,0,.18l-25.39,33.85A.12.12,0,0,1,430.71,168.62Z" style="fill:#e0e0e0"></path><path d="M430.13,167a.13.13,0,0,1-.08,0,.12.12,0,0,1,0-.17l25.22-33.64a.14.14,0,0,1,.18,0,.12.12,0,0,1,0,.17L430.23,166.9A.14.14,0,0,1,430.13,167Z" style="fill:#e0e0e0"></path><path d="M429.71,165.06a.11.11,0,0,1-.07,0,.12.12,0,0,1,0-.17l24.73-33a.12.12,0,0,1,.17,0,.13.13,0,0,1,0,.18l-24.73,33A.12.12,0,0,1,429.71,165.06Z" style="fill:#e0e0e0"></path><path d="M429.47,162.93a.11.11,0,0,1-.07,0,.12.12,0,0,1,0-.17l23.87-31.83a.13.13,0,0,1,.18,0,.12.12,0,0,1,0,.17l-23.87,31.83A.12.12,0,0,1,429.47,162.93Z" style="fill:#e0e0e0"></path><path d="M429.44,160.53a.13.13,0,0,1-.08,0,.12.12,0,0,1,0-.17l22.6-30.15a.14.14,0,0,1,.18,0,.12.12,0,0,1,0,.17l-22.6,30.15A.14.14,0,0,1,429.44,160.53Z" style="fill:#e0e0e0"></path><path d="M429.64,157.81l-.08,0a.14.14,0,0,1,0-.18l20.87-27.83a.13.13,0,0,1,.18,0,.14.14,0,0,1,0,.18l-20.87,27.83A.14.14,0,0,1,429.64,157.81Z" style="fill:#e0e0e0"></path><path d="M430.14,154.7a.09.09,0,0,1-.07,0,.12.12,0,0,1,0-.17l18.54-24.73a.12.12,0,0,1,.17,0,.12.12,0,0,1,0,.17l-18.54,24.73A.12.12,0,0,1,430.14,154.7Z" style="fill:#e0e0e0"></path><path d="M431.08,151a.11.11,0,0,1-.08,0,.12.12,0,0,1,0-.17l15.33-20.45a.12.12,0,0,1,.17,0,.12.12,0,0,1,0,.17L431.18,151A.16.16,0,0,1,431.08,151Z" style="fill:#e0e0e0"></path><path d="M432.83,146.21a.11.11,0,0,1-.07,0,.12.12,0,0,1,0-.17l10.49-14a.12.12,0,0,1,.17,0,.13.13,0,0,1,0,.18l-10.49,14A.12.12,0,0,1,432.83,146.21Z" style="fill:#e0e0e0"></path><path d="M431.46,170.07a.09.09,0,0,1-.07,0,.12.12,0,0,1,0-.17l25.22-33.64a.14.14,0,0,1,.18,0,.12.12,0,0,1,0,.17L431.56,170A.12.12,0,0,1,431.46,170.07Z" style="fill:#e0e0e0"></path><path d="M432.38,171.3a.11.11,0,0,1-.08,0,.12.12,0,0,1,0-.17l24.72-33a.14.14,0,0,1,.18,0,.12.12,0,0,1,0,.17l-24.72,33A.16.16,0,0,1,432.38,171.3Z" style="fill:#e0e0e0"></path><path d="M433.47,172.28l-.07,0a.13.13,0,0,1,0-.18l23.87-31.82a.12.12,0,0,1,.17,0,.13.13,0,0,1,0,.18l-23.87,31.82A.1.1,0,0,1,433.47,172.28Z" style="fill:#e0e0e0"></path><path d="M434.77,173l-.08,0a.14.14,0,0,1,0-.18l22.6-30.14a.13.13,0,0,1,.18,0,.13.13,0,0,1,0,.18L434.87,173A.14.14,0,0,1,434.77,173Z" style="fill:#e0e0e0"></path><path d="M436.3,173.41a.09.09,0,0,1-.07,0,.12.12,0,0,1,0-.17l20.87-27.84a.14.14,0,0,1,.18,0,.12.12,0,0,1,0,.17L436.4,173.36A.12.12,0,0,1,436.3,173.41Z" style="fill:#e0e0e0"></path><path d="M438.13,173.41a.11.11,0,0,1-.07,0,.12.12,0,0,1,0-.17l18.54-24.72a.13.13,0,0,1,.18,0,.14.14,0,0,1,0,.18l-18.54,24.72A.12.12,0,0,1,438.13,173.41Z" style="fill:#e0e0e0"></path><path d="M440.4,172.83l-.07,0a.13.13,0,0,1,0-.18l15.34-20.45a.12.12,0,0,1,.17,0,.12.12,0,0,1,0,.17L440.5,172.78A.12.12,0,0,1,440.4,172.83Z" style="fill:#e0e0e0"></path><path d="M443.49,171.16a.11.11,0,0,1-.07,0,.12.12,0,0,1,0-.17l10.49-14a.12.12,0,0,1,.17,0,.13.13,0,0,1,0,.18l-10.49,14A.12.12,0,0,1,443.49,171.16Z" style="fill:#e0e0e0"></path><path d="M450.06,164.31a.13.13,0,0,1-.11-.08l-11.69-27.36a.12.12,0,0,1,.07-.16.12.12,0,0,1,.16.06l11.69,27.36a.12.12,0,0,1-.07.17Z" style="fill:#e0e0e0"></path><path d="M451.25,162.45a.12.12,0,0,1-.11-.08l-11.55-27a.12.12,0,0,1,.07-.17.14.14,0,0,1,.16.07l11.55,27a.14.14,0,0,1-.07.17Z" style="fill:#e0e0e0"></path><path d="M452.39,160.47a.13.13,0,0,1-.12-.08L441,134a.12.12,0,0,1,.07-.17.12.12,0,0,1,.16.07l11.29,26.42a.13.13,0,0,1-.07.17Z" style="fill:#e0e0e0"></path><path d="M453.46,158.33a.12.12,0,0,1-.12-.07l-10.91-25.54a.11.11,0,0,1,.07-.16.12.12,0,0,1,.16.06l10.91,25.54a.11.11,0,0,1-.07.16Z" style="fill:#e0e0e0"></path><path d="M454.45,156a.12.12,0,0,1-.11-.07L444,131.66a.12.12,0,0,1,.07-.16.12.12,0,0,1,.16.06l10.38,24.3a.11.11,0,0,1-.07.16Z" style="fill:#e0e0e0"></path><path d="M455.37,153.54a.13.13,0,0,1-.12-.08l-9.68-22.68a.12.12,0,0,1,.06-.16.13.13,0,0,1,.17.06l9.69,22.68a.14.14,0,0,1-.07.17Z" style="fill:#e0e0e0"></path><path d="M456.17,150.78a.14.14,0,0,1-.11-.07l-8.78-20.56a.12.12,0,0,1,.07-.16.13.13,0,0,1,.16.07l8.78,20.55a.12.12,0,0,1-.07.16Z" style="fill:#e0e0e0"></path><path d="M456.85,147.73a.12.12,0,0,1-.11-.07l-7.61-17.81a.11.11,0,0,1,.07-.16.12.12,0,0,1,.16.06L457,147.56a.11.11,0,0,1-.07.16Z" style="fill:#e0e0e0"></path><path d="M457.31,144.16a.14.14,0,0,1-.12-.07l-6-14a.12.12,0,0,1,.07-.16.12.12,0,0,1,.16.06l6,14a.12.12,0,0,1-.06.16Z" style="fill:#e0e0e0"></path><path d="M457.22,139.32a.12.12,0,0,1-.11-.08l-3.32-7.76a.11.11,0,0,1,.07-.16.12.12,0,0,1,.16.06l3.32,7.76a.15.15,0,0,1-.07.17Z" style="fill:#e0e0e0"></path><path d="M448.8,166a.12.12,0,0,1-.11-.07L437,138.56a.13.13,0,0,1,.06-.17.13.13,0,0,1,.17.07l11.69,27.36a.13.13,0,0,1-.07.16Z" style="fill:#e0e0e0"></path><path d="M447.49,167.56a.12.12,0,0,1-.11-.07l-11.61-27.16a.14.14,0,0,1,.07-.16.13.13,0,0,1,.17.06l11.6,27.16a.13.13,0,0,1-.07.16Z" style="fill:#e0e0e0"></path><path d="M446.12,169a.14.14,0,0,1-.12-.07l-11.37-26.63a.12.12,0,0,1,.06-.16.13.13,0,0,1,.17.06l11.37,26.63a.12.12,0,0,1-.07.16Z" style="fill:#e0e0e0"></path><path d="M444.67,170.23a.14.14,0,0,1-.12-.07l-11-25.77a.13.13,0,0,1,.07-.16.12.12,0,0,1,.16.06l11,25.77a.12.12,0,0,1-.06.16Z" style="fill:#e0e0e0"></path><path d="M443.16,171.35a.12.12,0,0,1-.11-.08l-10.52-24.62a.13.13,0,0,1,.06-.17.14.14,0,0,1,.17.07l10.52,24.62a.12.12,0,0,1-.07.17Z" style="fill:#e0e0e0"></path><path d="M441.58,172.28a.11.11,0,0,1-.11-.07l-9.89-23.14a.12.12,0,0,1,.07-.16.12.12,0,0,1,.16.06l9.89,23.14a.13.13,0,0,1-.07.16Z" style="fill:#e0e0e0"></path><path d="M439.89,173a.12.12,0,0,1-.11-.08l-9-21.16a.12.12,0,0,1,.06-.16.13.13,0,0,1,.17.06l9,21.17a.13.13,0,0,1-.07.16Z" style="fill:#e0e0e0"></path><path d="M438.11,173.44a.12.12,0,0,1-.11-.08l-8-18.71a.12.12,0,0,1,.07-.16.12.12,0,0,1,.16.06l8,18.71a.14.14,0,0,1-.07.17Z" style="fill:#e0e0e0"></path><path d="M436.09,173.35a.12.12,0,0,1-.11-.08l-6.48-15.16a.13.13,0,0,1,.06-.17.13.13,0,0,1,.17.07l6.48,15.17a.14.14,0,0,1-.07.16Z" style="fill:#e0e0e0"></path><path d="M433.71,172.41a.12.12,0,0,1-.11-.07l-4.27-10a.11.11,0,0,1,.07-.16.12.12,0,0,1,.16.06l4.27,10a.13.13,0,0,1-.07.16Z" style="fill:#e0e0e0"></path><path d="M420.78,182.85c4.24-3.72,10.21-7,15.09-7.33,3.95-.05,8.62-3,12.85-8.63,7.62-10.17,10.88-25.26,7.27-33.7-1.23-2.89-3.11-4.62-5.35-5.25h0c3.2-.08,5.93,1.73,7.55,5.51,3.6,8.45.35,23.53-7.28,33.7-4.22,5.64-8.89,8.58-12.84,8.64-4.88.31-10.86,3.6-15.09,7.33a22.43,22.43,0,0,0-3.11,3.41l-.55.74-2.19-.27h0l.55-.73A23,23,0,0,1,420.78,182.85Z" style="fill:#37474f"></path><path d="M427,164.16a23,23,0,0,0,.63,3.67h0a96.74,96.74,0,0,1-4.6,11.33c-.67.49-1.32,1-1.94,1.52s-.92-.43-.53-1.23a96.34,96.34,0,0,0,5.92-15.2C426.62,163.81,427,163.76,427,164.16Z" style="fill:#263238"></path><path d="M435.65,136.31a45.93,45.93,0,0,0-8.22,19.46,92.74,92.74,0,0,1-8.13,23.62,30.17,30.17,0,0,1-2.7,4.34l-.56.74,1.09,2.53.55-.73a23,23,0,0,1,3.1-3.42c4.24-3.72,10.21-7,15.09-7.33,3.95-.05,8.62-3,12.85-8.63,7.62-10.17,10.88-25.26,7.27-33.7S443.28,126.14,435.65,136.31ZM427,164.16a19.24,19.24,0,0,0,1.37,5.85,10,10,0,0,0,2.81,3.92c.21.17.08.76-.19.86a35,35,0,0,0-9.9,5.89c-.54.45-.92-.43-.53-1.23a96.34,96.34,0,0,0,5.92-15.2C426.62,163.81,427,163.76,427,164.16Zm9.32-26.26c7-9.35,15.32-10.79,18.55-3.23s.17,21.27-6.84,30.62-15.32,10.8-18.55,3.23S429.33,147.25,436.33,137.9Z" style="fill:#455a64"></path><path d="M403.15,194.45c-6.15,3-9.54-.18-16.57-2.45-5.37-1.74-15.1-.49-17.53,3.55-1.78,3-.88,5.11,2.6,7.19,4.39,2.61,9.53,2.48,15.92,3,9.93.8,14.36.8,14.36.8Z" style="fill:#ffa8a7"></path><path d="M405.17,193.51a2.12,2.12,0,0,0-.93-.21,2.32,2.32,0,0,0-1.89.92c-.24.34-.37.74-.63,1.06a4.61,4.61,0,0,1-1.66,1,2.25,2.25,0,0,0-1.36,1.32c-.11.44,0,.81-.25,1.22s-.63.68-.88,1.06a1.91,1.91,0,0,0-.26,1.47,3.13,3.13,0,0,0,.27.72c.77,1.66,1.53,3.31,2.3,5a3.51,3.51,0,0,0,1,1.45,7.92,7.92,0,0,0,3.25.89,20.42,20.42,0,0,0,4.13.31c1.28,0,1.2-1.47,1.05-2.44a1.84,1.84,0,0,0,1.67-2,1.32,1.32,0,0,0,1.08-1.24,2.24,2.24,0,0,0-.65-1.61,1,1,0,0,0,1.07-.88c.24-1.91-2-3.24-3.22-4.34L407,195A7.92,7.92,0,0,0,405.17,193.51Z" style="fill:#f28f8f"></path><path d="M409.34,199.71c4.19,2.06,9.24.14,13.63,1.61,4.57,1.29,13.84,5.19,19.11,5.21,4.21,0,6.18-.3,8.39-1.18,1.93-.76,2.14-3.15,2.13-4.3,0-2.31-2.79-6.5-8.06-7.83a53.74,53.74,0,0,0-11.17-1.14c-2.93-.11-5.89,0-8.75-.66a5.13,5.13,0,0,1-1.49-.55c-.78-.47-1.16-1.27-1.81-1.85s-1-1-1.61-1.37c0,0,0,.29,0,.33a3.57,3.57,0,0,1-.1.87,1.16,1.16,0,0,1-.74.92,6.64,6.64,0,0,1-1.45.4,2.71,2.71,0,0,1-.94.06,2.57,2.57,0,0,1-1.14-.6,12.33,12.33,0,0,1-2.61-2.83.66.66,0,0,1-.14-.38,2,2,0,0,1,.15-.23l.71-.95a8.61,8.61,0,0,0-2.68-.05,2.29,2.29,0,0,0-1.71.86c-.3.5-.26,1.19-.68,1.59s-1.33.32-1.78.81-.18,1.38-.53,2c-.23.37-.67.57-.93.93a2.38,2.38,0,0,0,0,2.08l.66,1.95a2.53,2.53,0,0,0,.32.8l.48.61a12.88,12.88,0,0,0,2.24,2.59A5,5,0,0,0,409.34,199.71Z" style="fill:#ffa8a7"></path></g></g></g><g id="freepik--ball-1--inject-86"><path d="M140.9,68.64a6.09,6.09,0,1,1-6.31-5.86A6.1,6.1,0,0,1,140.9,68.64Z" style="fill:#BA68C8"></path><path d="M140.9,68.64a6.09,6.09,0,1,1-6.31-5.86A6.1,6.1,0,0,1,140.9,68.64Z" style="fill:#fff;opacity:0.35000000000000003"></path><path d="M140.78,67.66a3.11,3.11,0,0,0-2.2.55c-.83.48-1.64,1-2.5,1.45a3.1,3.1,0,0,1-2.62.41c-1.72-.72-1.72-3.19-.69-4.49a7.78,7.78,0,0,1,2.46-1.9,10.62,10.62,0,0,1,1.36-.63,6,6,0,0,0-1.52-.26,7.91,7.91,0,0,0-1.7.84A4.7,4.7,0,0,0,131,67.4a3.53,3.53,0,0,0,1.87,3.35,4.17,4.17,0,0,0,4.06-.39c.8-.45,1.56-1,2.34-1.42a2.54,2.54,0,0,1,1.44-.48.58.58,0,0,1,.19,0A7.71,7.71,0,0,0,140.78,67.66Z" style="fill:#fff"></path></g><g id="freepik--character-1--inject-86"><g id="freepik--character--inject-86"><g id="freepik--bottom--inject-86"><path d="M161.87,177l-10.55,9.92-7,15.5s.78,13.45,3.17,21.9c-2.83,1.79-8.63,4.23-14.89,13.3a137.1,137.1,0,0,1-9.47,12.53c-1.82,1-3.93,1.73-5.57,3-1.47,1.15-2.91,2.4-2.93,4.44a19.78,19.78,0,0,0,.74,3.69c.56,3-.63,6.1-.71,9.19a13.11,13.11,0,0,0,5.55,10.95,6.88,6.88,0,0,0,3.55,1.36,2.22,2.22,0,0,0,2-1.34,7.86,7.86,0,0,0,.65-3.07c.21-3.91-.44-7.87.34-11.7a12.32,12.32,0,0,1,3.19-6.59c1.41-1.31,3.18-2.67,4.7-3.84,8.36-6.47,14.88-10.81,24-17.54,8.48-6.26,11.24-8.63,11.16-14.25-.15-10.14-.1-11.87-2.8-27.63C164.7,183.41,161.87,177,161.87,177Z" style="fill:#af6152"></path><path d="M144.29,211.78l-13.7-36.5L161.87,177a107.8,107.8,0,0,1,5.2,17.78,164.22,164.22,0,0,1,2.77,18.11c.61,9.71.75,13.92-.52,16.55s-5.41,6-12.69,11.23-12,8.51-12,8.51-3.75-1.1-7-6.65c-2.57-4.43-1.73-9.82-1.73-9.82s5.79-6.53,10.65-8.6Z" style="fill:#37474f"></path><path d="M136.4,232.19c2.38,4.72,5.46,10.91,8.41,16.87,1-.69,5.43-3.81,11.82-8.37,3.23-2.3,5.84-4.25,7.86-5.95L157,200.55s7.5-5.42,5.85-13.54c-2.09,4.09-13.45,11.11-13.45,11.11l-8.08,5.68,3,8,2.26,12.35C142.54,225.84,137.89,230.59,136.4,232.19Z" style="fill:#263238"></path><path d="M114.44,255.17a5.69,5.69,0,0,0-1.33,1.89c-.37.73.63,4.17.39,5.73a39.33,39.33,0,0,1-1,4c-.52,2.2-1.75,4.29.61,9.44s5.35,7.36,7.77,8.38a5.93,5.93,0,0,0,2.8.31s2.8-1.5,2.12-3.18S114.44,255.17,114.44,255.17Z" style="fill:#263238"></path><path d="M129.63,260.79c0,.56-.54,1.1-1.12,2.17a13.36,13.36,0,0,0-1.39,4.83c-.64,8.72,1.42,12.67-1.56,15.8-1.09,1.14-4,1.13-8.86-3.68-2.49-2.46-4.43-7.92-3.93-10.57s1.42-4.46,1.71-6.49-.91-5.86,0-7.68a7.32,7.32,0,0,1,3.06-2.54,24.56,24.56,0,0,0,3.59-2c.83-.63,1.41-1,2-.5l-1.06,1.16a8.93,8.93,0,0,0-1.42,3.87,22.38,22.38,0,0,0,.07,3.34c.88-1.47,1.19-2.77,2.37-2.78.65,0,1.29.12,3.15,1.46S129.64,260.29,129.63,260.79Z" style="fill:#455a64"></path><path d="M116.74,279.94c-2.49-2.46-4.44-7.92-3.93-10.57a21.85,21.85,0,0,1,.66-2.6c0,.18,0,.36,0,.51,0,.34,0,.67,0,1a7.71,7.71,0,0,0,.92,3.8c.62,1,2.07,3.5,3.51,3.38.81-.07,1.39-1,1.59-1.9.08-.4.16-1.46.16-1.46a12.86,12.86,0,0,1,3.91,1c2.25,1.1,2.22,1.41,2.22,1.41a5.55,5.55,0,0,0,.16,1.83,4.38,4.38,0,0,0,.82,1.58,2.3,2.3,0,0,0,.51.39c.17,2,.12,3.67-1.63,5.26C124.38,284.62,121.6,284.75,116.74,279.94Z" style="fill:#37474f"></path><path d="M127.68,265h0a3.41,3.41,0,0,0-.47,1.15,32.06,32.06,0,0,0-.86,5.62,4.3,4.3,0,0,1-.64,2c-.16.23-.44.43-.55.68a.53.53,0,0,0,.06.63.91.91,0,0,0,1,.38c.27-.06.43-.3.6-.5a4.12,4.12,0,0,0,.32-.41,54.36,54.36,0,0,1,.05-6.83A12.72,12.72,0,0,1,127.68,265Z" style="fill:#37474f"></path><path d="M119.49,254.27a12.39,12.39,0,0,1,1.09-3.26l.51-.34c.83-.63,1.41-1,2-.5l-1.06,1.16a10.6,10.6,0,0,0-1,3.48c-.16,1.66-.26,2.56-.32,3.73-.39,3.8-1,5.13-1,8.67s1,5.78.58,6-1.51,0-2-2.77.08-7.62.66-10S119.09,256.68,119.49,254.27Z" style="fill:#37474f"></path><path d="M119.47,272a.31.31,0,0,0,.18.09,8.43,8.43,0,0,1,5.71,3.13.35.35,0,0,0,.49,0,.36.36,0,0,0,0-.5,9.15,9.15,0,0,0-6.11-3.35.35.35,0,0,0-.3.6Z" style="fill:#ebebeb"></path><path d="M119.6,269.31a.31.31,0,0,0,.18.09,9.4,9.4,0,0,1,6.15,3.16.35.35,0,0,0,.51,0,.36.36,0,0,0,0-.5,10.08,10.08,0,0,0-6.55-3.37.37.37,0,0,0-.42.3A.35.35,0,0,0,119.6,269.31Z" style="fill:#ebebeb"></path><path d="M119.46,266.3a.34.34,0,0,0,.2.09,10.67,10.67,0,0,1,6.92,3.46.4.4,0,0,0,.56,0,.4.4,0,0,0,0-.57,11.47,11.47,0,0,0-7.37-3.67.4.4,0,0,0-.45.34A.39.39,0,0,0,119.46,266.3Z" style="fill:#ebebeb"></path><path d="M119.88,263.32a.34.34,0,0,0,.2.09,10.46,10.46,0,0,1,6.74,3.43.39.39,0,0,0,.55-.54,11.16,11.16,0,0,0-7.18-3.66.39.39,0,0,0-.44.33A.37.37,0,0,0,119.88,263.32Z" style="fill:#ebebeb"></path><path d="M120.38,260.28a.42.42,0,0,0,.2.1,11.48,11.48,0,0,1,6.85,4,.38.38,0,0,0,.55,0,.39.39,0,0,0,0-.55,12.22,12.22,0,0,0-7.28-4.22.39.39,0,0,0-.45.32A.41.41,0,0,0,120.38,260.28Z" style="fill:#ebebeb"></path><path d="M164.34,304c-1.53-2.18-3.75-3.83-5.56-5.81a25.4,25.4,0,0,1-2.18-2.78,27.27,27.27,0,0,1-1.58-6.5c.21-1.94.9-5.92,1.5-8.69,1.11-5.14,3.7-17.18,5.36-24.74,2.86-13,2-13.66.16-22.38-2.74-12.83-5.18-20.16-8.59-33.93,8.56-5.66,8.78-12.18,7.78-21.8-4.89,1.86-10.7,2-15.77,1.93s-10.15-.23-14.86-2c-9.44,18.35-7.11,21.47.73,40.43,3.87,9.36,13.3,26.85,13.3,26.85-1.78,8-2.09,12-1.62,20.83.25,4.85.76,11.05.73,17.95,0,.11-.24.36-.3.47a5.55,5.55,0,0,0-.29.6,11.24,11.24,0,0,0-.62,1.71,6.28,6.28,0,0,1-.78,1.58,11.42,11.42,0,0,0-.89,2,5.26,5.26,0,0,0,.08,3.73c.59,1.27,1.8,2.11,2.75,3.14a22.84,22.84,0,0,1,3.35,5.81,18.21,18.21,0,0,0,1.66,2.91,11.32,11.32,0,0,0,2.3,2.18,10.86,10.86,0,0,0,3.16,1.57,24,24,0,0,0,3.08,1,15.72,15.72,0,0,0,2.56.32,9,9,0,0,0,2.49-.13,8.22,8.22,0,0,0,2.4-1.12,2.68,2.68,0,0,0,.82-2.6,5.26,5.26,0,0,0-.7-1.74C164.66,304.47,164.51,304.23,164.34,304Z" style="fill:#c8856a"></path><path d="M131.46,219s-5.21-10.64-6.8-16.75a25.85,25.85,0,0,1-.22-13.57c.85-4.22,2.61-10.46,2.61-10.46L161.87,177c4.61,18.51-7.88,22.27-7.88,22.27l3.45,13.77c3,11.44,6.29,24.92,6.48,28.38s.19,3.69-1.1,11.08-2.75,13.21-2.75,13.21a31.61,31.61,0,0,1-12-1.43l.23-11.86-2.52,10.89a13,13,0,0,1-3.19-2.09,62.1,62.1,0,0,1,1.61-17C139.1,235.24,134.2,224.91,131.46,219Z" style="fill:#455a64"></path><path d="M139.92,292.39a5.8,5.8,0,0,0,.11,2.31c.15.8,3,2.92,3.81,4.29s.81,1.9,1.64,3.76c.92,2.05,1.23,4.46,6.24,7.1s8.74,2.56,11.27,1.9a6,6,0,0,0,2.41-1.47s1.3-2.89-.26-3.81S139.92,292.39,139.92,292.39Z" style="fill:#263238"></path><path d="M155.39,287.57c.34.45.25,1.19.44,2.4a13.25,13.25,0,0,0,1.85,4.68c4.81,7.29,8.86,9.16,8.4,13.46-.16,1.57-2.47,3.33-9.26,2.49-3.47-.42-8.34-3.56-9.57-6s-1.59-4.4-2.6-6.18-4.3-4.09-4.73-6.06a7.48,7.48,0,0,1,.88-3.88,23.88,23.88,0,0,0,1.65-3.75c.27-1,.49-1.67,1.29-1.62l-.13,1.56a8.93,8.93,0,0,0,1.24,3.94,22.9,22.9,0,0,0,2.09,2.6c-.2-1.71-.75-2.92.19-3.65.5-.4,1.09-.7,3.38-.77S155.09,287.17,155.39,287.57Z" style="fill:#455a64"></path><path d="M156.87,310.61c-3.47-.43-8.35-3.57-9.57-6a23.4,23.4,0,0,1-1.06-2.46c.1.15.19.31.27.44s.41.53.62.79a7.65,7.65,0,0,0,3.05,2.45c1.1.41,3.78,1.51,4.84.53a2.16,2.16,0,0,0,.1-2.47c-.18-.36-.76-1.25-.76-1.25a12.75,12.75,0,0,1,3.73-1.57c2.45-.5,2.62-.23,2.62-.23a5.45,5.45,0,0,0,1.25,1.35,4.35,4.35,0,0,0,1.61.75,2.69,2.69,0,0,0,.64,0c1.34,1.45,2.33,2.83,1.92,5.15C165.78,309.65,163.66,311.44,156.87,310.61Z" style="fill:#37474f"></path><path d="M156.42,292.11h0a3,3,0,0,0,.33,1.2,31.28,31.28,0,0,0,2.74,5,4.33,4.33,0,0,1,.75,2,4.24,4.24,0,0,0,0,.87c.08.3.14.37.42.47a1,1,0,0,0,1-.28,1.28,1.28,0,0,0,.16-.77,3,3,0,0,0,0-.52,54.37,54.37,0,0,1-4.13-5.43A13.06,13.06,0,0,1,156.42,292.11Z" style="fill:#37474f"></path><path d="M143.38,288.6a12.6,12.6,0,0,1-1.12-3.25c.07-.22.14-.42.19-.59.27-1,.49-1.67,1.29-1.62l-.13,1.56a10.89,10.89,0,0,0,1.3,3.39c.9,1.41,1.37,2.19,2,3.15,2,3.24,2.33,4.68,4.52,7.46s4.36,3.94,4.15,4.43-1.2.92-3.32-.94-4.59-6.08-5.55-8.29S144.53,290.74,143.38,288.6Z" style="fill:#37474f"></path><path d="M154.21,302.67a.36.36,0,0,0,.2,0,8.38,8.38,0,0,1,6.42-1,.35.35,0,1,0,.13-.69,9,9,0,0,0-6.88,1.08.35.35,0,0,0-.15.47A.34.34,0,0,0,154.21,302.67Z" style="fill:#ebebeb"></path><path d="M152.65,300.44a.48.48,0,0,0,.2,0,9.34,9.34,0,0,1,6.8-1.25.36.36,0,0,0,.1-.71,10.1,10.1,0,0,0-7.25,1.33.35.35,0,0,0-.14.48A.37.37,0,0,0,152.65,300.44Z" style="fill:#ebebeb"></path><path d="M150.7,298.15a.42.42,0,0,0,.21-.06,10.75,10.75,0,0,1,7.6-1.49.39.39,0,1,0,.09-.78,11.49,11.49,0,0,0-8.08,1.58.4.4,0,0,0-.15.54A.41.41,0,0,0,150.7,298.15Z" style="fill:#ebebeb"></path><path d="M149.21,295.53a.5.5,0,0,0,.21,0,10.43,10.43,0,0,1,7.44-1.4.39.39,0,1,0,.1-.77,11.13,11.13,0,0,0-7.91,1.49.38.38,0,0,0-.15.53A.37.37,0,0,0,149.21,295.53Z" style="fill:#ebebeb"></path><path d="M147.76,292.81a.39.39,0,0,0,.21,0c2.51-1.31,4.65-1.53,7.86-1a.39.39,0,0,0,.44-.32A.39.39,0,0,0,156,291c-3.37-.52-5.68-.28-8.34,1.11a.39.39,0,0,0-.17.52A.41.41,0,0,0,147.76,292.81Z" style="fill:#ebebeb"></path></g><g id="freepik--top--inject-86"><path d="M141.41,107a10.92,10.92,0,0,0-4.82-2.28,20.35,20.35,0,0,0-15.19,2.88,10.79,10.79,0,0,0-4.54,6.46,9.38,9.38,0,0,0-.27,2.11c0,.24.14.88,0,1.08s-.57.33-.72.46a8.58,8.58,0,0,0-2.74,3.18,5.34,5.34,0,0,0,.08,4.06,2.24,2.24,0,0,1,.35,1.46c-.22.73-1.19.87-2,.87a3.27,3.27,0,0,0,3.31,0,4.3,4.3,0,0,0-.9,2,2.36,2.36,0,0,0,.73,2c.3.25.68.41,1,.67a2,2,0,0,1,.65,1.09.86.86,0,0,1,0,.45c-.12.34-.52.48-.86.58-1.68.47-3.61,1.47-4,3.38a3.36,3.36,0,0,0,1.14,3.1,1.89,1.89,0,0,0-1.21,1.26,3.16,3.16,0,0,0-.24,1.42,1.69,1.69,0,0,0,.67,1.25c.76.54,1.81.2,2.74.23a3.23,3.23,0,0,0,5.18,3.19,2.84,2.84,0,0,0,4.33.37c-.13.12,1.61.54,1.78.52a16.74,16.74,0,0,0,1.75-.14,4.77,4.77,0,0,0,3.3-2.2,3,3,0,0,0,4-.39c.18-.21.37-.48.65-.49a1,1,0,0,1,.43.12,3.2,3.2,0,0,0,2.84-.27,3.48,3.48,0,0,0,1.08-1c.09-.14.45-1.1.29-1.17a3.64,3.64,0,0,0,2.91.17c.23-.1,2-1.65,1.58-1.73a5.75,5.75,0,0,0,3.34-.09,2.47,2.47,0,0,0,1.59-2.68,5,5,0,0,0,3.3-.52,3.25,3.25,0,0,0,1.67-2.78,5.47,5.47,0,0,0-.86-2.44,3.46,3.46,0,0,0,2.75-5.52,4.14,4.14,0,0,0-1.52-1.23,3.28,3.28,0,0,0-3.87.43,4.48,4.48,0,0,0-1.39-2.83,3.56,3.56,0,0,0-2.28-.56c-.8,0-1.59.22-2.39.27a2.67,2.67,0,0,1-1.48-.24c-2.39-1.35,1.92-4.77.91-5.31a2.09,2.09,0,0,0,3-2.51,1.5,1.5,0,0,1-1.89,1.26,2.06,2.06,0,0,1-1.2-1.55,10.7,10.7,0,0,1-.11-2,9.22,9.22,0,0,0-2.71-6.21Z" style="fill:#263238"></path><path d="M168.1,129.38c-7.5,17.18-9.68,18.72-9.88,24.54-6.14,1.13-12.43-7.8-10-14.75,0,0,8.89-14.5,11.84-22.41-.32-3.89-3.06-20.05-4.74-25.18a3.74,3.74,0,0,0-1.68-2c-2.25-1.33-3.55-3.35-5.24-5.06-1.32-1.32-2.43-1.64-2.27-2.07a2.13,2.13,0,0,1,2.71-1c.8.23,2.88,1.78,3.56,1.94s-.88-2.68-3.21-5.41c-1.33-1.57-2.15-3-2.09-4.48,0-.69.45-1.19,1-1.09a1.4,1.4,0,0,1,.54.26,1.37,1.37,0,0,1,.08-1.38c.46-.77,1.13-.53,1.67-.05l.73.65a1.59,1.59,0,0,1,2,.09c.22.17.72.68.72.68a1.77,1.77,0,0,1,2.48.3,24.8,24.8,0,0,1,3.53,3.46,18.38,18.38,0,0,1,2.1,3.45,16.08,16.08,0,0,1,1.53,3.81c.75,3.7,0,4.3,1.64,8.92,2.59,7.26,5.76,15.61,7.45,23.2C173.59,120.42,170.25,124.46,168.1,129.38Z" style="fill:#c8856a"></path><g id="freepik--chest--inject-86"><path d="M145.22,140.29s-14,2.07-16.49,3.51c-2.3,1.31-4.8,2.6-4.8,2.6-1.11,1.76-4.13,8.85-3.81,15.11.16,3.06,5.5,11.34,6.06,14.83.47,3-1.44,7.75-2.11,13.63,9.67,11.26,37.45,5.63,39.94-8.75a39,39,0,0,1-3.16-9.37,49.15,49.15,0,0,1-.79-9.69s2.73-3.78,2-7.95-2.34-6.36-7-10.13a51.34,51.34,0,0,0-6.79-4.91C147.41,140.53,146.28,140.37,145.22,140.29Z" style="fill:#BA68C8"></path><path d="M151.59,165a7.52,7.52,0,0,1-3.69,3,12.19,12.19,0,0,1-5.3.84,11.62,11.62,0,0,1-4.4-1.11,12.88,12.88,0,0,1-3.82-2.56c-.24-.29-.74-.16-.52.26a9.51,9.51,0,0,0,3.85,3.49,12.16,12.16,0,0,0,5.4,1.29,11.72,11.72,0,0,0,5.74-1.45,5.49,5.49,0,0,0,2.83-3.71S151.64,164.91,151.59,165Z" style="opacity:0.2"></path></g><g id="freepik--head--inject-86"><path d="M129.53,140.39c-.73-3.34-2-7.78-2-7.78,0,.84-2.09,2.72-5.1,1.56-3.46-1.33-3.88-3.57-3.43-5.61.52-2.32,3-3,5.53-1.48,1.77,2.46,2.58-2-.32-3.62.61-2.23,2-3.15-1.13-7.21,6.66.48,9.58-6.56,14.14-5.25,1.53,1.16,2.24,1.32,5.26,6.38,4.24,7.09,5.14,12.21,3.84,14.29-.78,1.24-1.66,1.93-3.89,3.17,0,0,.12.58.6,2.79s1.07,2.34,2.15,2.66c1.77.65,6.74,4.29.6,6.92-8.45,3.61-15.34-1.56-17.09-3.41C129.93,143.11,129.8,141.64,129.53,140.39Z" style="fill:#c8856a"></path><path d="M142.47,134.84c-4,2.07-7.6,2.32-9.55,1.59a9.27,9.27,0,0,1-3.43-2.59s3.06,2.3,6.1,1.53,7.63-3.56,9-4S146.65,132.81,142.47,134.84Z" style="fill:#af6152"></path><path d="M136,127.35l3.6-1a1.84,1.84,0,0,1-1.22,2.36A2,2,0,0,1,136,127.35Z" style="fill:#af6152"></path><path d="M136.65,127.91a2.05,2.05,0,0,1,2.6.18,1.75,1.75,0,0,1-.87.57,1.9,1.9,0,0,1-1.94-.57A1.24,1.24,0,0,1,136.65,127.91Z" style="fill:#ffa8a7"></path><path d="M140.26,115.86l-2.87-.29a1.39,1.39,0,0,1,1.53-1.31A1.52,1.52,0,0,1,140.26,115.86Z" style="fill:#263238"></path><path d="M128.91,121.06l1.49-2.51a1.4,1.4,0,0,0-2,.45A1.54,1.54,0,0,0,128.91,121.06Z" style="fill:#263238"></path><path d="M138.88,118.65a1.24,1.24,0,0,0,1.65.47,1.16,1.16,0,0,0,.48-1.6,1.24,1.24,0,0,0-1.65-.47A1.16,1.16,0,0,0,138.88,118.65Z" style="fill:#263238"></path><path d="M130.86,122a1.23,1.23,0,0,0,1.64.47,1.16,1.16,0,0,0,.48-1.6,1.24,1.24,0,0,0-1.65-.47A1.16,1.16,0,0,0,130.86,122Z" style="fill:#263238"></path><polygon points="141.54 121.66 138.78 125 134.25 118.48 141.54 121.66" style="fill:#af6152"></polygon></g><g id="freepik--Arm--inject-86"><path d="M128.19,162.54c1.66-6-.76-14.78-4.26-16.14a18.41,18.41,0,0,0-5.38,3.69c-4.24,4.76-4.47,13.13-8.19,22.5-3.84-.65-13.35-4.1-18.31-6.22a3.69,3.69,0,0,1-1.85-1.84c-1.14-2.35-3.25-2.76-4.8-4.59-1.21-1.42-1.43-2.55-1.87-2.43a2.13,2.13,0,0,0-1.25,2.61c.16.82,1.52,3,1.63,3.71.06.4-.89-.17-1-.22a14.84,14.84,0,0,1-2.53-1.93,4,4,0,0,0-5-.52,2.46,2.46,0,0,0-1.11,2.66,7.78,7.78,0,0,1,.6,1.32c.08.5-.16,1-.09,1.5.14,1,1.27,1.42,1.82,2.23a5.25,5.25,0,0,1,.47,1,9.23,9.23,0,0,0,6.17,5c3.63,1.06,4.78.89,9.23,2.93,7,3.2,13.08,7.2,18.81,9.43,4.13,1.6,6.62.71,9-4.47C123.43,175.93,125.58,171.48,128.19,162.54Z" style="fill:#c8856a"></path><path d="M83.54,165.14c-.37,2.17,1.87,4.54,3.81,5.59C84.7,170.06,82.61,168.29,83.54,165.14Z" style="fill:#af6152"></path></g><path d="M86.56,169.2c-.69-.78-1.5-2.32-2.4-5.33s-3.3-8.83-4-10.66c-.38-.93-.75-1.42-1.19-1.47s-2.23-.32-2.65-.39-.92.31-1.55,1.11a4.1,4.1,0,0,0-.68,4.69c.74,1.82,3.07,7.75,4.37,10.23a17.86,17.86,0,0,1,2.07,5.75c.14,1.08.38,1.71.77,1.93a.61.61,0,0,0,.24.07l2.64.38c.47.1,1.09-.33,1.86-1.31a5.21,5.21,0,0,0,1.32-3.08A2.74,2.74,0,0,0,86.56,169.2Z" style="fill:#BA68C8"></path><path d="M86,174.2a5.21,5.21,0,0,0,1.32-3.08,2.74,2.74,0,0,0-.77-1.92c-.69-.78-1.5-2.32-2.4-5.33s-3.3-8.83-4-10.66-1.45-2-2.71-.36a4.09,4.09,0,0,0-.68,4.68c.74,1.83,3.07,7.75,4.37,10.24a17.86,17.86,0,0,1,2.07,5.75c.14,1.07.38,1.71.77,1.92S85.13,175.32,86,174.2Z" style="fill:#BA68C8"></path><path d="M86,174.2a5.21,5.21,0,0,0,1.32-3.08,2.74,2.74,0,0,0-.77-1.92c-.69-.78-1.5-2.32-2.4-5.33s-3.3-8.83-4-10.66-1.45-2-2.71-.36a4.09,4.09,0,0,0-.68,4.68c.74,1.83,3.07,7.75,4.37,10.24a17.86,17.86,0,0,1,2.07,5.75c.14,1.07.38,1.71.77,1.92S85.13,175.32,86,174.2Z" style="fill:#fff;opacity:0.2"></path><path d="M60.06,94.19c3.23,1,6.44,4.54,8.71,10.18,4.1,10.19,3.56,23.38-1.21,29.47a7,7,0,0,1-5.29,3c2.61.81,5.22,0,7.35-2.74,4.77-6.09,5.31-19.29,1.21-29.48C68.08,97.82,63.93,94.07,60.06,94.19Z" style="fill:#263238"></path><path d="M68.52,133.94a.13.13,0,0,1-.12-.08L53.55,97a.12.12,0,0,1,.07-.16.11.11,0,0,1,.16.07l14.86,36.91a.14.14,0,0,1-.07.16Z" style="fill:#e0e0e0"></path><path d="M69.46,132.56a.14.14,0,0,1-.12-.07L54.58,95.81a.14.14,0,0,1,.07-.16.12.12,0,0,1,.16.07l14.76,36.67a.11.11,0,0,1-.07.16Z" style="fill:#e0e0e0"></path><path d="M70.29,131a.12.12,0,0,1-.11-.08L55.71,94.92a.12.12,0,0,1,.07-.16.11.11,0,0,1,.16.07l14.47,35.94a.13.13,0,0,1-.07.17Z" style="fill:#e0e0e0"></path><path d="M71,129.07a.13.13,0,0,1-.12-.08l-14-34.7a.13.13,0,0,1,.07-.16.13.13,0,0,1,.17.06l14,34.71a.12.12,0,0,1-.07.16Z" style="fill:#e0e0e0"></path><path d="M71.64,126.9a.13.13,0,0,1-.12-.08L58.3,94a.11.11,0,0,1,.07-.16.12.12,0,0,1,.16.07l13.23,32.86a.14.14,0,0,1-.07.17Z" style="fill:#e0e0e0"></path><path d="M72.12,124.38a.13.13,0,0,1-.12-.08L59.79,94a.12.12,0,0,1,.07-.16.14.14,0,0,1,.16.07l12.21,30.35a.11.11,0,0,1-.07.16Z" style="fill:#e0e0e0"></path><path d="M72.42,121.43a.13.13,0,0,1-.12-.08L61.45,94.4a.13.13,0,1,1,.24-.1l10.84,27a.12.12,0,0,1-.07.16Z" style="fill:#e0e0e0"></path><path d="M72.46,117.84a.12.12,0,0,1-.11-.08l-9-22.29a.14.14,0,0,1,.07-.16.13.13,0,0,1,.17.07l9,22.29a.12.12,0,0,1-.07.16Z" style="fill:#e0e0e0"></path><path d="M72,113.07a.13.13,0,0,1-.12-.08L65.78,97.74a.11.11,0,0,1,.07-.16.12.12,0,0,1,.16.07l6.14,15.24a.14.14,0,0,1-.07.17Z" style="fill:#e0e0e0"></path><path d="M67.49,135.07a.14.14,0,0,1-.12-.07L52.61,98.32a.14.14,0,0,1,.07-.16.13.13,0,0,1,.17.07L67.61,134.9a.14.14,0,0,1-.07.17Z" style="fill:#e0e0e0"></path><path d="M66.36,136a.13.13,0,0,1-.12-.08L51.78,99.94a.11.11,0,0,1,.07-.16.12.12,0,0,1,.16.07l14.47,36a.14.14,0,0,1-.07.16Z" style="fill:#e0e0e0"></path><path d="M65.13,136.6a.13.13,0,0,1-.12-.08l-14-34.7a.13.13,0,0,1,.07-.16.12.12,0,0,1,.17.07l14,34.7a.12.12,0,0,1-.07.16Z" style="fill:#e0e0e0"></path><path d="M63.77,136.94a.13.13,0,0,1-.11-.08L50.43,104a.12.12,0,0,1,.07-.16.11.11,0,0,1,.16.07l13.23,32.87a.12.12,0,0,1-.07.16Z" style="fill:#e0e0e0"></path><path d="M62.28,136.93a.12.12,0,0,1-.11-.08L50,106.51a.13.13,0,1,1,.24-.1L62.4,136.76a.12.12,0,0,1-.07.16Z" style="fill:#e0e0e0"></path><path d="M60.62,136.49a.13.13,0,0,1-.12-.08L49.65,109.46a.13.13,0,0,1,.07-.16.12.12,0,0,1,.17.07l10.84,26.95a.11.11,0,0,1-.07.16Z" style="fill:#e0e0e0"></path><path d="M58.7,135.42a.13.13,0,0,1-.12-.08l-9-22.3a.12.12,0,0,1,.07-.16.13.13,0,0,1,.16.07l9,22.29a.12.12,0,0,1-.07.17Z" style="fill:#e0e0e0"></path><path d="M56.3,133.15a.13.13,0,0,1-.12-.08L50,117.82a.14.14,0,0,1,.07-.16.12.12,0,0,1,.16.07L56.41,133a.12.12,0,0,1-.07.16Z" style="fill:#e0e0e0"></path><path d="M52,125.33l-.08,0a.13.13,0,0,1,0-.18l17.25-22a.12.12,0,0,1,.18,0,.12.12,0,0,1,0,.17l-17.26,22A.1.1,0,0,1,52,125.33Z" style="fill:#e0e0e0"></path><path d="M51.36,123.35l-.08,0a.14.14,0,0,1,0-.18l17-21.75a.13.13,0,0,1,.18,0,.12.12,0,0,1,0,.17l-17,21.76A.13.13,0,0,1,51.36,123.35Z" style="fill:#e0e0e0"></path><path d="M50.81,121.28a.11.11,0,0,1-.08,0,.14.14,0,0,1,0-.18L67.37,99.81a.13.13,0,0,1,.18,0,.14.14,0,0,1,0,.18L50.91,121.23A.14.14,0,0,1,50.81,121.28Z" style="fill:#e0e0e0"></path><path d="M50.35,119.08a.11.11,0,0,1-.07,0,.12.12,0,0,1,0-.17L66.36,98.32a.12.12,0,0,1,.17,0,.13.13,0,0,1,0,.18L50.45,119A.12.12,0,0,1,50.35,119.08Z" style="fill:#e0e0e0"></path><path d="M50,116.75a.11.11,0,0,1-.07,0,.12.12,0,0,1,0-.17L65.23,97a.12.12,0,0,1,.17,0,.13.13,0,0,1,0,.18L50.1,116.7A.12.12,0,0,1,50,116.75Z" style="fill:#e0e0e0"></path><path d="M49.78,114.26a.11.11,0,0,1-.08,0,.12.12,0,0,1,0-.17L64,95.8a.12.12,0,0,1,.17,0,.13.13,0,0,1,0,.18l-14.3,18.25A.14.14,0,0,1,49.78,114.26Z" style="fill:#e0e0e0"></path><path d="M49.71,111.56a.11.11,0,0,1-.07,0,.11.11,0,0,1,0-.17l13-16.54a.12.12,0,0,1,.17,0,.12.12,0,0,1,0,.18l-13,16.54A.12.12,0,0,1,49.71,111.56Z" style="fill:#e0e0e0"></path><path d="M49.84,108.63a.11.11,0,0,1-.08,0,.11.11,0,0,1,0-.17L61,94.09a.12.12,0,0,1,.17,0,.12.12,0,0,1,0,.18L49.93,108.58A.12.12,0,0,1,49.84,108.63Z" style="fill:#e0e0e0"></path><path d="M50.29,105.27a.13.13,0,0,1-.08,0,.12.12,0,0,1,0-.17L59,93.78a.14.14,0,0,1,.18,0,.14.14,0,0,1,0,.18l-8.84,11.28A.14.14,0,0,1,50.29,105.27Z" style="fill:#e0e0e0"></path><path d="M51.54,100.89a.11.11,0,0,1-.07,0,.11.11,0,0,1,0-.17l4.89-6.25a.13.13,0,1,1,.2.16l-4.9,6.24A.12.12,0,0,1,51.54,100.89Z" style="fill:#e0e0e0"></path><path d="M52.72,127.17a.11.11,0,0,1-.07,0,.12.12,0,0,1,0-.18l17.25-22a.13.13,0,1,1,.2.16l-17.26,22A.12.12,0,0,1,52.72,127.17Z" style="fill:#e0e0e0"></path><path d="M53.53,128.91l-.07,0a.12.12,0,0,1,0-.18l17.12-21.86a.13.13,0,0,1,.2.16L53.63,128.86A.1.1,0,0,1,53.53,128.91Z" style="fill:#e0e0e0"></path><path d="M54.44,130.53a.12.12,0,0,1-.08,0,.14.14,0,0,1,0-.18L71.13,108.9a.13.13,0,1,1,.2.16L54.54,130.49A.13.13,0,0,1,54.44,130.53Z" style="fill:#e0e0e0"></path><path d="M55.45,132a.11.11,0,0,1-.07,0,.12.12,0,0,1,0-.17L71.6,111.08a.14.14,0,0,1,.18,0,.12.12,0,0,1,0,.17L55.55,132A.12.12,0,0,1,55.45,132Z" style="fill:#e0e0e0"></path><path d="M56.55,133.4a.11.11,0,0,1-.08,0,.12.12,0,0,1,0-.17L72,113.38a.12.12,0,0,1,.17,0,.11.11,0,0,1,0,.17L56.65,133.35A.16.16,0,0,1,56.55,133.4Z" style="fill:#e0e0e0"></path><path d="M57.76,134.63l-.08,0a.14.14,0,0,1,0-.18l14.59-18.62a.12.12,0,0,1,.18,0,.12.12,0,0,1,0,.17L57.86,134.59A.13.13,0,0,1,57.76,134.63Z" style="fill:#e0e0e0"></path><path d="M59.13,135.67a.11.11,0,0,1-.08,0,.13.13,0,0,1,0-.18l13.34-17a.13.13,0,1,1,.2.16l-13.35,17A.12.12,0,0,1,59.13,135.67Z" style="fill:#e0e0e0"></path><path d="M60.63,136.52l-.08,0a.14.14,0,0,1,0-.18l11.8-15.06a.14.14,0,0,1,.18,0,.12.12,0,0,1,0,.17l-11.8,15.06A.1.1,0,0,1,60.63,136.52Z" style="fill:#e0e0e0"></path><path d="M62.49,136.93l-.08,0a.14.14,0,0,1,0-.18L72,124.52a.13.13,0,1,1,.2.16l-9.56,12.21A.14.14,0,0,1,62.49,136.93Z" style="fill:#e0e0e0"></path><path d="M64.88,136.66a.11.11,0,0,1-.08,0,.12.12,0,0,1,0-.17l6.3-8a.12.12,0,0,1,.17,0,.11.11,0,0,1,0,.17l-6.29,8A.14.14,0,0,1,64.88,136.66Z" style="fill:#e0e0e0"></path><path d="M74.06,149.27c-2.94-4.42-7.57-8.86-11.93-10.32-3.57-1-7.1-4.81-9.58-11-4.46-11.09-3.76-25.58,1.57-32.38,1.82-2.32,3.94-3.44,6.13-3.47h0c-2.89-.85-5.8.13-8.19,3.18-5.33,6.79-6,21.29-1.57,32.38,2.48,6.14,6,10,9.58,11,4.36,1.46,9,5.9,11.93,10.32a20.77,20.77,0,0,1,2,3.85l.33.8,2.06.29h0l-.33-.8A20.77,20.77,0,0,0,74.06,149.27Z" style="fill:#37474f"></path><path d="M72.93,130.78A20.06,20.06,0,0,1,71.48,134h0a90.82,90.82,0,0,0,1.42,11.41c.5.62,1,1.24,1.4,1.86s.94-.17.77-1A93.67,93.67,0,0,1,73.38,131C73.37,130.55,73.06,130.42,72.93,130.78Z" style="fill:#263238"></path><path d="M54.12,95.61c-5.33,6.8-6,21.29-1.57,32.38,2.48,6.15,6,10,9.58,11,4.36,1.46,9,5.9,11.93,10.32a20.77,20.77,0,0,1,2,3.85l.33.8,1.6-2-.33-.81a29.12,29.12,0,0,1-1.41-4.6,87.15,87.15,0,0,1-1.65-23.43,43.29,43.29,0,0,0-2.75-19.67C67.37,92.29,59.44,88.81,54.12,95.61ZM73.38,131a93.67,93.67,0,0,0,1.69,15.25c.17.82-.39,1.53-.77,1a32.58,32.58,0,0,0-7.57-7.75c-.22-.16-.19-.73,0-.83a9.37,9.37,0,0,0,3.5-2.89,17.78,17.78,0,0,0,2.66-5C73.06,130.42,73.37,130.55,73.38,131Zm-3.76,3.16c-4.77,6.08-12,2.76-16.06-7.43S50,103.31,54.77,97.23s12-2.76,16.06,7.43S74.39,128.05,69.62,134.14Z" style="fill:#455a64"></path><path d="M74.81,160.65c.27-.5.53-1,.82-1.49a1.26,1.26,0,0,1,.36-.43,1.15,1.15,0,0,1,.69-.09,10.06,10.06,0,0,1,4,1.26.42.42,0,0,1,.15.11.46.46,0,0,1-.05.54,1.18,1.18,0,0,1-.61.46c-.55.2,0,.42.3.58l1.36.84a1,1,0,0,1,.22.18.52.52,0,0,1,.08.51,1,1,0,0,1-.29.45,1.4,1.4,0,0,1-1.12.45,18.3,18.3,0,0,1,1.5,1.55,2,2,0,0,1,.37.53.71.71,0,0,1,0,.62.85.85,0,0,1-.3.26,1.59,1.59,0,0,1-.73.22c.12,0,.07.81,0,.9a1.37,1.37,0,0,1-.4.76c-.47.37-1,.67-1.13,1.3a4,4,0,0,1-.11.52.44.44,0,0,1-.38.32.61.61,0,0,1-.41-.26,10.11,10.11,0,0,1-1.79-2.53c-.56-1.21-.84-2.4-2-3.26a4.18,4.18,0,0,1-1-.93,2,2,0,0,1-.26-1.3A5.87,5.87,0,0,1,74.81,160.65Z" style="fill:#c8856a"></path></g></g></g><g id="freepik--speech-bubble--inject-86"><g id="freepik--speech-bubble--inject-86"><g id="freepik--speech-bubble--inject-86"><path d="M356.43,112.73a24.33,24.33,0,0,1,11.13,14l.66,2.71a24.38,24.38,0,0,1-47,12.6l-.79-2.68a24.39,24.39,0,0,1,35.95-26.68Z" style="fill:#fff"></path><path d="M321.28,120.68a26.47,26.47,0,0,0,43.39,30l8.13,1.25a1.54,1.54,0,0,0,1.43-2.49l-5.17-6.4a26.47,26.47,0,0,0-47.78-22.37Zm35.11-8a24.28,24.28,0,0,1,11.16,14l.66,2.72a24.38,24.38,0,0,1-46.92,12.67l-.8-2.67a24.39,24.39,0,0,1,35.9-26.74Z" style="fill:#455a64"></path></g><path d="M338.37,125.61c1,.16,1.95.4,2.88.63a14.44,14.44,0,0,0,6.37.59,6.93,6.93,0,0,0,5.64-5.21,15.21,15.21,0,0,0-23.17,6.63A9.62,9.62,0,0,1,338.37,125.61Zm12.54,12.72a13.7,13.7,0,0,0-4.42,4.22c-.53.71-1.09,1.43-1.74,2.15a9.14,9.14,0,0,1-6.59,3.13,15.23,15.23,0,0,0,20.38-8.76C355.77,137.31,353.21,137.06,350.91,138.33Zm4-15.26a8.8,8.8,0,0,1-6.95,5.81,16.41,16.41,0,0,1-7.24-.63c-.93-.23-1.8-.45-2.7-.58-3.47-.54-6.43,1.1-9,5a11.52,11.52,0,0,0-.05,1.18,15.17,15.17,0,0,0,5.14,11.4c5.23,1.38,7.66-.41,9.06-2,.6-.66,1.12-1.35,1.63-2a15.53,15.53,0,0,1,5.07-4.77c2.82-1.56,6-1.39,9.21.48a14.71,14.71,0,0,0,.33-3.13A15.1,15.1,0,0,0,354.94,123.07Z" style="fill:#e0e0e0"></path></g></g><g id="freepik--racket--inject-86"><g id="freepik--racquet--inject-86"><path d="M40.38,362.21c1.51,1.78,4.68,4.05,11,7S70,379.3,73.79,381.5c1.95,1.13,2.93,2.1,2.9,3.09s0,5,0,6-1,1.94-2.94,3.09c-4,2.29-6.78,2.22-10.6,0S47,384.47,41.86,380.79s-9-5.51-12.1-6.38c-2.34-.66-3.66-1.39-4-2.31a1.49,1.49,0,0,1-.1-.55c0-1,0-5.81,0-6-.06-1.09,1.08-2.32,3.5-3.72,2.77-1.6,5.16-2.23,7.24-2A6.09,6.09,0,0,1,40.38,362.21Z" style="fill:#BA68C8"></path><path d="M29.13,361.86c2.77-1.6,5.16-2.23,7.24-2a6.09,6.09,0,0,1,4,2.31c1.51,1.78,4.68,4.05,11,7S70,379.3,73.79,381.5s3.93,3.83,0,6.12-6.78,2.23-10.6,0-16.21-9.23-21.3-12.91-9-5.51-12.11-6.38c-2.33-.66-3.65-1.4-4-2.32C25.27,364.84,26.36,363.46,29.13,361.86Z" style="fill:#BA68C8"></path><path d="M29.13,361.86c2.77-1.6,5.16-2.23,7.24-2a6.09,6.09,0,0,1,4,2.31c1.51,1.78,4.68,4.05,11,7S70,379.3,73.79,381.5s3.93,3.83,0,6.12-6.78,2.23-10.6,0-16.21-9.23-21.3-12.91-9-5.51-12.11-6.38c-2.33-.66-3.65-1.4-4-2.32C25.27,364.84,26.36,363.46,29.13,361.86Z" style="fill:#fff;opacity:0.2"></path><path d="M198.29,444.53c-1.22-7.47-8-15.7-19.82-22.5-21.29-12.3-50.71-15.25-65.7-6.6-4.93,2.85-7.68,6.6-8.4,10.79-1-6,1.69-11.57,8.39-15.44,15-8.66,44.41-5.71,65.71,6.59C192.77,425.62,199.76,436,198.29,444.53Z" style="fill:#263238"></path><path d="M190.26,458.12a.22.22,0,0,1-.13,0L113,413.55a.26.26,0,0,1-.1-.36.27.27,0,0,1,.37-.1l77.13,44.53a.26.26,0,0,1,.09.36A.25.25,0,0,1,190.26,458.12Z" style="fill:#e0e0e0"></path><path d="M193.11,456.19a.23.23,0,0,1-.14,0l-76.63-44.24a.27.27,0,0,1-.1-.37.27.27,0,0,1,.37-.09l76.63,44.24a.27.27,0,0,1,.1.37A.28.28,0,0,1,193.11,456.19Z" style="fill:#e0e0e0"></path><path d="M195.44,454a.2.2,0,0,1-.13,0l-75.12-43.37a.26.26,0,0,1-.1-.36.26.26,0,0,1,.36-.1l75.12,43.37a.26.26,0,0,1,.1.36A.27.27,0,0,1,195.44,454Z" style="fill:#e0e0e0"></path><path d="M197.23,451.43a.35.35,0,0,1-.14,0l-72.51-41.87a.27.27,0,1,1,.27-.46l72.51,41.86a.27.27,0,0,1,.1.37A.28.28,0,0,1,197.23,451.43Z" style="fill:#e0e0e0"></path><path d="M198.4,448.54a.31.31,0,0,1-.13,0l-68.68-39.66a.27.27,0,1,1,.27-.46L198.54,448a.27.27,0,0,1,.1.37A.28.28,0,0,1,198.4,448.54Z" style="fill:#e0e0e0"></path><path d="M198.86,445.24a.22.22,0,0,1-.13,0l-63.42-36.61a.27.27,0,1,1,.27-.47L199,444.74a.26.26,0,0,1,.09.36A.27.27,0,0,1,198.86,445.24Z" style="fill:#e0e0e0"></path><path d="M198.41,441.4a.32.32,0,0,1-.14,0L142,408.85a.27.27,0,0,1-.1-.37.26.26,0,0,1,.37-.09l56.32,32.51a.28.28,0,0,1,.1.37A.26.26,0,0,1,198.41,441.4Z" style="fill:#e0e0e0"></path><path d="M196.63,436.81a.23.23,0,0,1-.14,0l-46.58-26.89a.27.27,0,1,1,.27-.47l46.58,26.9a.27.27,0,0,1-.13.5Z" style="fill:#e0e0e0"></path><path d="M192.36,430.77a.32.32,0,0,1-.14,0l-31.86-18.4a.26.26,0,0,1-.1-.36.27.27,0,0,1,.37-.1l31.86,18.39a.27.27,0,0,1-.13.5Z" style="fill:#e0e0e0"></path><path d="M186.92,459.76a.22.22,0,0,1-.13,0l-76.63-44.24a.27.27,0,1,1,.27-.47l76.63,44.25a.26.26,0,0,1,.1.36A.27.27,0,0,1,186.92,459.76Z" style="fill:#e0e0e0"></path><path d="M183.08,461.11a.25.25,0,0,1-.14,0L107.82,417.7a.27.27,0,0,1-.09-.37.26.26,0,0,1,.36-.09l75.12,43.37a.26.26,0,0,1,.1.36A.27.27,0,0,1,183.08,461.11Z" style="fill:#e0e0e0"></path><path d="M178.68,462.14a.22.22,0,0,1-.13,0L106,420.24a.27.27,0,0,1-.1-.37.26.26,0,0,1,.36-.1l72.52,41.87a.26.26,0,0,1,.09.36A.27.27,0,0,1,178.68,462.14Z" style="fill:#e0e0e0"></path><path d="M173.68,462.82a.23.23,0,0,1-.14,0l-68.68-39.65a.27.27,0,1,1,.27-.47l68.68,39.66a.27.27,0,0,1-.13.5Z" style="fill:#e0e0e0"></path><path d="M168,463.08a.31.31,0,0,1-.13,0L104.4,426.43a.26.26,0,0,1-.1-.36.27.27,0,0,1,.37-.1l63.42,36.61a.29.29,0,0,1,.1.37A.28.28,0,0,1,168,463.08Z" style="fill:#e0e0e0"></path><path d="M161.31,462.82a.22.22,0,0,1-.13,0l-56.32-32.51a.27.27,0,1,1,.27-.47l56.32,32.52a.26.26,0,0,1,.1.36A.27.27,0,0,1,161.31,462.82Z" style="fill:#e0e0e0"></path><path d="M153.35,461.79a.31.31,0,0,1-.13,0l-46.58-26.9a.27.27,0,0,1-.1-.37.26.26,0,0,1,.36-.09l46.59,26.89a.27.27,0,0,1-.14.5Z" style="fill:#e0e0e0"></path><path d="M142.9,459.32a.28.28,0,0,1-.13,0L110.91,440.9a.28.28,0,0,1-.1-.37.26.26,0,0,1,.36-.1L143,458.82a.27.27,0,0,1,.1.37A.26.26,0,0,1,142.9,459.32Z" style="fill:#e0e0e0"></path><path d="M127,452.94a.27.27,0,0,1-.14-.5l54.24-31.31a.26.26,0,1,1,.26.46L127.14,452.9A.22.22,0,0,1,127,452.94Z" style="fill:#e0e0e0"></path><path d="M131.2,455a.28.28,0,0,1-.24-.13.27.27,0,0,1,.1-.37l53.57-30.93a.26.26,0,0,1,.36.1.27.27,0,0,1-.09.37l-53.57,30.92A.22.22,0,0,1,131.2,455Z" style="fill:#e0e0e0"></path><path d="M135.62,456.82a.27.27,0,0,1-.13-.5l52.38-30.24a.26.26,0,0,1,.36.1.27.27,0,0,1-.1.37l-52.37,30.24A.32.32,0,0,1,135.62,456.82Z" style="fill:#e0e0e0"></path><path d="M140.35,458.52a.26.26,0,0,1-.24-.13.28.28,0,0,1,.1-.37l50.62-29.22a.27.27,0,1,1,.27.46l-50.62,29.23A.31.31,0,0,1,140.35,458.52Z" style="fill:#e0e0e0"></path><path d="M145.4,460a.27.27,0,0,1-.13-.5l48.16-27.8a.26.26,0,0,1,.36.1.25.25,0,0,1-.1.36L145.54,460A.32.32,0,0,1,145.4,460Z" style="fill:#e0e0e0"></path><path d="M150.85,461.32a.27.27,0,0,1-.23-.14.26.26,0,0,1,.1-.36l44.95-26a.27.27,0,0,1,.27.47L151,461.28A.25.25,0,0,1,150.85,461.32Z" style="fill:#e0e0e0"></path><path d="M156.81,462.3a.26.26,0,0,1-.23-.13.28.28,0,0,1,.1-.37l40.74-23.52a.26.26,0,0,1,.36.1.27.27,0,0,1-.1.37L157,462.27A.35.35,0,0,1,156.81,462.3Z" style="fill:#e0e0e0"></path><path d="M163.35,463a.27.27,0,0,1-.23-.14.26.26,0,0,1,.1-.36l35.3-20.38a.26.26,0,0,1,.36.1.26.26,0,0,1-.1.36l-35.3,20.38A.2.2,0,0,1,163.35,463Z" style="fill:#e0e0e0"></path><path d="M170.93,463a.27.27,0,0,1-.13-.5l27.8-16.05a.26.26,0,0,1,.36.1.25.25,0,0,1-.1.36L171.07,463A.23.23,0,0,1,170.93,463Z" style="fill:#e0e0e0"></path><path d="M181,461.6a.26.26,0,0,1-.24-.13.28.28,0,0,1,.1-.37l15.38-8.88a.27.27,0,0,1,.27.47l-15.38,8.88A.31.31,0,0,1,181,461.6Z" style="fill:#e0e0e0"></path><path d="M123.17,450.73a.27.27,0,0,1-.23-.14.26.26,0,0,1,.1-.36l54.23-31.32a.27.27,0,1,1,.27.47l-54.23,31.31A.37.37,0,0,1,123.17,450.73Z" style="fill:#e0e0e0"></path><path d="M119.56,448.38a.28.28,0,0,1-.23-.13.27.27,0,0,1,.1-.37l53.82-31.07a.27.27,0,1,1,.27.46l-53.83,31.08A.28.28,0,0,1,119.56,448.38Z" style="fill:#e0e0e0"></path><path d="M116.25,445.86a.26.26,0,0,1-.23-.13.27.27,0,0,1,.1-.37l52.77-30.46a.26.26,0,0,1,.26.46l-52.77,30.47A.28.28,0,0,1,116.25,445.86Z" style="fill:#e0e0e0"></path><path d="M113.27,443.15A.26.26,0,0,1,113,443a.28.28,0,0,1,.1-.37l51.07-29.48a.27.27,0,0,1,.37.1.26.26,0,0,1-.1.36l-51.07,29.49A.32.32,0,0,1,113.27,443.15Z" style="fill:#e0e0e0"></path><path d="M110.56,440.29a.28.28,0,0,1-.23-.13.27.27,0,0,1,.1-.37l48.81-28.18a.26.26,0,0,1,.36.1.27.27,0,0,1-.1.37l-48.81,28.18A.28.28,0,0,1,110.56,440.29Z" style="fill:#e0e0e0"></path><path d="M108.21,437.22a.28.28,0,0,1-.23-.13.27.27,0,0,1,.09-.37l45.87-26.48a.26.26,0,0,1,.36.1.27.27,0,0,1-.1.37l-45.86,26.48A.31.31,0,0,1,108.21,437.22Z" style="fill:#e0e0e0"></path><path d="M106.35,433.87a.27.27,0,0,1-.23-.14.25.25,0,0,1,.1-.36l41.94-24.22a.28.28,0,0,1,.37.1.26.26,0,0,1-.1.36l-41.95,24.22A.28.28,0,0,1,106.35,433.87Z" style="fill:#e0e0e0"></path><path d="M104.93,430.26a.28.28,0,0,1-.24-.13.27.27,0,0,1,.1-.37l37.09-21.41a.27.27,0,1,1,.27.46l-37.09,21.41A.22.22,0,0,1,104.93,430.26Z" style="fill:#e0e0e0"></path><path d="M104.6,426a.28.28,0,0,1-.23-.13.27.27,0,0,1,.09-.37l30.07-17.36a.27.27,0,0,1,.27.47L104.73,426A.22.22,0,0,1,104.6,426Z" style="fill:#e0e0e0"></path><path d="M106,420.81a.27.27,0,0,1-.23-.14.26.26,0,0,1,.09-.36l19.8-11.43a.27.27,0,0,1,.37.1.26.26,0,0,1-.1.36l-19.8,11.43A.33.33,0,0,1,106,420.81Z" style="fill:#e0e0e0"></path><path d="M80.62,396.18c8.86,7.91,17.25,19.57,19.12,29.68,1.11,8.24,8.43,17.26,21.28,24.68,23.17,13.37,55.51,16.38,72.25,6.71,5.72-3.3,8.87-7.65,9.62-12.49h0c1,6.67-2.12,12.82-9.62,17.15-16.74,9.66-49.08,6.66-72.25-6.71-12.85-7.42-20.16-16.44-21.28-24.68-1.87-10.11-10.26-21.77-19.11-29.68a47.9,47.9,0,0,0-7.92-5.63l-1.67-1v-4.66h0l1.67,1A47.38,47.38,0,0,1,80.62,396.18Z" style="fill:#37474f"></path><path d="M121.25,404.5a45.94,45.94,0,0,0-7.5,2.23h0A203.6,203.6,0,0,1,88.91,400q-1.8-1.94-3.66-3.69c-1.09-1,.67-2,2.43-1.4A206.21,206.21,0,0,0,121,403.43C121.88,403.59,122.09,404.32,121.25,404.5Z" style="fill:#263238"></path><path d="M181.63,415.54a96.85,96.85,0,0,0-42.75-12.29,195.1,195.1,0,0,1-51.4-11,64.91,64.91,0,0,1-9.75-4.57l-1.67-1-5,2.89,1.67,1a47.38,47.38,0,0,1,7.91,5.63c8.86,7.91,17.25,19.57,19.12,29.68,1.11,8.24,8.43,17.26,21.28,24.68,23.17,13.37,55.51,16.38,72.25,6.71S204.8,428.92,181.63,415.54Zm-60.38-11a40.46,40.46,0,0,0-11.87,4.33,21.09,21.09,0,0,0-7.49,6.85c-.31.48-1.57.36-1.85-.17a73.37,73.37,0,0,0-14.79-19.22c-1.09-1,.67-2,2.43-1.4A206.21,206.21,0,0,0,121,403.43C121.88,403.59,122.09,404.32,121.25,404.5Zm57.22,12.87c21.3,12.3,26.42,29.28,11.42,37.94s-44.41,5.7-65.71-6.6-26.41-29.28-11.42-37.93S157.17,405.07,178.47,417.37Z" style="fill:#455a64"></path></g></g></svg>