<svg xmlns="http://www.w3.org/2000/svg" viewBox="0 0 500 500"><g id="freepik--Audience--inject-125"><g id="freepik--Stadium--inject-125"><g id="freepik--Puck--inject-125"><path d="M35.28,107.06a1.28,1.28,0,0,0-.75-1,4,4,0,0,0-3.65,0,1.28,1.28,0,0,0-.75,1V281.34a1.28,1.28,0,0,0,.75,1.06,4,4,0,0,0,3.65,0,1.28,1.28,0,0,0,.75-1.06Z" style="fill:#e0e0e0"></path><path d="M30.88,106a1.28,1.28,0,0,0-.75,1,1.3,1.3,0,0,0,.75,1.06,4,4,0,0,0,3.65,0,1.3,1.3,0,0,0,.75-1.06,1.28,1.28,0,0,0-.75-1A4,4,0,0,0,30.88,106Z" style="fill:#f0f0f0"></path></g><g id="freepik--puck--inject-125"><path d="M116.34,58.3a1.28,1.28,0,0,0-.75-1,4,4,0,0,0-3.65,0,1.28,1.28,0,0,0-.75,1V232.58a1.29,1.29,0,0,0,.75,1.06,4,4,0,0,0,3.65,0,1.29,1.29,0,0,0,.75-1.06Z" style="fill:#e0e0e0"></path><path d="M111.94,57.25a1.11,1.11,0,0,0,0,2.1,4,4,0,0,0,3.65,0,1.11,1.11,0,0,0,0-2.1A4,4,0,0,0,111.94,57.25Z" style="fill:#f0f0f0"></path></g><g id="freepik--puck--inject-125"><path d="M202.42,35.15a1.28,1.28,0,0,0-.75-1,4,4,0,0,0-3.65,0,1.28,1.28,0,0,0-.75,1V209.43a1.29,1.29,0,0,0,.75,1.06,4,4,0,0,0,3.65,0,1.29,1.29,0,0,0,.75-1.06Z" style="fill:#e0e0e0"></path><path d="M198,34.1a1.11,1.11,0,0,0,0,2.1,4,4,0,0,0,3.65,0,1.11,1.11,0,0,0,0-2.1A4,4,0,0,0,198,34.1Z" style="fill:#f0f0f0"></path></g><g id="freepik--puck--inject-125"><path d="M462.05,107.06a1.27,1.27,0,0,1,.76-1,4,4,0,0,1,3.64,0,1.29,1.29,0,0,1,.76,1V281.34a1.29,1.29,0,0,1-.76,1.06,4,4,0,0,1-3.64,0,1.27,1.27,0,0,1-.76-1.06Z" style="fill:#e0e0e0"></path><path d="M466.45,106a1.29,1.29,0,0,1,.76,1,1.32,1.32,0,0,1-.76,1.06,4,4,0,0,1-3.64,0,1.3,1.3,0,0,1-.76-1.06,1.27,1.27,0,0,1,.76-1A4,4,0,0,1,466.45,106Z" style="fill:#f0f0f0"></path></g><g id="freepik--puck--inject-125"><path d="M381,58.3a1.28,1.28,0,0,1,.75-1,4,4,0,0,1,3.65,0,1.28,1.28,0,0,1,.75,1V232.58a1.29,1.29,0,0,1-.75,1.06,4,4,0,0,1-3.65,0,1.29,1.29,0,0,1-.75-1.06Z" style="fill:#e0e0e0"></path><path d="M385.39,57.25a1.11,1.11,0,0,1,0,2.1,4,4,0,0,1-3.65,0,1.11,1.11,0,0,1,0-2.1A4,4,0,0,1,385.39,57.25Z" style="fill:#f0f0f0"></path></g><g id="freepik--puck--inject-125"><path d="M294.91,35.15a1.28,1.28,0,0,1,.75-1,4,4,0,0,1,3.65,0,1.28,1.28,0,0,1,.75,1V209.43a1.29,1.29,0,0,1-.75,1.06,4,4,0,0,1-3.65,0,1.29,1.29,0,0,1-.75-1.06Z" style="fill:#e0e0e0"></path><path d="M299.31,34.1a1.11,1.11,0,0,1,0,2.1,4,4,0,0,1-3.65,0,1.11,1.11,0,0,1,0-2.1A4,4,0,0,1,299.31,34.1Z" style="fill:#f0f0f0"></path></g><path d="M488.55,244.22c-12.39-18.23-31.83-35.33-58.33-50-99.53-55.12-260.91-55.13-360.44,0-26.5,14.68-45.94,31.78-58.33,50v92.22h477.1Z" style="fill:#fafafa"></path><path d="M488.55,246.27a2,2,0,0,1-1.69-.9c-12.62-18.57-32-35.18-57.63-49.36-98.83-54.73-259.63-54.73-358.46,0-25.62,14.18-45,30.79-57.63,49.36a2,2,0,0,1-3.38-2.3c13-19.11,32.84-36.15,59-50.65,99.93-55.33,262.51-55.33,362.44,0,26.18,14.5,46,31.54,59,50.65a2,2,0,0,1-.54,2.85A2,2,0,0,1,488.55,246.27Z" style="fill:#e0e0e0"></path><path d="M488.55,140.5a.5.5,0,0,1-.42-.22c-12.76-18.77-32.32-35.54-58.15-49.85-99.24-55-260.72-55-360,0-25.83,14.31-45.39,31.08-58.15,49.85a.51.51,0,1,1-.84-.58c12.84-18.9,32.52-35.78,58.5-50.16C169,34.43,331,34.43,430.47,89.54c26,14.38,45.66,31.26,58.5,50.16a.52.52,0,0,1-.13.72A.51.51,0,0,1,488.55,140.5Z" style="fill:#e0e0e0"></path></g><g id="freepik--People--inject-125" style="opacity:0.6000000000000001"><circle cx="368.48" cy="92.53" r="5.95" style="fill:#e6e6e6"></circle><circle cx="303.27" cy="69.75" r="5.95" style="fill:#f0f0f0"></circle><circle cx="367.13" cy="110.38" r="5.95" style="fill:#f0f0f0"></circle><circle cx="353.73" cy="156.35" r="5.95" style="fill:#f0f0f0"></circle><circle cx="392.64" cy="130.51" r="5.95" style="fill:#f5f5f5"></circle><circle cx="394.75" cy="98.48" r="5.95" style="fill:#f0f0f0"></circle><circle cx="313.28" cy="104.43" r="5.95" style="fill:#f0f0f0"></circle><circle cx="378.62" cy="159.26" r="5.95" style="fill:#e6e6e6"></circle><circle cx="394.75" cy="156.53" r="5.95" style="fill:#f0f0f0"></circle><circle cx="366.44" cy="139.46" r="5.95" style="fill:#f0f0f0"></circle><circle cx="351.49" cy="123.37" r="5.95" style="fill:#f0f0f0"></circle><path d="M342.51,143.52a5.95,5.95,0,1,1-5.94-6A5.95,5.95,0,0,1,342.51,143.52Z" style="fill:#f5f5f5"></path><circle cx="311.11" cy="145.03" r="5.95" style="fill:#f0f0f0"></circle><circle cx="337.36" cy="104.43" r="5.95" style="fill:#f5f5f5"></circle><circle cx="323.81" cy="125.25" r="5.95" style="fill:#e6e6e6"></circle><circle cx="345.05" cy="83.28" r="5.95" style="fill:#f0f0f0"></circle><circle cx="321.41" cy="80.28" r="5.95" style="fill:#f0f0f0"></circle><circle cx="409.57" cy="117.42" r="5.95" style="fill:#f5f5f5"></circle><circle cx="417.07" cy="143.71" r="5.95" style="fill:#f0f0f0"></circle><circle cx="445.5" cy="179.27" r="5.95" style="fill:#f5f5f5"></circle><circle cx="421.44" cy="180.79" r="5.95" style="fill:#f0f0f0"></circle><circle cx="445.5" cy="134.13" r="5.95" style="fill:#f5f5f5"></circle><circle cx="438.31" cy="157.25" r="5.95" style="fill:#e6e6e6"></circle><circle cx="429.24" cy="111.67" r="5.95" style="fill:#f0f0f0"></circle><circle cx="258.42" cy="91.14" r="5.95" style="fill:#e6e6e6"></circle><circle cx="264.37" cy="69.59" r="5.95" style="fill:#f0f0f0"></circle><circle cx="267.31" cy="112.7" r="5.95" style="fill:#f0f0f0"></circle><circle cx="287.6" cy="101.33" r="5.95" style="fill:#f5f5f5"></circle><circle cx="281.14" cy="79.86" r="5.95" style="fill:#f0f0f0"></circle><circle cx="278.96" cy="140.11" r="5.95" style="fill:#e6e6e6"></circle><circle cx="295.21" cy="123.69" r="5.95" style="fill:#f0f0f0"></circle><path d="M103.74,101.33A6,6,0,1,0,109.23,95,6,6,0,0,0,103.74,101.33Z" style="fill:#e6e6e6"></path><path d="M166.25,72.64a5.95,5.95,0,1,0,5.49-6.38A6,6,0,0,0,166.25,72.64Z" style="fill:#f0f0f0"></path><circle cx="102.41" cy="123.04" r="5.95" transform="translate(-44.65 186.29) rotate(-73.5)" style="fill:#f0f0f0"></circle><path d="M122.37,162.74a5.95,5.95,0,1,0,5.49-6.37A5.94,5.94,0,0,0,122.37,162.74Z" style="fill:#f0f0f0"></path><path d="M81.65,139.87a6,6,0,1,0,5.49-6.37A5.95,5.95,0,0,0,81.65,139.87Z" style="fill:#f5f5f5"></path><circle cx="83.09" cy="107.65" r="5.95" style="fill:#f0f0f0"></circle><path d="M158.85,108a5.95,5.95,0,1,0,5.49-6.37A5.94,5.94,0,0,0,158.85,108Z" style="fill:#f0f0f0"></path><circle cx="100.75" cy="164.96" r="5.95" transform="translate(-86.03 214.72) rotate(-73.5)" style="fill:#e6e6e6"></circle><circle cx="81.1" cy="166.79" r="5.95" style="fill:#f0f0f0"></circle><circle cx="114.37" cy="146.41" r="5.95" style="fill:#f0f0f0"></circle><path d="M122.15,129.69a5.95,5.95,0,1,0,5.49-6.37A5.94,5.94,0,0,0,122.15,129.69Z" style="fill:#f0f0f0"></path><circle cx="144.47" cy="148.23" r="5.95" style="fill:#f5f5f5"></circle><path d="M164,148.29a5.95,5.95,0,1,0,5.49-6.38A5.95,5.95,0,0,0,164,148.29Z" style="fill:#f0f0f0"></path><circle cx="140.76" cy="109.31" r="5.95" style="fill:#f5f5f5"></circle><circle cx="155.83" cy="129.07" r="5.95" transform="matrix(1, -0.01, 0.01, 1, -1.27, 1.55)" style="fill:#e6e6e6"></circle><path d="M125.59,89.23a5.95,5.95,0,1,0,5.49-6.37A5.95,5.95,0,0,0,125.59,89.23Z" style="fill:#f0f0f0"></path><circle cx="154.88" cy="84.05" r="5.95" style="fill:#f0f0f0"></circle><circle cx="71.17" cy="130.73" r="5.95" style="fill:#f5f5f5"></circle><circle cx="67.74" cy="152.35" r="5.95" style="fill:#f0f0f0"></circle><circle cx="44.44" cy="198.74" r="5.95" style="fill:#f5f5f5"></circle><circle cx="61.79" cy="186.68" r="5.95" style="fill:#f0f0f0"></circle><circle cx="49.98" cy="140.11" r="5.95" style="fill:#f5f5f5"></circle><path d="M38.1,169.93a5.95,5.95,0,1,0,5.49-6.38A5.95,5.95,0,0,0,38.1,169.93Z" style="fill:#e6e6e6"></path><circle cx="55.93" cy="119.58" r="5.95" transform="translate(-1.18 0.56) rotate(-0.57)" style="fill:#f0f0f0"></circle><circle cx="211.24" cy="107.28" r="5.95" style="fill:#f0f0f0"></circle><circle cx="188.98" cy="109.1" r="5.95" style="fill:#f5f5f5"></circle><path d="M185.08,85.18a5.95,5.95,0,1,0,5.49-6.38A6,6,0,0,0,185.08,85.18Z" style="fill:#f0f0f0"></path><circle cx="189.68" cy="146.88" r="5.95" style="fill:#f0f0f0"></circle><circle cx="255.11" cy="134.16" r="5.95" style="fill:#f0f0f0"></circle><circle cx="244.58" cy="114.85" r="5.95" style="fill:#f0f0f0"></circle><circle cx="229.78" cy="140.11" r="5.95" style="fill:#f5f5f5"></circle><circle cx="214.49" cy="130" r="5.95" style="fill:#f0f0f0"></circle><circle cx="229.78" cy="96.03" r="5.95" style="fill:#f5f5f5"></circle><circle cx="235.73" cy="73.36" r="5.95" style="fill:#f0f0f0"></circle><circle cx="214.49" cy="73.71" r="5.95" style="fill:#f0f0f0"></circle></g></g><g id="freepik--Floor--inject-125"><g id="freepik--floor--inject-125"><ellipse cx="250" cy="337.08" rx="238.67" ry="137.79" style="fill:#22D3EE"></ellipse><ellipse cx="250" cy="337.08" rx="238.67" ry="137.79" style="fill:#fff;opacity:0.85"></ellipse><path d="M63.61,423.14,399.07,229.46c-2.36-1.09-4.75-2.16-7.16-3.19L58.08,419C59.87,420.4,61.72,421.78,63.61,423.14Z" style="fill:#fff"></path></g></g><g id="freepik--Shadows--inject-125"><ellipse id="freepik--Shadow--inject-125" cx="352.84" cy="363.67" rx="69.3" ry="40.01" style="fill:#22D3EE;opacity:0.30000000000000004"></ellipse><ellipse id="freepik--shadow--inject-125" cx="150.92" cy="269.26" rx="69.3" ry="40.01" style="fill:#22D3EE;opacity:0.30000000000000004"></ellipse></g><g id="freepik--character-2--inject-125"><g id="freepik--Character--inject-125"><g id="freepik--Top--inject-125"><g id="freepik--Arm--inject-125"><path d="M179.36,69.64c.18-2.11-.13-9.79-.08-12.38,0-1.63-1.86-.94-2.39,0,0-.91,0-1.83,0-2.73a1.17,1.17,0,0,0-1-1.36.5.5,0,0,1-.21,0c-.1-.07-.11-.21-.13-.33-.12-1.1-1.13-1.06-1.87-.5A4.6,4.6,0,0,0,172,55.45L171,62a13.43,13.43,0,0,0,0-2.2c0-.8,0-1.63-.07-2.44,0-1.2-.11-2.4-.21-3.59,0-.34-.09-.74-.39-.9a.7.7,0,0,0-.76.14c-1.07.92-1.45,2.64-1.65,4-.31,2.06-.43,4.14-.72,6.21-.24,1.75-.33,3.61-1.42,5.08-.7.94-.75-.67-.76-1a14.43,14.43,0,0,0-.23-2.78A5.84,5.84,0,0,0,163,61.66a.78.78,0,0,0-1.43.31,8.67,8.67,0,0,0-.26,2.75A61.46,61.46,0,0,1,160,72.29c-.48,2.63-1.14,5.39-.86,8.08s2.34,4.36,2.51,7.13c.17,2.92,3.72,38.81,3.72,38.81s-3.43,11-6.24,19.91c-1.5,4.74-2.77,8.28-4.52,10.58-2.86,3.75-5.21,4.55-8.7,6.76l15.45,36c1.66-4.43,5.81-15.45,9.17-25.62,6.22-18.83,9.4-30.06,11.52-38.71,1.92-7.83,1.87-8.91.24-16.8-1.92-10.2-8.66-30.23-8.39-33.57S179.19,71.75,179.36,69.64Z" style="fill:#b16668"></path><path d="M148,162c2.22-1.28,5.54-3.49,7.21-6.84a71,71,0,0,0,3.27-8.41s3.74-1,9.72,5.07A19.07,19.07,0,0,1,174,164.52L165,192Z" style="fill:#22D3EE"></path><path d="M148,162c2.22-1.28,5.54-3.49,7.21-6.84a71,71,0,0,0,3.27-8.41s3.74-1,9.72,5.07A19.07,19.07,0,0,1,174,164.52L165,192Z" style="opacity:0.4"></path><path d="M166.24,71.44c3.49,4.25.6,9.48.6,9.48S172.87,76,166.24,71.44Z" style="fill:#9a4a4d"></path></g><g id="freepik--top--inject-125"><g id="freepik--Chest--inject-125"><path d="M98.44,226.67C98,234,96.6,239.11,96.07,246.42c-.34,4.68-.68,9.43.33,14a2.58,2.58,0,0,0,.79,1.57c1.65,1.22,12.92-7.51,15.23-8.71a57.93,57.93,0,0,1,8.87-4c2.43-.77,4.66-.17,7.16-.36,7.92-.61,26.16-3.14,28.33-13.06.68-2.68-1.3-5.47-1.35-9s1.27-7.3,3.09-12.49c9.4-7.4,9.18-18.93,7.61-23.58C161.24,176.37,148,162,148,162s-4.27,1.6-12.09.78c-3.73-.39-12.44,1.38-18.28,1.85-1.56,0-8.37-2.2-8.37-2.2-.12,6,1.36,13.21-.27,18.52a45.79,45.79,0,0,1-12.41,19.88,76.46,76.46,0,0,1,1.79,11.35A95.21,95.21,0,0,1,98.44,226.67Z" style="fill:#22D3EE"></path><path d="M98.44,226.67C98,234,96.6,239.11,96.07,246.42c-.34,4.68-.68,9.43.33,14a2.58,2.58,0,0,0,.79,1.57c1.65,1.22,12.92-7.51,15.23-8.71a57.93,57.93,0,0,1,8.87-4c2.43-.77,4.66-.17,7.16-.36,7.92-.61,26.16-3.14,28.33-13.06.68-2.68-1.3-5.47-1.35-9s1.27-7.3,3.09-12.49c9.4-7.4,9.18-18.93,7.61-23.58C161.24,176.37,148,162,148,162s-4.27,1.6-12.09.78c-3.73-.39-12.44,1.38-18.28,1.85-1.56,0-8.37-2.2-8.37-2.2-.12,6,1.36,13.21-.27,18.52a45.79,45.79,0,0,1-12.41,19.88,76.46,76.46,0,0,1,1.79,11.35A95.21,95.21,0,0,1,98.44,226.67Z" style="fill:#fff;opacity:0.5"></path><path d="M142.7,192.68l1.59-.4a1.78,1.78,0,0,0,1.15-.69,1.83,1.83,0,0,0-.39-2.23,1.49,1.49,0,0,0-1.2-.09,1.51,1.51,0,0,0-1.26,2l.06.37-4.48,1.12-.74-4.37c.25-.21.55-.44.9-.7a10.66,10.66,0,0,1,1.28-.8,15.09,15.09,0,0,1,1.73-.79,19.72,19.72,0,0,1,2.26-.7,7.74,7.74,0,0,1,5,0,3.88,3.88,0,0,1,2.22,3.1,4,4,0,0,1,0,1.34,4.46,4.46,0,0,1-.33,1.12,4.4,4.4,0,0,1-.55.92c-.2.28-.4.52-.58.73l0,.21c.27.09.55.19.86.32a3.84,3.84,0,0,1,.9.54,3.32,3.32,0,0,1,.78.87,3.54,3.54,0,0,1,.48,1.33,5.26,5.26,0,0,1-.07,2.17,4.84,4.84,0,0,1-1,1.92,7,7,0,0,1-2,1.55,12.72,12.72,0,0,1-3,1.13,16.33,16.33,0,0,1-2.19.4,16,16,0,0,1-1.76.08A8.18,8.18,0,0,1,141,203a9.31,9.31,0,0,1-1.08-.28l-.77-4.51,4.48-1.12.1.6a1.52,1.52,0,0,0,.59,1.11,1.49,1.49,0,0,0,1.2.09,1.69,1.69,0,0,0,1.08-.67,2.11,2.11,0,0,0,.14-1.5,1.59,1.59,0,0,0-.57-1.1,1.55,1.55,0,0,0-1.27-.09l-1.61.4Z" style="fill:#fff"></path><path d="M139.68,213.28s-6.48,4.92-16.64.48-10.25-13-10.25-13-3.22,10.14,8.95,15.4C133.72,221.37,139.68,213.28,139.68,213.28Z" style="fill:#22D3EE;opacity:0.4"></path></g><g id="freepik--Head--inject-125"><path d="M120.93,154.63c-.82-1.37-1.35-2.57-2.88-3.19a23.66,23.66,0,0,0-4.44-.83c-3.78-.75-7.12-4.2-6.87-8.05a2.25,2.25,0,0,0-.8,2.6c-2.37-2.18-2.21-5.71-.74-8.34a9,9,0,0,0,1.41-3.09,9,9,0,0,0-.78-3.78,12.91,12.91,0,0,1,6.62-15.38c2.06-1,4.44-1.52,6.12-3.08.77-.71,1.35-1.61,2.06-2.37a10.52,10.52,0,0,1,5.94-3c4-.67,8.51.13,12.37,1.21a30.56,30.56,0,0,0,3.26,1,11.78,11.78,0,0,0,3.54-.35,7.73,7.73,0,0,1,4.37.44,3.94,3.94,0,0,1,2.36,3.48,11.15,11.15,0,0,1-.79,2.8,2.7,2.7,0,0,0,.43,2.74,1.75,1.75,0,0,0,2,.18,2,2,0,0,0,1-1.79,4.92,4.92,0,0,1,.5,2.82,1.78,1.78,0,0,1-2.12,1.44,4.16,4.16,0,0,1,1.61,3.06,6.06,6.06,0,0,1-.67,4.21,5.34,5.34,0,0,1-3.27,2.1,15.89,15.89,0,0,1-4,.29,12.87,12.87,0,0,1-.45,4,4,4,0,0,1-2.81,2.73c-1.41.48-2.26,1.55-3.41,2.48q-4.47,3.62-9,7.19C130.87,146.71,120.79,154.4,120.93,154.63Z" style="fill:#263238"></path><path d="M121.15,160.24c-.25-5.9-.82-11.41-.82-11.41-.48,1.24-3.55,2.65-7.53-.56-4.57-3.69-4.13-7.27-2.47-10.12,1.91-3.26,6-3,9.06.43,1.49,4.57,4.88-1.84,1.27-5.61,2-3.07,4.57-3.78,1.78-11.43,9.82,3.95,17.63-5.27,23.88-1.08.89.59,1.75,2.49,2.27,3.42a10.74,10.74,0,0,1,1.39,4c.35,3.3,1.75,6.37,2.18,9.61s1.15,6.43.73,9.88a16.28,16.28,0,0,1-1.94,6.21,10,10,0,0,1-3.89,3.74,20.19,20.19,0,0,1-5.71,1.68s.05.51.16,1.38c.35,2.7,1.79,2.47,1.79,2.47,1.47,4.69,3,8.75-1.57,16.38-13.33-5-22.36-11-24.12-14.63A4.37,4.37,0,0,0,121.15,160.24Z" style="fill:#b16668"></path><path d="M141.35,159c-7,1.19-11.29-.22-13.88-2.26a14.76,14.76,0,0,1-3.92-5.56s3.56,4.48,8.47,5.25c6.39,1,13.46-1.53,15.81-1.56S148.65,158,141.35,159Z" style="fill:#9a4a4d"></path><path d="M147.63,126l-3.73,2.63a2.19,2.19,0,0,1,.47-3.14A2.39,2.39,0,0,1,147.63,126Z" style="fill:#263238"></path><path d="M129.15,128l4.61.33a2.22,2.22,0,0,0-2-2.48A2.42,2.42,0,0,0,129.15,128Z" style="fill:#263238"></path><path d="M144.64,131.86a2,2,0,0,0,2.26,1.51,1.84,1.84,0,0,0,1.49-2.18,2,2,0,0,0-2.26-1.51A1.83,1.83,0,0,0,144.64,131.86Z" style="fill:#263238"></path><path d="M131.32,133.4a2,2,0,0,0,2.26,1.51,1.85,1.85,0,0,0,1.49-2.19,2,2,0,0,0-2.26-1.5A1.83,1.83,0,0,0,131.32,133.4Z" style="fill:#263238"></path><path d="M137.44,145.6a1.41,1.41,0,0,0,1.63,1.09,1.32,1.32,0,0,0,1.07-1.58,1.41,1.41,0,0,0-1.62-1.08A1.33,1.33,0,0,0,137.44,145.6Z" style="fill:#9a4a4d"></path><polygon points="147.18 137.47 141.35 141.29 138.15 130.29 147.18 137.47" style="fill:#9a4a4d"></polygon></g></g><g id="freepik--arm--inject-125"><path d="M97.89,92a17.73,17.73,0,0,0,.91-1.57c1.06-2.25.52-4.89.16-7.35-.21-1.45-.35-2.9-.42-4.36s-.34-2.7-.28-4a19.76,19.76,0,0,1,1.46-5.17c.56-1.71.87-3.67,0-5.24-.15-.28-.4-.58-.72-.54a.85.85,0,0,0-.55.4,24.12,24.12,0,0,0-3.07,5.08,11.74,11.74,0,0,1,.42-4c.32-1.2,1-2.38,1.24-3.59a3.35,3.35,0,0,0-.6-2.63,1.52,1.52,0,0,0-1.57-.19c.18-2,.16-3.72-1.83-4.15-.47-.1-.87,1.88-1,2.11-.77,2.08-1.48,4.19-2.32,6.23.19-1.15.35-2.31.47-3.47a7.91,7.91,0,0,0,0-3A2,2,0,0,0,89,55a.45.45,0,0,0-.28,0,.46.46,0,0,0-.17.17,9.41,9.41,0,0,0-1,2.42,34.6,34.6,0,0,0-1.77,7.82c-.08,1.16-.68,3.4-.66,4.57.06,3.37,0,8.3.24,11.67.1,1.83-.4,4.3-1.77,8.71-1.48,4.78-8.11,21.1-12.31,34.14-2,6.31-.29,11.53,4.56,23.56,3,7.36,9.31,23.21,11.65,28.92,4.85,11.83,5.67,14.73,8.25,22.59,3.17-.94,13.79-4.54,15.09-19.61.36-4.2-1.07-14.84-2.48-18.44a18.84,18.84,0,0,1-4.21-5.47c-2.66-4.84-4.42-7.67-5.93-10.91s-5.13-8.95-7.4-14.41c1.35-8.61,3.35-27.41,4-31a39.75,39.75,0,0,1,1-4.36C96.11,94.07,97.18,93.08,97.89,92Z" style="fill:#b16668"></path><path d="M109.63,162.51a9.71,9.71,0,0,1-3.13-3.45c-1-1.54-5.64-10-5.64-10a15.55,15.55,0,0,1-5.13,11.08c-5.37,5-13.13,4.92-13.13,4.92s4.77,11.71,6.7,16.77,7.57,20.25,7.57,20.25,5.68-.73,11.13-8.1S113.42,174.69,109.63,162.51Z" style="fill:#22D3EE"></path><path d="M109.63,162.51a9.71,9.71,0,0,1-3.13-3.45c-1-1.54-5.64-10-5.64-10a15.55,15.55,0,0,1-5.13,11.08c-5.37,5-13.13,4.92-13.13,4.92s4.77,11.71,6.7,16.77,7.57,20.25,7.57,20.25,5.68-.73,11.13-8.1S113.42,174.69,109.63,162.51Z" style="opacity:0.4"></path><path d="M95.89,72.34a18.44,18.44,0,0,1,.31-2.16,10.24,10.24,0,0,1,.12-2.35,13.61,13.61,0,0,0-.48,8.37S95.83,73.57,95.89,72.34Z" style="fill:#9a4a4d"></path><path d="M95.41,60.12c-.59,2.16-2.16,6.28-2.36,7.84A41.89,41.89,0,0,0,93,75.08a17.54,17.54,0,0,1-.41-7.29C93,65.34,94.22,63,95.41,60.12Z" style="fill:#9a4a4d"></path><path d="M93,57.85c-.9,2.95-2.57,8.13-2.85,9.34a60,60,0,0,0-.08,7,31.53,31.53,0,0,1-.64-6C89.54,66,93,57.85,93,57.85Z" style="fill:#9a4a4d"></path></g></g><g id="freepik--Bottom--inject-125"><path d="M226.07,266c-.67-.92-1.34-1.82-2-2.7-3.63-4.85-9.85-8.41-15.32-10.72-9.24-3.89-64.64-23.16-69.07-24.7V282.3a40.84,40.84,0,0,0,5.52,1.33c24.24,4.14,47.33,1.86,60.31,2.76.36,0,1.21,1.06,1.5,1.31,3.75,3.3,7.62,7.06,12.39,8.85,4.4,1.65,10,1.45,13.85-1.5a9.85,9.85,0,0,0,3.41-7.77c0-4.07-1.68-7.48-3.65-10.88A116.16,116.16,0,0,0,226.07,266Z" style="fill:#b16668"></path><path d="M200.94,249.49c-19.64-7.05-58.23-20.52-61.26-21.57V282.3a40.84,40.84,0,0,0,5.52,1.33c18.09,3.09,35.54,2.6,48.62,2.53C190.67,271.7,192.12,259.1,200.94,249.49Z" style="fill:#37474f"></path><path d="M149.17,284.25c7.9-5.13,11.86-17.08,14.09-23.17l-1.14-.88-22.44,22.1a40.84,40.84,0,0,0,5.52,1.33C146.53,283.86,147.85,284.06,149.17,284.25Z" style="fill:#263238"></path><path d="M216.05,313c-.29-2.32-6.18-5.51-10.65-8.42-7.15-4.65-11.72-7.61-13.8-12.38s-2.85-7.49-3.68-19.45c-.06-.84-2-22.55-3.6-44-1.4-19.34-7-27.55-13-30.16-5.93-2.82-16,.39-29.15,13.16C131.53,222,125,231.43,117.34,245.32c-3.51,1.58-14.41,6.1-20.57,15.45.62,3.67,4,9.45,6.14,13.27,9.2,14.74,28.74,15.46,40.37,9,7-3.89,13.49-12.61,18.84-22.88,1.34,4.33,8.75,25.47,8.95,26.71a12.61,12.61,0,0,1-.22,4.51,15.45,15.45,0,0,0,.68,8.32c1.18,2.94,3.41,3.19,6,5.34s3.11,2.19,5,5.48c2.07,3.52,5.25,9.1,15,11.22A24.67,24.67,0,0,0,214.35,319C216.8,317.43,216.16,313.82,216.05,313Z" style="fill:#b16668"></path><path d="M162.12,260.2c-5.35,10.27-11.8,19-18.85,22.88C133,288.77,116,289,106.21,278.29c4.67,4,15.24,6.62,27.73,2.3,13.21-4.56,17.57-14.25,17.34-25.27-.27-13,2.67-37,6.4-41.38a19,19,0,0,0-.94,2.72c-4.16,17.7-.67,22.81,2.62,34.31C160.34,254.41,161.29,257.52,162.12,260.2Z" style="fill:#9a4a4d"></path><path d="M155,226.61c7.42,3.64,22.42,2.22,29.24-3.32,2.86,16.91,3.33,58.19,6.74,66.91,0,0-6.41,11.89-12.11,10.15s-7.55-11.7-7.55-11.7l-.28-1.74s-8.31-23.38-10.68-31S152.68,236.11,155,226.61Z" style="fill:#22D3EE"></path><path d="M155,226.61c7.42,3.64,22.42,2.22,29.24-3.32,2.86,16.91,3.33,58.19,6.74,66.91,0,0-6.41,11.89-12.11,10.15s-7.55-11.7-7.55-11.7l-.28-1.74s-8.31-23.38-10.68-31S152.68,236.11,155,226.61Z" style="opacity:0.4"></path><path d="M182.58,232.64a29.19,29.19,0,0,1-11.81,4.17,27.83,27.83,0,0,1-6.64,0c-2.17-.27-4.22-1-6.37-1.36-.2,0-.23.33-.09.42,3.44,2.19,8.28,2.48,12.24,2.12a25,25,0,0,0,12.83-4.78C182.92,233,182.82,232.5,182.58,232.64Z" style="opacity:0.30000000000000004"></path><path d="M171.15,299.79a9.68,9.68,0,0,0,1,3.61c.53,1.2,5.12,3.82,6.83,5.72s2,2.71,3.94,5.34c2.19,2.91,3.55,6.6,12.4,9s14.71.91,18.47-1.06a9.64,9.64,0,0,0,3.27-3.17s1-5-1.78-5.93S171.15,299.79,171.15,299.79Z" style="fill:#263238"></path><path d="M190.53,287.05c.69.59,1.19,2.4,1.54,3.22,1.18,2.78,3.59,5.23,5.75,7.3,10.22,9.78,19.12,8.87,19.54,17.95,0,2.55-2.7,6.15-13.72,7.26-5.63.57-14.45-2.63-17.25-6s-4.09-6.38-6.33-8.82-7.52-5.23-8.91-8.18a12.93,12.93,0,0,1-.84-5.65c0-1.55.4-6.76.4-6.76,1.56,3.85,4.49,3.68,6,4.58a28.42,28.42,0,0,1,4.35,3.8c-.92-2.62-2.16-4.23-.87-5.65s1.33-1.66,4.92-2.6S189.91,286.52,190.53,287.05Z" style="fill:#22D3EE"></path><path d="M190.53,287.05c.69.59,1.19,2.4,1.54,3.22,1.18,2.78,3.59,5.23,5.75,7.3,10.22,9.78,19.12,8.87,19.54,17.95,0,2.55-2.7,6.15-13.72,7.26-5.63.57-14.45-2.63-17.25-6s-4.09-6.38-6.33-8.82-7.52-5.23-8.91-8.18a12.93,12.93,0,0,1-.84-5.65c0-1.55.4-6.76.4-6.76,1.56,3.85,4.49,3.68,6,4.58a28.42,28.42,0,0,1,4.35,3.8c-.92-2.62-2.16-4.23-.87-5.65s1.33-1.66,4.92-2.6S189.91,286.52,190.53,287.05Z" style="opacity:0.4"></path><path d="M203.64,322.78c-5.63.57-14.45-2.63-17.25-6a38.65,38.65,0,0,1-2.55-3.5c.2.2.4.42.58.58.41.36.83.71,1.26,1a12.47,12.47,0,0,0,5.7,2.77c1.87.25,6.5,1,7.83-.9.75-1.08.25-2.72-.73-3.93-.41-.52-1.65-1.71-1.65-1.71a20.42,20.42,0,0,1,5.32-3.81c3.7-1.67,4-1.31,4-1.31a8.9,8.9,0,0,0,2.46,1.68,7.5,7.5,0,0,0,3.17.51,4.72,4.72,0,0,0,1-.36c2.63,1.82,4.31,3.86,4.49,7.67C217.36,318.08,214.66,321.67,203.64,322.78Z" style="opacity:0.30000000000000004"></path><path d="M197.82,297.57a46.15,46.15,0,0,0,8.92,6.63c2.32,3,1.64,3.86,0,3s-6.79-7-11.16-11.89C196.32,296.11,197.08,296.87,197.82,297.57Z" style="fill:#37474f"></path><path d="M174.52,292.88c-1.57-.75-2.87-1.13-4-2.42-.48-2-.32-3.18.52-3.55l.28,1.74c2,2,3.85,2.41,5.39,3.31a27.89,27.89,0,0,1,4.35,3.8c4.34,4.4,5.36,6.57,9.81,10.16s8.3,4.66,8.14,5.51-1.56,1.88-5.57-.3-9.42-7.95-11.74-11.09S176.73,293.93,174.52,292.88Z" style="fill:#37474f"></path><path d="M197,311.69a.5.5,0,0,0,.29-.16c2.82-2.94,4.8-4.2,9.34-4.85a.58.58,0,0,0,.48-.65.57.57,0,0,0-.64-.48c-4.8.69-7,2.07-10,5.2a.56.56,0,0,0,.53.94Z" style="fill:#ebebeb"></path><path d="M193.32,308.56a.56.56,0,0,0,.29-.16,15.21,15.21,0,0,1,10-5,.58.58,0,0,0-.17-1.15,16.34,16.34,0,0,0-10.66,5.33.57.57,0,0,0,0,.82A.56.56,0,0,0,193.32,308.56Z" style="fill:#ebebeb"></path><path d="M188.85,305.86a.59.59,0,0,0,.32-.17c3.31-3.29,5.93-4.8,11.22-5.57a.65.65,0,0,0,.54-.73.64.64,0,0,0-.73-.54c-5.56.82-8.42,2.45-11.94,5.93a.65.65,0,0,0,0,.91A.62.62,0,0,0,188.85,305.86Z" style="fill:#ebebeb"></path><path d="M185.48,302.85a.6.6,0,0,0,.31-.17c3.25-3.23,5.77-4.69,11-5.46a.63.63,0,1,0-.19-1.24,18.09,18.09,0,0,0-11.67,5.81.63.63,0,0,0,.58,1.06Z" style="fill:#ebebeb"></path><path d="M182.68,299.15A.6.6,0,0,0,183,299c3.25-3.22,5.77-4.69,11-5.45a.63.63,0,0,0-.18-1.25c-5.46.81-8.22,2.39-11.67,5.81a.62.62,0,0,0,0,.89A.6.6,0,0,0,182.68,299.15Z" style="fill:#ebebeb"></path></g><path d="M132.46,222.23C129.94,233.54,137,263.32,159,267c-6.73,13.45-18.83,21.77-32.09,20.68s-25.64-6.76-30.59-27.74a38.45,38.45,0,0,1,20.47-15.64A129.46,129.46,0,0,1,132.46,222.23Z" style="fill:#37474f"></path><path d="M132.84,235.73c-.26-1.36-.47-2.69-.61-4-.43.74-.87,1.48-1.32,2.2-2.11,3.36-4.44,6.56-6.87,9.69s-4.69,6.14-7.28,9a8.87,8.87,0,0,1-4.65,3,7.17,7.17,0,0,1-4.65-1A10.42,10.42,0,0,1,104,251.3c-.42.34-.81.69-1.2,1a12.26,12.26,0,0,0,1.12,1.62c2.54,3.07,6.64,4.8,10.5,3.29s6.34-5.49,8.8-8.52c2.91-3.56,5.77-7.17,8.35-11C132,237.08,132.41,236.41,132.84,235.73Z" style="fill:#fafafa"></path><path d="M233,276.4A116.16,116.16,0,0,0,226.07,266c-.67-.92-1.34-1.82-2-2.7-3.08-4.1-8-7.28-12.76-9.56a30.52,30.52,0,0,0-10.64,22.93,20.06,20.06,0,0,0,2.16,9.54c.94,0,1.83.08,2.68.14.36,0,1.21,1.06,1.5,1.31,3.75,3.3,7.62,7.06,12.39,8.85,4.4,1.65,10,1.45,13.85-1.5a9.85,9.85,0,0,0,3.41-7.77C236.68,283.21,235,279.8,233,276.4Z" style="fill:#22D3EE"></path><path d="M233,276.4A116.16,116.16,0,0,0,226.07,266c-.67-.92-1.34-1.82-2-2.7-3.08-4.1-8-7.28-12.76-9.56a30.52,30.52,0,0,0-10.64,22.93,20.06,20.06,0,0,0,2.16,9.54c.94,0,1.83.08,2.68.14.36,0,1.21,1.06,1.5,1.31,3.75,3.3,7.62,7.06,12.39,8.85,4.4,1.65,10,1.45,13.85-1.5a9.85,9.85,0,0,0,3.41-7.77C236.68,283.21,235,279.8,233,276.4Z" style="opacity:0.4"></path><path d="M213.47,259.48c-3.27,2.53-5.11,6.54-6.17,10.43-1.15,4.19-1.91,8.81-1,13.08,0,.11.12,0,.12-.05-.3-4.05.77-8.32,1.83-12.2a35.06,35.06,0,0,1,2.4-6.25,23.78,23.78,0,0,1,3-4.5C213.81,259.85,213.7,259.3,213.47,259.48Z" style="opacity:0.30000000000000004"></path></g></g><g id="freepik--Net--inject-125"><g id="freepik--net--inject-125"><path d="M360,105.13a.54.54,0,0,1-.22,0,.5.5,0,0,1-.24-.66l11.32-24a.5.5,0,1,1,.91.43l-11.32,24A.51.51,0,0,1,360,105.13Z" style="fill:#455a64"></path><path d="M370.72,220.18a.45.45,0,0,1-.34-.14l-12.1-11.64a.5.5,0,0,1,0-.71.51.51,0,0,1,.71,0l12.1,11.64a.5.5,0,0,1,0,.71A.49.49,0,0,1,370.72,220.18Z" style="fill:#455a64"></path><path d="M87.15,261.81a.53.53,0,0,1-.37-.15L77,252.22a.53.53,0,1,1,.74-.77l9.81,9.44a.53.53,0,0,1,0,.75A.52.52,0,0,1,87.15,261.81Z" style="fill:#455a64"></path><path d="M77,389.92a.46.46,0,0,1-.23-.06.53.53,0,0,1-.26-.71L87.68,365.5a.54.54,0,0,1,1,.46L77.48,389.61A.54.54,0,0,1,77,389.92Z" style="fill:#455a64"></path><path d="M358.87,132.45l-.5-.87-11.23,6.47v-9.31L358.87,122l-.5-.87-11.23,6.47V114.14h-1v14l-8.07,4.65V119.38h-1v14L329,138V124.61h-1v14l-8.07,4.65V129.85h-1v14l-8.07,4.65V135.09h-1v14l-8.07,4.64V140.32h-1v14l-8.07,4.65V145.56h-1V159.5l-8.07,4.65V150.8h-1v13.93l-8.07,4.65V156h-1V170l-8.07,4.65V161.27h-1v13.91l-8.07,4.65V166.51h-1V180.4l-8.07,4.65V171.74h-1v13.89l-8.07,4.65V177h-1v13.87l-8.07,4.65V182.22h-1v13.86l-8.07,4.65V187.45h-1V201.3L211.09,206V192.69h-1v13.84L202,211.17V197.93h-1v13.82L193,216.4V203.16h-1V217l-8.07,4.64V208.4h-1v13.8l-8.07,4.65V213.64h-1v13.78l-8.07,4.65v-13.2h-1v13.78l-8.08,4.65V224.11h-1v13.76l-8.07,4.65V229.35h-1V243.1l-8.07,4.65V234.58h-1v13.74L129.45,253V239.82h-1v13.73l-8.07,4.65V245.06h-1v13.71l-8.07,4.65V250.29h-1V264l-8.07,4.65V255.53h-1v13.69l-11.85,6.83.5.86,11.35-6.53v9.31l-11.85,6.83.5.87,11.35-6.54v9.32L89.39,297l.5.87,11.35-6.54v9.32l-11.85,6.82.5.87,11.35-6.54v9.32l-11.85,6.83.5.86,11.35-6.53v9.32l-11.85,6.82.5.87,11.35-6.54v9.32l-11.85,6.82.5.87,11.35-6.54v9.32l-11.85,6.82.5.87,11.35-6.53v13.08h1V343.11l8.07-4.65v13.08h1V337.89l8.07-4.65V346.3h1V332.66l8.07-4.65v13.05h1V327.44l8.07-4.65v13h1V322.21l8.07-4.65v13h1V317l8.07-4.65v13h1V311.76l8.08-4.65v13h1V306.54l8.07-4.65v13h1V301.31l8.07-4.65v13h1V296.09l8.07-4.65v13h1V290.86l8.07-4.64v12.95h1V285.64l8.07-4.65v12.94h1V280.41l8.07-4.64V288.7h1V275.19l8.07-4.65v12.92h1V270l8.07-4.65v12.9h1V264.74l8.07-4.65V273h1V259.52l8.07-4.65v12.88h1V254.29l8.07-4.65v12.87h1V249.07l8.07-4.65v12.86h1V243.84l8.07-4.65V252h1V238.62l8.07-4.65V246.8h1V233.39l8.07-4.64v12.82h1v-13.4l8.07-4.65v12.81h1V222.94l8.07-4.64v12.79h1V217.72l8.07-4.65v12.79h1V212.49l8.07-4.64v12.77h1V207.27l8.07-4.65v12.76h1V202.05l11.73-6.76-.5-.87-11.23,6.47v-9.32l11.73-6.75-.5-.87-11.23,6.47V181.1l11.73-6.76-.5-.86L347.14,180v-9.32l11.73-6.76-.5-.87-11.23,6.47v-9.32l11.73-6.75-.5-.87L347.14,159v-9.32l11.73-6.76-.5-.86-11.23,6.47v-9.32Zm-12.73-3.14v9.32l-8.07,4.65V134Zm-9.07,5.23v9.31L329,148.5v-9.31ZM138.52,280.32l8.07-4.65V285l-8.07,4.65Zm-1,9.89-8.07,4.65v-9.32l8.07-4.64Zm10.07-15.11,8.07-4.65v9.32l-8.07,4.64Zm9.07-5.23,8.08-4.65v9.32l-8.08,4.65Zm9.08-5.22,8.07-4.65v9.32L165.74,274Zm9.07-5.23,8.07-4.65v9.32l-8.07,4.65Zm9.07-5.22,8.07-4.65v9.32l-8.07,4.65ZM193,249l8.07-4.65v9.32L193,258.29Zm9.07-5.22,8.07-4.65v9.32L202,253.07Zm9.07-5.23,8.07-4.65v9.32l-8.07,4.65Zm9.07-5.22,8.07-4.65V238l-8.07,4.65Zm9.07-5.23,8.07-4.64v9.31l-8.07,4.65Zm9.07-5.22,8.07-4.65v9.32l-8.07,4.65Zm9.07-5.23,8.07-4.64v9.31l-8.07,4.65Zm9.07-5.22,8.07-4.65v9.32l-8.07,4.65Zm9.07-5.22,8.07-4.65v9.32l-8.07,4.64Zm9.07-5.23,8.07-4.65v9.32l-8.07,4.65Zm9.07-5.22,8.07-4.65v9.32l-8.07,4.65Zm9.07-5.23,8.07-4.65v9.32l-8.07,4.65Zm9.07-5.22,8.07-4.65V191l-8.07,4.65Zm9.07-5.23,8.07-4.65v9.32l-8.07,4.65Zm0-1.15v-9.32l8.07-4.65v9.32Zm-1,.57-8.07,4.65V175.8l8.07-4.64Zm-9.07,5.23-8.07,4.65V181l8.07-4.65Zm-9.07,5.22-8.07,4.65v-9.32l8.07-4.64Zm-9.07,5.23-8.07,4.65v-9.32l8.07-4.65Zm-9.07,5.22L265.51,206V196.7l8.07-4.65Zm-9.07,5.23-8.07,4.64v-9.31l8.07-4.65Zm-9.07,5.22-8.07,4.65v-9.32l8.07-4.65Zm-9.07,5.23-8.07,4.64v-9.31l8.07-4.65Zm-9.07,5.22-8.07,4.65V217.6L237.3,213Zm-9.07,5.23-8.07,4.64v-9.31l8.07-4.65Zm-9.07,5.22-8.07,4.65v-9.32l8.07-4.65Zm-9.07,5.22L202,242.59v-9.31l8.07-4.65ZM201,243.17,193,247.82V238.5l8.07-4.65ZM192,248.39,183.88,253v-9.32l8.07-4.64Zm-9.07,5.23-8.07,4.65V249l8.07-4.65Zm-9.07,5.22-8.07,4.65v-9.32l8.07-4.65Zm-9.07,5.23-8.08,4.65V259.4l8.08-4.65Zm-9.08,5.22-8.07,4.65v-9.32l8.07-4.65Zm-9.07,5.23-8.07,4.64v-9.31l8.07-4.65Zm-9.07,5.22-8.07,4.65v-9.32l8.07-4.65ZM128.45,285l-8.07,4.64V280.3l8.07-4.65Zm0,1.15v9.32l-8.07,4.65v-9.32Zm0,10.47v9.32l-8.07,4.65v-9.32Zm1-.57,8.07-4.65v9.32l-8.07,4.65Zm9.07-5.23,8.07-4.65v9.32l-8.07,4.65Zm9.07-5.22,8.07-4.65v9.32l-8.07,4.65Zm9.07-5.23,8.08-4.64V285l-8.08,4.65Zm9.08-5.22,8.07-4.65v9.32l-8.07,4.65Zm9.07-5.22,8.07-4.65v9.31l-8.07,4.65Zm9.07-5.23L192,260v9.32L183.88,274Zm9.07-5.22L201,254.8v9.31L193,268.76Zm9.07-5.23,8.07-4.65v9.32L202,263.54Zm9.07-5.22,8.07-4.65v9.32l-8.07,4.64Zm9.07-5.23,8.07-4.65v9.32l-8.07,4.65Zm9.07-5.22,8.07-4.65v9.32l-8.07,4.65Zm9.07-5.23,8.07-4.65V238l-8.07,4.65Zm9.07-5.22,8.07-4.65v9.32l-8.07,4.65Zm9.07-5.23,8.07-4.64v9.31l-8.07,4.65Zm9.07-5.22,8.07-4.65v9.32L265.51,227Zm9.07-5.23,8.07-4.64v9.31l-8.07,4.65Zm9.07-5.22,8.07-4.65v9.32l-8.07,4.65Zm9.07-5.22,8.07-4.65v9.31l-8.07,4.65Zm9.07-5.23,8.07-4.65v9.32l-8.07,4.65Zm9.07-5.22,8.07-4.65v9.32l-8.07,4.64Zm9.07-5.23,8.07-4.65V191l-8.07,4.65Zm0-1.15v-9.32l8.07-4.65v9.32Zm0-10.48v-9.31l8.07-4.65V170Zm0-10.47v-9.32l8.07-4.65v9.32Zm-1,.58-8.07,4.65v-9.32l8.07-4.65ZM309.86,170l-8.07,4.65v-9.32l8.07-4.65Zm-9.07,5.23-8.07,4.64v-9.31l8.07-4.65Zm-9.07,5.22-8.07,4.65v-9.32l8.07-4.65Zm-9.07,5.22-8.07,4.65V181l8.07-4.65Zm-9.07,5.23-8.07,4.65v-9.32l8.07-4.65Zm-9.07,5.22-8.07,4.65v-9.32l8.07-4.64Zm-9.07,5.23L247.37,206v-9.32l8.07-4.65Zm-9.07,5.22-8.07,4.65V201.9l8.07-4.64Zm-9.07,5.23-8.07,4.65v-9.32l8.07-4.65ZM228.23,217l-8.07,4.65v-9.32l8.07-4.65Zm-9.07,5.23-8.07,4.65v-9.32l8.07-4.65Zm-9.07,5.22L202,232.12V222.8l8.07-4.65ZM201,232.7,193,237.34V228l8.07-4.65ZM192,237.92l-8.07,4.65v-9.32L192,228.6Zm-9.07,5.23-8.07,4.64v-9.31l8.07-4.65Zm-9.07,5.22L165.74,253V243.7l8.07-4.65Zm-9.07,5.22-8.08,4.65v-9.31l8.08-4.65Zm-9.08,5.23-8.07,4.65v-9.32l8.07-4.65ZM146.59,264l-8.07,4.65v-9.32l8.07-4.64Zm-9.07,5.23-8.07,4.65V264.6l8.07-4.65Zm-9.07,5.22-8.07,4.65v-9.32l8.07-4.64Zm-9.07,5.23-8.07,4.65v-9.32l8.07-4.65Zm0,1.15v9.32l-8.07,4.65v-9.32Zm0,10.48v9.31l-8.07,4.65V296Zm0,10.47v9.32l-8.07,4.64v-9.31Zm0,10.47v9.32l-8.07,4.65v-9.32Zm1-.57,8.07-4.65v9.31L120.38,321Zm9.07-5.23,8.07-4.65v9.32l-8.07,4.65Zm9.07-5.22,8.07-4.65v9.31l-8.07,4.65Zm9.07-5.23,8.07-4.65v9.32l-8.07,4.65Zm9.07-5.22,8.08-4.65v9.32l-8.08,4.64Zm9.08-5.23,8.07-4.65v9.32l-8.07,4.65Zm9.07-5.22,8.07-4.65V285l-8.07,4.65Zm9.07-5.23,8.07-4.65v9.32l-8.07,4.65Zm9.07-5.22,8.07-4.65v9.32L193,279.24Zm9.07-5.23,8.07-4.64v9.31L202,274Zm9.07-5.22,8.07-4.65v9.32l-8.07,4.65Zm9.07-5.22,8.07-4.65v9.31l-8.07,4.65Zm9.07-5.23,8.07-4.65v9.32l-8.07,4.65Zm9.07-5.22,8.07-4.65v9.31l-8.07,4.65Zm9.07-5.23,8.07-4.65v9.32l-8.07,4.65Zm9.07-5.22,8.07-4.65V238l-8.07,4.64Zm9.07-5.23,8.07-4.65v9.32l-8.07,4.65Zm9.07-5.22,8.07-4.65v9.32l-8.07,4.64Zm9.07-5.23,8.07-4.65v9.32L283.65,227Zm9.07-5.22,8.07-4.65v9.32l-8.07,4.65Zm9.07-5.23,8.07-4.64v9.31l-8.07,4.65Zm9.07-5.22,8.07-4.65v9.32l-8.07,4.65Zm9.07-5.23,8.07-4.64v9.31l-8.07,4.65Zm9.07-5.22,8.07-4.65v9.32L329,200.87Zm0-1.16v-9.31l8.07-4.65v9.32Zm0-10.47V170.6l8.07-4.65v9.32Zm0-10.47v-9.32l8.07-4.65v9.32ZM329,159v-9.32l8.07-4.65v9.32Zm-1-19.22v9.32l-8.07,4.65v-9.32ZM318.93,145v9.31L310.86,159v-9.31Zm-9.07,5.22v9.32l-8.07,4.65v-9.32Zm-9.07,5.23v9.31l-8.07,4.65v-9.32Zm-9.07,5.22V170l-8.07,4.65v-9.32Zm-9.07,5.22v9.32l-8.07,4.65v-9.32Zm-9.07,5.23v9.32l-8.07,4.65v-9.32Zm-9.07,5.22v9.32l-8.07,4.65V181Zm-9.07,5.23v9.32l-8.07,4.64v-9.31Zm-9.07,5.22v9.32l-8.07,4.65v-9.32ZM237.3,192v9.31L229.23,206v-9.31Zm-9.07,5.22v9.32l-8.07,4.65v-9.32Zm-9.07,5.23v9.31l-8.07,4.65v-9.31Zm-9.07,5.22V217L202,221.65v-9.32ZM201,212.91v9.31L193,226.87v-9.32ZM192,218.13v9.32l-8.07,4.65v-9.32Zm-9.07,5.22v9.32l-8.07,4.65V228Zm-9.07,5.23v9.32l-8.07,4.65v-9.32Zm-9.07,5.22v9.32l-8.08,4.65v-9.32ZM155.66,239v9.32L147.59,253v-9.31Zm-9.07,5.22v9.32l-8.07,4.65V248.9Zm-9.07,5.23v9.32l-8.07,4.64v-9.31Zm-9.07,5.22V264l-8.07,4.65v-9.32Zm-9.07,5.23v9.31l-8.07,4.65v-9.31Zm-17.14,9.87,8.07-4.65v9.32l-8.07,4.65Zm0,10.47,8.07-4.65v9.32l-8.07,4.65Zm0,10.48,8.07-4.65v9.31l-8.07,4.65Zm0,10.47,8.07-4.65v9.32l-8.07,4.65Zm0,10.47,8.07-4.65v9.32L102.24,321Zm0,10.47,8.07-4.64v9.31l-8.07,4.65Zm0,19.79v-9.31l8.07-4.65v9.32Zm9.07-5.22v-9.32l8.07-4.65v9.32Zm9.07-5.22v-9.32l8.07-4.65v9.32Zm9.07-5.23V317l8.07-4.65v9.32Zm9.07-5.22v-9.32l8.07-4.65v9.32Zm9.07-5.23v-9.32l8.07-4.64v9.31Zm9.07-5.22v-9.32l8.08-4.65V306Zm9.08-5.23v-9.32l8.07-4.64v9.31Zm9.07-5.22v-9.32l8.07-4.65v9.32Zm9.07-5.23v-9.31L192,281v9.31Zm9.07-5.22v-9.32l8.07-4.65v9.32Zm9.07-5.23v-9.31l8.07-4.65v9.32Zm9.07-5.22v-9.32l8.07-4.65v9.32Zm9.07-5.22v-9.32l8.07-4.65v9.32Zm9.07-5.23v-9.32l8.07-4.65v9.32Zm9.07-5.22v-9.32l8.07-4.65v9.32Zm9.07-5.23V249l8.07-4.64v9.31Zm9.07-5.22v-9.32l8.07-4.65v9.32Zm9.07-5.23v-9.32l8.07-4.64v9.31Zm9.07-5.22v-9.32l8.07-4.65V238Zm9.07-5.23v-9.31l8.07-4.65v9.31Zm9.07-5.22v-9.32l8.07-4.65v9.32Zm9.07-5.23V217.7l8.07-4.65v9.32Zm9.07-5.22v-9.32l8.07-4.65v9.32Zm9.07-5.23v-9.31L328,202.6v9.32Zm9.07-5.22V202l8.07-4.65v9.32Zm17.14-9.87-8.07,4.65V196.8l8.07-4.65Zm0-10.48-8.07,4.65v-9.31l8.07-4.65Zm0-10.47-8.07,4.65v-9.32l8.07-4.65Zm0-10.47-8.07,4.65v-9.32l8.07-4.65Zm0-10.47-8.07,4.64v-9.31l8.07-4.65Zm0-10.48-8.07,4.65v-9.32l8.07-4.65Z" style="fill:#455a64"></path><path d="M361.09,102.27,86.62,260.77V369l274.47-158.5ZM92.67,358.52V264.26L355.05,112.74V207Z" style="fill:#37474f"></path><g id="freepik--Flags--inject-125"><path d="M74.65,245.16V411.92a.93.93,0,0,0,.55.77,3,3,0,0,0,2.69,0,.94.94,0,0,0,.56-.77V245.16Z" style="fill:#37474f"></path><path d="M75.2,245.93a3,3,0,0,0,2.69,0,.82.82,0,0,0,0-1.55,3,3,0,0,0-2.69,0A.82.82,0,0,0,75.2,245.93Z" style="fill:#455a64"></path></g><g id="freepik--flags--inject-125"><path d="M370.62,74.27V241a1,1,0,0,0,.55.78,3,3,0,0,0,2.69,0,1,1,0,0,0,.56-.78V74.27Z" style="fill:#37474f"></path><path d="M371.17,75.05a3,3,0,0,0,2.69,0,.82.82,0,0,0,0-1.55,3,3,0,0,0-2.69,0A.82.82,0,0,0,371.17,75.05Z" style="fill:#455a64"></path></g></g></g><g id="freepik--character-1--inject-125"><g id="freepik--character--inject-125"><g id="freepik--bottom--inject-125"><path d="M365.71,335.15l-28.06,25.53-37.23,11.17c2.8-8.8-4.57-24-15.68-26.66,1.2-.82,2.54-1.68,4-2.62,15.55-9.8,54.37-29.91,54.37-29.91Z" style="fill:#ffbda7"></path><path d="M300.42,371.85,295.89,373c-4.91,10.06-14.43,17.61-19.58,22.55s-16.9,17.65-16.9,17.65-4.47,6.68-12.27,6.54-10.71-9.41-10.71-9.41,6-3.34,9.2-8.93,17.06-27.67,23.76-39.27c4.48-7.76,6.2-10.82,15.34-17h0C295.85,347.82,303.22,363.05,300.42,371.85Z" style="fill:#22D3EE"></path><path d="M291,357.64a25.59,25.59,0,0,0-4.52-4.72,15.44,15.44,0,0,0-5.19-3.13c-.19-.05-.21.32-.09.4a58,58,0,0,1,5.05,3.62,26.38,26.38,0,0,1,3.95,4.49,34.75,34.75,0,0,1,3.56,6.5c.5,1.16.94,2.34,1.34,3.54.19.57.33,1.18.55,1.74s.52.61.58,0a10,10,0,0,0-.6-3.06,24.67,24.67,0,0,0-1.95-5.24A28.69,28.69,0,0,0,291,357.64Z" style="opacity:0.2"></path><path d="M256.09,423.28a9,9,0,0,1-2,2.93c-.85.91-5.81,1.82-7.93,3s-2.62,1.81-5.22,3.55c-2.89,1.92-5.26,4.81-14,4.15s-13.49-3.82-16.25-6.77a19.64,19.64,0,0,1-2.77-5.1s.66-4.84,3.46-4.76S256.09,423.28,256.09,423.28Z" style="fill:#263238"></path><path d="M241.86,404.52c-.8.31-1.82,1.77-2.4,2.41-1.93,2.12-4.87,3.56-7.46,4.74-12.25,5.56-19.95,1.95-23.19,10-.8,2.29,1.33,7.59,10.87,12.06,4.88,2.29,13.81,2.18,17.38.05s5.68-4.44,8.46-5.93,8.4-2.33,10.57-4.54a12.24,12.24,0,0,0,2.53-4.81c.47-1.39,1.77-6.19,1.77-6.19-2.61,3-5.18,1.89-6.86,2.21a26.79,26.79,0,0,0-5.1,2.05c1.66-2.07,3.28-3.13,2.57-4.81s-.68-1.9-3.6-3.88S242.58,404.24,241.86,404.52Z" style="fill:#22D3EE"></path><path d="M241.86,404.52c-.8.31-1.82,1.77-2.4,2.41-1.93,2.12-4.87,3.56-7.46,4.74-12.25,5.56-19.95,1.95-23.19,10-.8,2.29,1.33,7.59,10.87,12.06,4.88,2.29,13.81,2.18,17.38.05s5.68-4.44,8.46-5.93,8.4-2.33,10.57-4.54a12.24,12.24,0,0,0,2.53-4.81c.47-1.39,1.77-6.19,1.77-6.19-2.61,3-5.18,1.89-6.86,2.21a26.79,26.79,0,0,0-5.1,2.05c1.66-2.07,3.28-3.13,2.57-4.81s-.68-1.9-3.6-3.88S242.58,404.24,241.86,404.52Z" style="opacity:0.4"></path><path d="M219.68,433.7c4.88,2.29,13.81,2.18,17.38.05a37.46,37.46,0,0,0,3.39-2.34c-.25.11-.49.25-.71.34-.48.19-1,.37-1.46.53a11.86,11.86,0,0,1-6,.7c-1.76-.37-6.16-1.13-6.75-3.27-.33-1.21.63-2.52,1.9-3.3.53-.34,2-1,2-1a19.26,19.26,0,0,0-3.58-5.1c-2.79-2.66-4.06-3.67-4.06-3.67a8.57,8.57,0,0,1-2.73.73,7,7,0,0,1-3-.54,4.52,4.52,0,0,1-.82-.65c-2.94.8-5.09,2.11-6.45,5.48C208,423.93,210.14,429.23,219.68,433.7Z" style="opacity:0.30000000000000004"></path><path d="M232,411.67a44.27,44.27,0,0,1-10.09,3.15c-3,1.93-2.68,2.94-.95,2.7s8.3-4.14,13.76-7.17C233.81,410.83,232.89,411.27,232,411.67Z" style="fill:#37474f"></path><path d="M255.24,416c1.64-.17,2.93-.11,4.33-.92.88-.47,1.33-2.55,1.26-3.47l-1.42,1.59c-2.45,1.18-4.2,1-5.88,1.28a26.79,26.79,0,0,0-5.1,2.05c-5.28,2.58-6.87,4.2-12,6s-8.92,1.57-9,2.38.81,2.18,5.1,1.49,11-4.18,14-6.26S252.92,416.26,255.24,416Z" style="fill:#37474f"></path><path d="M229.18,425.85a.61.61,0,0,1-.21-.24,16.75,16.75,0,0,0-7.7-8.52.56.56,0,0,1-.23-.73.55.55,0,0,1,.73-.23,17.82,17.82,0,0,1,8.18,9,.53.53,0,0,1-.26.71A.54.54,0,0,1,229.18,425.85Z" style="fill:#ebebeb"></path><path d="M233.42,424.18a.56.56,0,0,1-.2-.23,18.49,18.49,0,0,0-8.26-8.87.54.54,0,0,1-.23-.75.56.56,0,0,1,.75-.24,19.64,19.64,0,0,1,8.73,9.38.54.54,0,0,1-.25.73A.57.57,0,0,1,233.42,424.18Z" style="fill:#ebebeb"></path><path d="M238.29,423.16a.51.51,0,0,1-.23-.25,20.57,20.57,0,0,0-9.16-9.76.61.61,0,1,1,.57-1.08,21.8,21.8,0,0,1,9.69,10.31.61.61,0,0,1-.29.81A.57.57,0,0,1,238.29,423.16Z" style="fill:#ebebeb"></path><path d="M242.26,421.52a.6.6,0,0,1-.22-.25,20.11,20.11,0,0,0-9-9.58.6.6,0,0,1-.25-.81.59.59,0,0,1,.8-.25,21.29,21.29,0,0,1,9.49,10.12.6.6,0,0,1-.27.8A.63.63,0,0,1,242.26,421.52Z" style="fill:#ebebeb"></path><path d="M245.94,419.08a.54.54,0,0,1-.22-.25,20.13,20.13,0,0,0-9-9.57.6.6,0,0,1-.25-.81.59.59,0,0,1,.8-.25,21.27,21.27,0,0,1,9.49,10.11.6.6,0,0,1-.85.77Z" style="fill:#ebebeb"></path><path d="M407.53,319.61c5.27,21.49,3.35,35.6-10.94,45.71-14.79,10.47-29.33,16.62-40.51,21.93-11.77,5.59-23.16,9.31-31.28,3.91-7.55-5-4.85-13-2.79-17.53,4.34-9.69,33.05-32.13,33.05-32.13-6.57-10.88-10.73-19.07-11.27-28.84Z" style="fill:#ffbda7"></path><path d="M349.08,346.13c7-6,18.94-8.24,28.74-6.86-2.84-3.27-14.85-4.12-25.33-.15A15.45,15.45,0,0,0,349.08,346.13Z" style="fill:#37474f"></path><path d="M320.48,388.34c7.59,7.8,21.43,7.09,35.6-1.09-.17-15.12-14.28-23.63-25.67-24.18C321.57,368.18,314,381.69,320.48,388.34Z" style="fill:#37474f"></path><path d="M408,318.57l-64.3-6.82-44.08,24.08s7.85-.19,13.92,11.26c4.68,8.86,2.17,20.7,2.17,20.7l14-4.31,9.45-6.51c8.33-.76,15.6,3.91,19.67,10.58S362,385.12,362,385.12s17.9-7.64,28.63-14.72,19.51-15.65,19.93-31.69C410.84,326.36,408,318.57,408,318.57Z" style="fill:#22D3EE"></path><path d="M339.19,357l20.9-15.56a32.46,32.46,0,0,1-13.83-13.8c.49,7.16,7.35,14.32,7.35,14.32l-23.87,21.55Z" style="opacity:0.2"></path><path d="M405.82,336.38a33.55,33.55,0,0,0-.81-18.13l-.69-.07c3,10.8-.07,22.26-6.25,31.38-6,8.83-14.57,15.58-23.67,21-4.1,2.44-8.35,4.57-12.62,6.69.07.64.13,1.26.17,1.86,9.15-4.18,18.17-9.21,25.86-15.67C396.13,356.45,403.42,347.18,405.82,336.38Z" style="fill:#fafafa"></path><path d="M383.16,360.47c8.32-7,15.6-16.25,18-27.06a34.26,34.26,0,0,0-.06-15.57l-.85-.09c1.89,10-1.14,20.43-6.84,28.84-6,8.84-14.57,15.59-23.67,21-2.9,1.73-5.87,3.29-8.87,4.81.16.62.31,1.23.43,1.85A106.41,106.41,0,0,0,383.16,360.47Z" style="fill:#fafafa"></path></g><g id="freepik--top--inject-125"><g id="freepik--arm--inject-125"><path d="M338.1,144.94c0-2.11.8-9.76.93-12.35.08-1.62,1.91-.81,2.37.19,0-.92.18-1.83.2-2.73a1.16,1.16,0,0,1,1.11-1.29.51.51,0,0,0,.22,0,.44.44,0,0,0,.15-.32c.19-1.09,1.2-1,1.9-.38a4.64,4.64,0,0,1,1.4,3.25l.63,6.57a13.59,13.59,0,0,1,.12-2.2c.08-.8.14-1.63.23-2.43.13-1.2.28-2.38.45-3.57.05-.34.14-.73.46-.87a.71.71,0,0,1,.75.19c1,1,1.26,2.74,1.37,4.07.17,2.07.15,4.16.3,6.24.12,1.76.08,3.62,1.07,5.16.64,1,.8-.61.83-1a14.39,14.39,0,0,1,.42-2.76,5.86,5.86,0,0,1,2-2.61,1,1,0,0,1,.86-.28,1,1,0,0,1,.54.69,8.72,8.72,0,0,1,.08,2.75,61.8,61.8,0,0,0,.79,7.65c.3,2.66.77,5.45.31,8.12s-2.63,4.19-3,6.94c-.38,2.91-6.35,38.47-6.35,38.47s2.68,11.23,4.88,20.28c1.17,4.84,2.2,8.46,3.79,10.87,2.59,3.93,4.89,4.89,8.22,7.33l-17.85,34.83c-1.36-4.53-4.75-15.8-7.42-26.18-4.93-19.2-7.33-30.62-8.86-39.4-1.39-7.94-1.27-9,.89-16.77,2.62-10,10.7-29.58,10.65-32.93S338.14,147.05,338.1,144.94Z" style="fill:#ffbda7"></path><path d="M351.08,147.62c-3.78,4-1.25,9.42-1.25,9.42S344.15,151.77,351.08,147.62Z" style="fill:#f0997a"></path></g><g id="freepik--top--inject-125"><path d="M423.36,209.7c.69-1.74.46-4.92-1-6.1a7.49,7.49,0,0,0-4.8-1.58c-3.7-.18-3.91-2.83-4.13-3.68-.84-3.28-2.23-5-4.3-5.88-5.54-2.41-18.38,0-16.11,8.5.34,1.26,1.08,2.55.64,3.78a4.14,4.14,0,0,1-1,1.36c-1.87,2-3.92,3.86-5.23,6.25s-1.76,5.47-.33,7.79,4.12,3.33,5.09,5.7c1.33,3.27-1.34,7.3.34,10.4,1.34,2.48,3.6,2.57,6,2.39,2.78-.21,4.43,2.89,7.46,2a17,17,0,0,1,4.1-.37,11.82,11.82,0,0,0,4.9-1.15,6.37,6.37,0,0,0,3.25-3.7c.44-1.49.21-3.19,1-4.54.65-1.15,1.78-2,2.5-3.05A5.8,5.8,0,0,0,423,224c0-.43-.33-2-1.34-2.58a2.43,2.43,0,0,1,2.14,1.76,7.27,7.27,0,0,1,.13,2.94,6.16,6.16,0,0,0,.53-9.25c-.8-.79-1.88-1.45-2.12-2.55C421.88,212.52,422.68,211.39,423.36,209.7Z" style="fill:#263238"></path><path d="M401,191.53c5.34,1.54,7,10.85,2,16.11S392.8,188.65,401,191.53Z" style="fill:#22D3EE"></path><g id="freepik--chest--inject-125"><path d="M344.43,288.78c-7.91-9-3.57-19.91-1.18-24.19,7.42-13.29,19.58-25.31,19.58-25.31A75.68,75.68,0,0,0,377,241.76c3.74.29,10.67.58,16.32,2.1,1.55.25,5.32-1.08,5.32-1.08-1,5.89-3.52,15.71-2.88,21.23a25.25,25.25,0,0,0,11.15,18.62s-2.77,12.89-3.4,16.23c-.42,2.27,1,6.78,2.4,10.91a104.37,104.37,0,0,1,4.65,17.59c-25.53,22.51-68.37,1-68.9-14.7-.18-2.76,2.91-7.58,3.6-11S345.28,294.21,344.43,288.78Z" style="fill:#fafafa"></path><path d="M363.12,240.41a79.44,79.44,0,0,0,13.75,2.35l1.8.13A79.72,79.72,0,0,1,393,244.82l.09,0a3.89,3.89,0,0,0,.62,0,14.58,14.58,0,0,0,3.59-.66c-.21,1.1-.45,2.3-.69,3.55-1.13,5.67-2.41,12.09-1.91,16.35a26.35,26.35,0,0,0,11,19c-.58,2.71-2.72,12.71-3.26,15.58-.38,2,.37,5.54,2.44,11.42A103.68,103.68,0,0,1,409.43,327c-7,6-15.92,9.12-25.9,9.12-20.67,0-40.58-13.22-40.93-23.49-.08-1.33.85-3.51,1.75-5.61a28.58,28.58,0,0,0,1.84-5.17c.72-3.63.09-7.64-.77-13.2a1,1,0,0,0-.24-.5c-7.9-9-2.8-19.91-1.05-23.05,6.5-11.64,16.82-22.45,19-24.66m-.29-1.13s-12.16,12-19.58,25.31c-2.39,4.28-6.73,15.2,1.18,24.19.85,5.43,1.46,9.39.78,12.85s-3.78,8.27-3.6,11c.36,10.84,20.86,24.43,41.92,24.43,9.47,0,19.06-2.75,27-9.73a104.37,104.37,0,0,0-4.65-17.59c-1.45-4.13-2.82-8.64-2.4-10.91.63-3.34,3.4-16.23,3.4-16.23A25.25,25.25,0,0,1,395.71,264c-.64-5.52,1.91-15.34,2.88-21.23a20.34,20.34,0,0,1-4.86,1.11,3.23,3.23,0,0,1-.46,0c-5.65-1.52-12.58-1.81-16.32-2.1a75.68,75.68,0,0,1-14.12-2.48Z" style="fill:#e0e0e0"></path><path d="M371.22,271.23q-.77-.41-1.92-.9a12.77,12.77,0,0,0-2.61-.76,3.77,3.77,0,0,0-2.88.39,4.08,4.08,0,0,0-1.63,2.1l-.25.66a13.06,13.06,0,0,1,1.87-.12,10.17,10.17,0,0,1,2,.16,9.07,9.07,0,0,1,2.05.64,4,4,0,0,1,1.54,1.16,3.45,3.45,0,0,1,.71,1.81,5.68,5.68,0,0,1-.44,2.58,6.94,6.94,0,0,1-3.73,4.25,10.78,10.78,0,0,1-6.23.38,11.63,11.63,0,0,1-3.39-1.16,5.66,5.66,0,0,1-2.15-2,5.41,5.41,0,0,1-.8-2.8A9.63,9.63,0,0,1,354,274a18.13,18.13,0,0,1,2.46-4.66,11.28,11.28,0,0,1,3.1-2.88,9.34,9.34,0,0,1,3.6-1.29,12.29,12.29,0,0,1,3.95.13,15.34,15.34,0,0,1,1.89.47,12.92,12.92,0,0,1,1.51.58,11,11,0,0,1,1.16.63l.9.58Zm-8.8,4.73a4.8,4.8,0,0,0-.74-.06,5.49,5.49,0,0,0-1,.06l-.58,1.55a1.7,1.7,0,0,0-.07,1.37,1.48,1.48,0,0,0,1.1.63,2,2,0,0,0,1.4-.16,2.21,2.21,0,0,0,.89-1.21C363.92,276.91,363.57,276.18,362.42,276Z" style="fill:#22D3EE"></path><path d="M363.39,289.85s5.48,6,16.28,3.49,12.42-10.9,12.42-10.9S393.43,293,380.51,296C367.79,298.89,363.39,289.85,363.39,289.85Z" style="fill:#e0e0e0"></path></g><g id="freepik--head--inject-125"><path d="M390.64,233.7c4.42-6.37,5.62-6.8,10.75-13.55a19.83,19.83,0,0,0,4.39-12c-.06-4.55-2.85-7.22-4.25-11.23a14.16,14.16,0,0,0-2.9-4.6,25,25,0,0,0-14.77-8.49,10.21,10.21,0,0,0-6,.63c-1.21.59-2.23,1.55-3.49,2-2.2.86-4.66.16-7,.08a10.55,10.55,0,0,0-7.39,2.47,7.56,7.56,0,0,0-2.45,7.21c.32,1.31,1.06,2.58.86,3.91-.26,1.8-2.08,2.92-3,4.52a4.91,4.91,0,0,0,2.12,6.57,4,4,0,0,1,.91-3.76c-1.15,1.24,1.68,5.17,2.66,5.93,2.13,1.66,4.83-.49,7.21.08,1.42.33,2.85,2.26,3.93,3.26q4.21,3.9,8.45,7.78C381.26,225.13,390.79,233.48,390.64,233.7Z" style="fill:#263238"></path><path d="M390,239.28c.64-5.87,1.59-11.33,1.59-11.33.4,1.27,3.36,2.88,7.55,0,4.81-3.37,4.61-7,3.15-9.93-1.68-3.38-5.82-3.44-9.07-.19-1.8,4.47-4.74-2.15-.88-5.67-1.78-3.21-4.31-4.09-1-11.53-10.06,3.28-17.23-6.45-23.74-2.7-1.73,2.13-3.62,4.3-4.15,7.09-.17.87-.18,1.76-.32,2.63-.36,2.33-1.52,4.45-2.36,6.65a24.52,24.52,0,0,0-1.55,10,16.16,16.16,0,0,0,1.51,6.32,9.92,9.92,0,0,0,3.63,4,20.37,20.37,0,0,0,5.58,2.07s-.08.5-.25,1.36c-.54,2.67-2,2.42-2,2.42-1.78,4.58-3.49,8.45.52,16.37,13.63-4.12,23.06-9.46,25-13A4.36,4.36,0,0,1,390,239.28Z" style="fill:#ffbda7"></path><path d="M370,236.67c6.91,1.66,11.28.54,14-1.32a14.88,14.88,0,0,0,4.29-5.29s-3.85,4.23-8.81,4.67c-6.44.56-13.32-2.44-15.66-2.63S362.76,235.13,370,236.67Z" style="fill:#f0997a"></path><path d="M365.94,203.35l3.54,2.88a2.2,2.2,0,0,0-.25-3.17A2.41,2.41,0,0,0,365.94,203.35Z" style="fill:#263238"></path><path d="M384.25,206.52l-4.62,0a2.22,2.22,0,0,1,2.21-2.34A2.43,2.43,0,0,1,384.25,206.52Z" style="fill:#263238"></path><path d="M368.53,209.38a2,2,0,0,1-2.36,1.34,1.82,1.82,0,0,1-1.34-2.27,2,2,0,0,1,2.36-1.35A1.83,1.83,0,0,1,368.53,209.38Z" style="fill:#263238"></path><path d="M381.71,211.81a2,2,0,0,1-2.35,1.35,1.84,1.84,0,0,1-1.34-2.28,1.94,1.94,0,0,1,2.35-1.34A1.82,1.82,0,0,1,381.71,211.81Z" style="fill:#263238"></path><path d="M374.34,224a1.41,1.41,0,0,1-1.7,1,1.32,1.32,0,0,1-1-1.64,1.41,1.41,0,0,1,1.7-1A1.33,1.33,0,0,1,374.34,224Z" style="fill:#b16668"></path><path d="M365.23,216.07l5.66,3.72,4.22-11.54C372.87,208.59,369.54,211,365.23,216.07Z" style="fill:#f0997a"></path></g></g><g id="freepik--arm--inject-125"><path d="M414.12,175.21a17.34,17.34,0,0,1-.76-1.64c-.87-2.34-.09-4.92.48-7.34.34-1.42.6-2.86.8-4.31s.57-2.66.63-4a19.69,19.69,0,0,0-1-5.28c-.42-1.75-.55-3.72.44-5.22.18-.26.46-.53.77-.47a.86.86,0,0,1,.51.45,23.67,23.67,0,0,1,2.61,5.32,11.26,11.26,0,0,0-.07-4c-.21-1.23-.79-2.47-.92-3.69a3.4,3.4,0,0,1,.83-2.57,1.51,1.51,0,0,1,1.59,0c0-2,.16-3.73,2.18-4,.48-.06.7,2,.76,2.19.58,2.14,1.11,4.31,1.77,6.41-.09-1.16-.15-2.33-.17-3.5a7.88,7.88,0,0,1,.26-3,2,2,0,0,1,1.36-1.32.36.36,0,0,1,.27,0,.46.46,0,0,1,.16.18,9.93,9.93,0,0,1,.8,2.51,35,35,0,0,1,1.08,7.94c0,1.17.38,3.45.25,4.61-.35,3.35-.76,8.27-1.25,11.6-.27,1.82,0,4.33,1,8.84,1.05,4.89,6.23,21.73,9.26,35.08,1.47,6.47-.71,11.52-6.6,23.08-3.61,7.06-11.3,22.3-14.14,27.78-5.86,11.36-6.94,14.18-10.2,21.78-3.07-1.21-13.34-5.73-13.31-20.85,0-4.22,2.32-15,4-18.51a17.09,17.09,0,0,0,4.54-4.85c3.08-4.59,5.25-7.13,7-10.23s5.9-8.46,8.63-13.7c-.58-8.69-.93-27.6-1.23-31.27a41.93,41.93,0,0,0-.56-4.44C415.72,177.47,414.73,176.4,414.12,175.21Z" style="fill:#ffbda7"></path><path d="M418.76,154.74c0-.42,0-1.23-.13-2.19a9.73,9.73,0,0,0,.09-2.35,15.79,15.79,0,0,1,.52,4.4,15.18,15.18,0,0,1-.78,4S418.7,156,418.76,154.74Z" style="fill:#f0997a"></path><path d="M420.3,142.6c.4,2.21,1.6,6.45,1.66,8a41.36,41.36,0,0,1-.56,7.1,17.5,17.5,0,0,0,1.05-7.23C422.25,148,421.24,145.53,420.3,142.6Z" style="fill:#f0997a"></path><path d="M422.93,140.55c.64,3,1.85,8.33,2,9.56a58.74,58.74,0,0,1-.53,7,32.49,32.49,0,0,0,1.17-6C425.64,149,422.93,140.55,422.93,140.55Z" style="fill:#f0997a"></path></g></g></g></g><g id="freepik--Ball--inject-125"><g id="freepik--ball--inject-125"><circle cx="294.17" cy="53.74" r="23.04" transform="translate(-4.81 47.82) rotate(-9.22)" style="fill:#22D3EE"></circle><path d="M314.32,42.57c-.18-.33-.38-.63-.57-.94a17.84,17.84,0,0,0-10.15,2c-4.49,2.29-8.51,6.32-9.73,9.69-2.26.41-5.93-.13-9.64-1.81,1.52-5.15,7.28-11.28,14.15-15a32.39,32.39,0,0,1,7.1-2.84c-.36-.21-.73-.39-1.11-.58A32.87,32.87,0,0,0,298,35.77c-7,3.81-12.89,10.07-14.53,15.4a21.73,21.73,0,0,1-2.24-1.27,19.07,19.07,0,0,1-4.2-3.64c1.51-4.39,6.28-10.45,13.18-15.19a21.64,21.64,0,0,0-2.12.47C282.15,36,278,41.35,276.39,45.46a14,14,0,0,1-1.95-3.56c-.19.31-.38.6-.55.92a17.81,17.81,0,0,0,6.85,7.8,22.86,22.86,0,0,0,11.5,3.73A9.59,9.59,0,0,0,294,54.2c1.48,1.75,2.85,5.19,3.25,9.24-5.22,1.26-13.4-.65-20.08-4.74a31.93,31.93,0,0,1-6-4.72c0,.42,0,.83.06,1.25a33.77,33.77,0,0,0,5.5,4.2c5.45,3.33,11.9,5.26,17,5.26a15.85,15.85,0,0,0,3.56-.39,24.74,24.74,0,0,1,0,2.59,19.7,19.7,0,0,1-1.06,5.46c-4.56.89-12.21-.23-19.78-3.84a20.86,20.86,0,0,0,1.42,1.55A40,40,0,0,0,293,73.5a18.81,18.81,0,0,0,2.94-.24,14.24,14.24,0,0,1-2.12,3.5l.38,0c.24,0,.47,0,.71,0a17.78,17.78,0,0,0,3.31-9.81c.26-5-1.22-10.52-3.53-13.26.77-2.16,3.08-5.07,6.39-7.44,3.7,3.88,6.13,11.94,5.93,19.76a32.52,32.52,0,0,1-1.08,7.56c.35-.21.7-.41,1-.64a33.71,33.71,0,0,0,.9-6.9c.2-8-2.29-16.19-6.07-20.27A21,21,0,0,1,304,44.42a19.26,19.26,0,0,1,5.24-1.81c3,3.5,5.91,10.67,6.57,19,.25-.68.46-1.37.65-2.07-.91-7.36-3.45-13.64-6.21-17.08A14.41,14.41,0,0,1,314.32,42.57ZM294.17,53.74Z" style="opacity:0.30000000000000004"></path><path d="M284.64,65.91c-8-6.71-10.28-24.4-2.25-31.95a23,23,0,1,0,31.93,30.95C307.64,71.43,292.69,72.63,284.64,65.91Z" style="opacity:0.1"></path></g></g></svg>
